SplineFontDB: 3.2
FontName: BibleRomanCondensed
FullName: Bible Roman Condensed
FamilyName: Bible Roman Condensed
Weight: Book
Copyright: 2002, Fredrick Nader. All rights reserved. apostrophe@apostrophiclab.com
Version: 1.0; December 2002
ItalicAngle: 0
UnderlinePosition: -150
UnderlineWidth: 40
Ascent: 819
Descent: 205
InvalidEm: 0
sfntRevision: 0x00010000
LayerCount: 2
Layer: 0 1 "Hinten" 1
Layer: 1 1 "Vorne" 0
XUID: [1021 256 -1967491057 7094]
StyleMap: 0x0040
FSType: 0
OS2Version: 2
OS2_WeightWidthSlopeOnly: 0
OS2_UseTypoMetrics: 0
CreationTime: 1039457615
ModificationTime: 1771267573
PfmFamily: 17
TTFWeight: 400
TTFWidth: 3
LineGap: 28
VLineGap: 0
Panose: 2 2 5 0 6 4 11 2 4 3
OS2TypoAscent: 816
OS2TypoAOffset: 0
OS2TypoDescent: -281
OS2TypoDOffset: 0
OS2TypoLinegap: 54
OS2WinAscent: 1026
OS2WinAOffset: 0
OS2WinDescent: 298
OS2WinDOffset: 0
HheadAscent: 1026
HheadAOffset: 0
HheadDescent: -298
HheadDOffset: 0
OS2SubXSize: 717
OS2SubYSize: 666
OS2SubXOff: 0
OS2SubYOff: 143
OS2SupXSize: 717
OS2SupYSize: 666
OS2SupXOff: 0
OS2SupYOff: 488
OS2StrikeYSize: 51
OS2StrikeYPos: 256
OS2FamilyClass: 258
OS2Vendor: 'APOS'
OS2CodePages: 20000111.00000000
OS2UnicodeRanges: 80000027.4000004a.00000000.00000000
Lookup: 1 0 0 "'smcp' Gemeine in Kapit+AOQA-lchen in Lateinisch Nachschlagetabelle 0" { "'smcp' Gemeine in Kapit+AOQA-lchen in Lateinisch Nachschlagetabelle 0 Subtabelle"  } ['smcp' ('latn' <'dflt' > ) ]
Lookup: 1 0 0 "'c2sc' Versalien in Kapit+AOQA-lchen in Lateinisch Nachschlagetabelle 0" { "'c2sc' Versalien in Kapit+AOQA-lchen in Lateinisch Nachschlagetabelle 0 Subtabelle"  } ['c2sc' ('latn' <'dflt' > ) ]
Lookup: 258 0 0 "'kern' Horizontale Unterschneidung in Lateinisch Nachschlagetabelle 0" { "'kern' Horizontale Unterschneidung in Lateinisch Nachschlagetabelle 0 Subtabelle"  } ['kern' ('DFLT' <'dflt' > 'latn' <'dflt' > ) ]
MarkAttachClasses: 1
DEI: 91125
ShortTable: maxp 16
  1
  0
  248
  235
  7
  0
  0
  1
  0
  0
  0
  0
  0
  0
  0
  0
EndShort

StartChar: breve
Encoding: 5 5 4
Width: 360
Flags: W
LayerCount: 2
Fore
SplineSet
184.5 593.5 m 0,0,1
 195.4140625 593.5 195.4140625 593.5 205.6640625 598.966796875 c 0,2,3
 224.9921875 609.275390625 224.9921875 609.275390625 235.752929688 636.944335938 c 0,4,5
 240.375 648.830078125 240.375 648.830078125 240.375 664 c 2,6,-1
 240.375 671.5 l 1,7,-1
 246 671.5 l 1,8,-1
 277.5 671.5 l 1,9,-1
 283.125 671.5 l 1,10,-1
 283.125 664 l 2,11,12
 283.125 635.262695312 283.125 635.262695312 274.375 611.400390625 c 0,13,14
 265.625 587.537109375 265.625 587.537109375 251.79296875 569.62109375 c 0,15,16
 237.890625 551.614257812 237.890625 551.614257812 219.643554688 541.564453125 c 0,17,18
 201.368164062 531.5 201.368164062 531.5 181.5 531.5 c 0,19,20
 177.864257812 531.5 177.864257812 531.5 172.315429688 533.557617188 c 0,21,22
 156.243164062 534.853515625 156.243164062 534.853515625 141.09375 547.079101562 c 0,23,24
 126.034179688 559.232421875 126.034179688 559.232421875 114.176757812 578.203125 c 0,25,26
 102.400390625 597.046875 102.400390625 597.046875 95.2900390625 619.166992188 c 0,27,28
 88.1796875 641.288085938 88.1796875 641.288085938 87.3818359375 663.637695312 c 2,29,-1
 87.1005859375 671.5 l 1,30,-1
 93 671.5 l 1,31,-1
 129 671.5 l 1,32,-1
 134.208984375 671.5 l 1,33,-1
 134.608398438 664.58203125 l 2,34,35
 135.291015625 652.747070312 135.291015625 652.747070312 139.086914062 640.325195312 c 0,36,37
 142.864257812 627.963867188 142.864257812 627.963867188 149.383789062 617.8984375 c 0,38,39
 163.508789062 596.08984375 163.508789062 596.08984375 181.516601562 594.375 c 0,40,41
 182.829101562 593.5 182.829101562 593.5 184.5 593.5 c 0,0,1
EndSplineSet
EndChar

StartChar: dotaccent
Encoding: 6 6 5
Width: 348
Flags: W
LayerCount: 2
Fore
SplineSet
149.345703125 689.23046875 m 0,0,1
 164.877929688 710.5 164.877929688 710.5 186.291015625 710.5 c 0,2,3
 207.704101562 710.5 207.704101562 710.5 224.790039062 689.38671875 c 0,4,5
 241.875 668.272460938 241.875 668.272460938 241.875 637.556640625 c 0,6,7
 241.875 606.83984375 241.875 606.83984375 225.17578125 585.130859375 c 0,8,9
 208.537109375 563.5 208.537109375 563.5 186 563.5 c 0,10,11
 181.859375 563.5 181.859375 563.5 180.155273438 564.76953125 c 0,12,13
 171.31640625 566.372070312 171.31640625 566.372070312 162.852539062 573.895507812 c 0,14,15
 146.35546875 588.559570312 146.35546875 588.559570312 138.055664062 615.120117188 c 0,16,17
 133.875 628.497070312 133.875 628.497070312 133.875 641 c 0,18,19
 133.875 668.045898438 133.875 668.045898438 149.345703125 689.23046875 c 0,0,1
EndSplineSet
EndChar

StartChar: ring
Encoding: 8 8 6
Width: 355
Flags: W
LayerCount: 2
Fore
SplineSet
222.375 635 m 0,0,1
 222.375 657.712890625 222.375 657.712890625 209.840820312 673.106445312 c 0,2,3
 197.305664062 688.5 197.305664062 688.5 181.966796875 688.5 c 0,4,5
 166.627929688 688.5 166.627929688 688.5 155.911132812 673.778320312 c 0,6,7
 145.125 658.9609375 145.125 658.9609375 145.125 639 c 0,8,9
 145.125 630.477539062 145.125 630.477539062 148.146484375 620.631835938 c 0,10,11
 154.461914062 600.047851562 154.461914062 600.047851562 166.614257812 589.245117188 c 0,12,13
 172.399414062 584.103515625 172.399414062 584.103515625 181.232421875 581.961914062 c 0,14,15
 181.887695312 581.5 181.887695312 581.5 182.25 581.5 c 0,16,17
 199.421875 581.5 199.421875 581.5 210.8984375 596.802734375 c 0,18,19
 222.375 612.104492188 222.375 612.104492188 222.375 635 c 0,0,1
258.375 635 m 0,20,21
 258.375 613.458007812 258.375 613.458007812 252.297851562 594.55078125 c 0,22,23
 246.224609375 575.65625 246.224609375 575.65625 235.275390625 561.59765625 c 0,24,25
 224.385742188 547.615234375 224.385742188 547.615234375 209.91015625 539.573242188 c 0,26,27
 195.376953125 531.5 195.376953125 531.5 180 531.5 c 0,28,29
 174.845703125 531.5 174.845703125 531.5 171.577148438 533.647460938 c 0,30,31
 158.83984375 535.158203125 158.83984375 535.158203125 146.861328125 545.272460938 c 0,32,33
 134.883789062 555.387695312 134.883789062 555.387695312 126.08203125 570.857421875 c 0,34,35
 117.280273438 586.328125 117.280273438 586.328125 112.077148438 604.469726562 c 0,36,37
 106.875 622.611328125 106.875 622.611328125 106.875 640.569335938 c 0,38,39
 106.875 658.528320312 106.875 658.528320312 112.569335938 676.423828125 c 0,40,41
 118.200195312 694.123046875 118.200195312 694.123046875 127.866210938 708.083984375 c 0,42,43
 137.618164062 722.169921875 137.618164062 722.169921875 150.6171875 730.294921875 c 0,44,45
 163.745117188 738.5 163.745117188 738.5 178.5 738.5 c 0,46,47
 213.828125 738.5 213.828125 738.5 236.1015625 708.802734375 c 0,48,49
 258.375 679.104492188 258.375 679.104492188 258.375 635 c 0,20,21
EndSplineSet
EndChar

StartChar: hungarumlaut
Encoding: 10 10 7
Width: 399
Flags: W
LayerCount: 2
Fore
SplineSet
132.0078125 515.661132812 m 0,0,1
 122.147460938 506.993164062 122.147460938 506.993164062 112.399414062 515.9296875 c 0,2,3
 107.424804688 520.489257812 107.424804688 520.489257812 107.424804688 527.857421875 c 0,4,5
 107.424804688 535.225585938 107.424804688 535.225585938 110.405273438 542.232421875 c 0,6,7
 119.71875 574.298828125 119.71875 574.298828125 158.069335938 678.790039062 c 0,8,9
 166.8125 702.612304688 166.8125 702.612304688 172.228515625 714.267578125 c 0,10,11
 179.537109375 730 179.537109375 730 186.7734375 730 c 0,12,13
 192.333984375 730 192.333984375 730 198.59765625 723.763671875 c 0,14,15
 202.59375 719.323242188 202.59375 719.323242188 204.708984375 717.9140625 c 0,16,17
 208.80859375 715.180664062 208.80859375 715.180664062 215.76171875 707.969726562 c 0,18,19
 222.71484375 700.758789062 222.71484375 700.758789062 224.633789062 699.672851562 c 0,20,21
 233.25 695 233.25 695 233.272460938 683.3671875 c 0,22,23
 233.272460938 672.303710938 233.272460938 672.303710938 227.444335938 665.62109375 c 0,24,25
 222.184570312 657.540039062 222.184570312 657.540039062 208.534179688 634.421875 c 0,26,27
 175.958007812 579.247070312 175.958007812 579.247070312 156.229492188 549.288085938 c 0,28,29
 136.5 519.330078125 136.5 519.330078125 132.0078125 515.661132812 c 0,0,1
224.262695312 511.369140625 m 0,30,31
 219.474609375 511.369140625 219.474609375 511.369140625 214.674804688 516.0625 c 0,32,33
 209.875 520.755859375 209.875 520.755859375 209.875 528.033203125 c 0,34,35
 209.875 535.311523438 209.875 535.311523438 212.341796875 542.013671875 c 0,36,37
 219.459960938 566.5859375 219.459960938 566.5859375 235.458007812 610.955078125 c 0,38,39
 259.65625 678.065429688 259.65625 678.065429688 274.879882812 715.76171875 c 0,40,41
 281.5546875 730 281.5546875 730 288.7734375 730 c 0,42,43
 294.333984375 730 294.333984375 730 300.59765625 723.763671875 c 0,44,45
 304.46484375 719.466796875 304.46484375 719.466796875 307.063476562 717.981445312 c 0,46,47
 309.662109375 716.497070312 309.662109375 716.497070312 311.821289062 714.194335938 c 0,48,49
 324.079101562 701.119140625 324.079101562 701.119140625 326.633789062 699.672851562 c 0,50,51
 335.25 695 335.25 695 335.272460938 683.3671875 c 0,52,53
 335.272460938 672.303710938 335.272460938 672.303710938 329.444335938 665.62109375 c 0,54,55
 324.184570312 657.540039062 324.184570312 657.540039062 310.534179688 634.421875 c 0,56,57
 277.958007812 579.247070312 277.958007812 579.247070312 258.229492188 549.2890625 c 0,58,59
 238.5 519.330078125 238.5 519.330078125 233.814453125 515.349609375 c 0,60,61
 229.127929688 511.369140625 229.127929688 511.369140625 224.262695312 511.369140625 c 0,30,31
EndSplineSet
EndChar

StartChar: ogonek
Encoding: 11 11 8
Width: 363
Flags: W
LayerCount: 2
Fore
SplineSet
250.03515625 32.0693359375 m 0,0,1
 272.856445312 48.884765625 272.856445312 48.884765625 302.327148438 48.884765625 c 0,2,3
 311.546875 48.884765625 311.546875 48.884765625 320.752929688 47.3505859375 c 1,4,5
 328.25 44.0185546875 328.25 44.0185546875 328.25 31.0693359375 c 0,6,7
 328.25 22.8056640625 328.25 22.8056640625 324.079101562 -7.2255859375 c 1,8,9
 317.834960938 -6.2998046875 317.834960938 -6.2998046875 314.850585938 -6.2998046875 c 0,10,11
 311.866210938 -6.2998046875 311.866210938 -6.2998046875 304.616210938 -9.5224609375 c 0,12,13
 289.40234375 -16.2841796875 289.40234375 -16.2841796875 279.455078125 -34.8525390625 c 0,14,15
 274.788085938 -43.5654296875 274.788085938 -43.5654296875 274.251953125 -49.7001953125 c 0,16,17
 273.715820312 -55.8359375 273.715820312 -55.8359375 273.715820312 -59.5947265625 c 0,18,19
 273.715820312 -76.3427734375 273.715820312 -76.3427734375 281.041015625 -90.8115234375 c 0,20,21
 289.540039062 -107.6015625 289.540039062 -107.6015625 315.896484375 -108.502929688 c 2,22,-1
 315.998046875 -108.502929688 l 2,23,24
 332.848632812 -109.479492188 332.848632812 -109.479492188 346.655273438 -107.541015625 c 0,25,26
 360.463867188 -105.603515625 360.463867188 -105.603515625 383.013671875 -97.5087890625 c 1,27,-1
 385.323242188 -101.203125 l 2,28,29
 390.193359375 -108.99609375 390.193359375 -108.99609375 390.643554688 -115.591796875 c 0,30,31
 391.092773438 -122.1875 391.092773438 -122.1875 392.3828125 -135.9453125 c 1,32,33
 370.205078125 -147.034179688 370.205078125 -147.034179688 351.411132812 -156.239257812 c 0,34,35
 330.248046875 -166.604492188 330.248046875 -166.604492188 309.545898438 -166.604492188 c 0,36,37
 288.842773438 -166.60546875 288.842773438 -166.60546875 270.129882812 -158.122070312 c 0,38,39
 251.416992188 -149.638671875 251.416992188 -149.638671875 237.379882812 -133.596679688 c 0,40,41
 223.342773438 -117.5546875 223.342773438 -117.5546875 216.953125 -97.6728515625 c 0,42,43
 210.5625 -77.7919921875 210.5625 -77.7919921875 210.5625 -58.25 c 0,44,45
 210.5625 -22.568359375 210.5625 -22.568359375 224.231445312 1.9658203125 c 0,46,47
 234.713867188 20.779296875 234.713867188 20.779296875 250.03515625 32.0693359375 c 0,0,1
EndSplineSet
EndChar

StartChar: caron
Encoding: 12 12 9
Width: 324
Flags: W
LayerCount: 2
Fore
SplineSet
250.5 723.5 m 0,0,1
 255.962890625 723.5 255.962890625 723.5 258.293945312 718.966796875 c 0,2,3
 260.625 714.434570312 260.625 714.434570312 260.625 709.4140625 c 0,4,5
 260.625 704.393554688 260.625 704.393554688 255.452148438 689.008789062 c 0,6,7
 250.280273438 673.624023438 250.280273438 673.624023438 241.971679688 653.985351562 c 0,8,9
 233.663085938 634.34765625 233.663085938 634.34765625 224.295898438 611.865234375 c 0,10,11
 208.331054688 573.549804688 208.331054688 573.549804688 189.583984375 535.397460938 c 0,12,13
 181.748046875 519.452148438 181.748046875 519.452148438 176.887695312 515.564453125 c 2,14,-1
 174.108398438 513.33984375 l 1,15,16
 167.03125 518.58203125 167.03125 518.58203125 164.703125 521.232421875 c 0,17,18
 162.303710938 523.962890625 162.303710938 523.962890625 161.438476562 526.66015625 c 2,19,-1
 118.952148438 619.084960938 l 2,20,21
 98.4111328125 663.716796875 98.4111328125 663.716796875 87.689453125 702.51953125 c 0,22,23
 85.875 709.778320312 85.875 709.778320312 85.875 713 c 0,24,25
 85.875 720.553710938 85.875 720.553710938 89.1826171875 724.08203125 c 0,26,27
 92.4912109375 727.611328125 92.4912109375 727.611328125 96.8330078125 727.611328125 c 0,28,29
 98.1171875 727.611328125 98.1171875 727.611328125 100.295898438 727.067382812 c 0,30,31
 105.015625 725.888671875 105.015625 725.888671875 115.094726562 709.762695312 c 0,32,33
 125.172851562 693.63671875 125.172851562 693.63671875 136.036132812 674.158203125 c 0,34,35
 160.638671875 630.04296875 160.638671875 630.04296875 173.975585938 616.212890625 c 1,36,37
 180.448242188 623.125976562 180.448242188 623.125976562 189.6015625 638.81640625 c 0,38,39
 198.75390625 654.506835938 198.75390625 654.506835938 208.9375 673.114257812 c 0,40,41
 219.12109375 691.720703125 219.12109375 691.720703125 229.805664062 707.610351562 c 0,42,43
 240.490234375 723.5 240.490234375 723.5 250.5 723.5 c 0,0,1
EndSplineSet
EndChar

StartChar: dotlessi
Encoding: 13 13 10
Width: 240
Flags: W
LayerCount: 2
Fore
SplineSet
158.623046875 134.100585938 m 1,0,-1
 158.174804688 91.7998046875 l 2,1,2
 158.174804688 77.8203125 158.174804688 77.8203125 159.340820312 63.8359375 c 2,3,-1
 159.3515625 63.6865234375 l 2,4,5
 160.584960938 45.5947265625 160.584960938 45.5947265625 166.63671875 41.0341796875 c 0,6,7
 174.431640625 35.16015625 174.431640625 35.16015625 184.5703125 32.74609375 c 0,8,9
 194.709960938 30.33203125 194.709960938 30.33203125 203.546875 27.2578125 c 0,10,11
 216.375 22.7958984375 216.375 22.7958984375 216.375 5 c 0,12,13
 216.375 -2.3759765625 216.375 -2.3759765625 213.233398438 -7.9931640625 c 0,14,15
 210.090820312 -13.611328125 210.090820312 -13.611328125 202.299804688 -14.5556640625 c 0,16,17
 194.508789062 -15.5 194.508789062 -15.5 184.807617188 -15.5 c 0,18,19
 175.107421875 -15.5 175.107421875 -15.5 161.607421875 -13 c 0,20,21
 148.107421875 -10.5 148.107421875 -10.5 131.557617188 -10.5 c 0,22,23
 115.008789062 -10.5 115.008789062 -10.5 94.3837890625 -13 c 0,24,25
 73.7587890625 -15.5 73.7587890625 -15.5 54 -15.5 c 2,26,-1
 45 -15.5 l 2,27,28
 38.2080078125 -15.5 38.2080078125 -15.5 32.2041015625 -13.212890625 c 0,29,30
 22.875 -9.6591796875 22.875 -9.6591796875 22.875 7 c 0,31,32
 22.875 13.1044921875 22.875 13.1044921875 26.0234375 17.302734375 c 2,33,-1
 29.0234375 21.302734375 l 1,34,-1
 29.2724609375 21.634765625 l 1,35,36
 37.423828125 30.087890625 37.423828125 30.087890625 47.1630859375 32.251953125 c 0,37,38
 56.90234375 34.416015625 56.90234375 34.416015625 64.61328125 35.818359375 c 0,39,40
 72.32421875 37.2197265625 72.32421875 37.2197265625 77.5029296875 41.439453125 c 0,41,42
 82.681640625 45.66015625 82.681640625 45.66015625 84.2783203125 56.7041015625 c 0,43,44
 85.875 67.7490234375 85.875 67.7490234375 85.875 72 c 2,45,-1
 85.875 87 l 1,46,-1
 86.375 130.111328125 l 1,47,-1
 86.125 171.888671875 l 2,48,49
 86.125 213.568359375 86.125 213.568359375 87.875 250.904296875 c 0,50,51
 89.625 288.239257812 89.625 288.239257812 89.625 305.95703125 c 0,52,53
 89.625 323.674804688 89.625 323.674804688 88.5830078125 339.890625 c 0,54,55
 87.5400390625 356.107421875 87.5400390625 356.107421875 82.5615234375 365.38671875 c 0,56,57
 79.6884765625 369.860351562 79.6884765625 369.860351562 73.263671875 373.467773438 c 0,58,59
 66.8388671875 377.07421875 66.8388671875 377.07421875 60.380859375 380.620117188 c 0,60,61
 53.9228515625 384.165039062 53.9228515625 384.165039062 48.490234375 387.787109375 c 0,62,63
 40.125 393.364257812 40.125 393.364257812 40.125 402.646484375 c 0,64,65
 40.125 411.928710938 40.125 411.928710938 46.4638671875 417.780273438 c 0,66,67
 59.0078125 429.359375 59.0078125 429.359375 82.53515625 437.244140625 c 0,68,69
 89.427734375 439.916992188 89.427734375 439.916992188 108.243164062 454.251953125 c 0,70,71
 127.05859375 468.587890625 127.05859375 468.587890625 136.338867188 475.043945312 c 0,72,73
 145.620117188 481.5 145.620117188 481.5 149.661132812 481.5 c 0,74,75
 153.702148438 481.5 153.702148438 481.5 156.9140625 478.645507812 c 0,76,77
 160.125 475.791015625 160.125 475.791015625 160.125 469 c 0,78,79
 160.125 438.811523438 160.125 438.811523438 158.619140625 408.625 c 0,80,81
 155.639648438 285.353515625 155.639648438 285.353515625 158.623046875 134.200195312 c 1,82,-1
 158.623046875 134.100585938 l 1,0,-1
EndSplineSet
EndChar

StartChar: fraction
Encoding: 25 25 11
Width: 203
Flags: W
LayerCount: 2
Fore
SplineSet
276.75 697.5 m 2,0,1
 286.661132812 697.5 286.661132812 697.5 300.016601562 685.977539062 c 0,2,3
 313.373046875 674.454101562 313.373046875 674.454101562 326.869140625 664.638671875 c 1,4,5
 301.561523438 614.60546875 301.561523438 614.60546875 277.817382812 573.901367188 c 0,6,7
 254.186523438 533.391601562 254.186523438 533.391601562 229.436523438 492.391601562 c 0,8,9
 157.420898438 369.36328125 157.420898438 369.36328125 85.7783203125 249.334960938 c 0,10,11
 14.251953125 129.499023438 14.251953125 129.499023438 -55.724609375 -2.1591796875 c 1,12,-1
 -59.8359375 0.033203125 l 2,13,14
 -64.1943359375 2.357421875 -64.1943359375 2.357421875 -74.265625 11.8076171875 c 0,15,16
 -84.337890625 21.2578125 -84.337890625 21.2578125 -100.846679688 28.9140625 c 2,17,-1
 -108.104492188 32.2802734375 l 1,18,19
 -10.4580078125 206.57421875 -10.4580078125 206.57421875 84.7802734375 366.0546875 c 0,20,21
 180.021484375 525.5390625 180.021484375 525.5390625 273.887695312 697.5 c 1,22,-1
 276.75 697.5 l 2,0,1
EndSplineSet
EndChar

StartChar: fi
Encoding: 26 26 12
Width: 468
Flags: W
LayerCount: 2
Fore
SplineSet
386.623046875 134.100585938 m 1,0,-1
 386.174804688 91.7998046875 l 2,1,2
 386.174804688 77.8203125 386.174804688 77.8203125 387.340820312 63.8359375 c 2,3,-1
 387.3515625 63.6865234375 l 2,4,5
 388.579101562 45.6806640625 388.579101562 45.6806640625 394.922851562 41.099609375 c 0,6,7
 403.146484375 35.16015625 403.146484375 35.16015625 412.936523438 32.7431640625 c 0,8,9
 422.727539062 30.3251953125 422.727539062 30.3251953125 431.546875 27.2578125 c 0,10,11
 444.375 22.7958984375 444.375 22.7958984375 444.375 5 c 0,12,13
 444.375 -2.3759765625 444.375 -2.3759765625 441.233398438 -7.9931640625 c 0,14,15
 438.090820312 -13.611328125 438.090820312 -13.611328125 430.299804688 -14.5556640625 c 0,16,17
 422.508789062 -15.5 422.508789062 -15.5 412.807617188 -15.5 c 0,18,19
 403.107421875 -15.5 403.107421875 -15.5 389.607421875 -13 c 0,20,21
 376.107421875 -10.5 376.107421875 -10.5 359.557617188 -10.5 c 0,22,23
 343.008789062 -10.5 343.008789062 -10.5 322.383789062 -13 c 0,24,25
 301.758789062 -15.5 301.758789062 -15.5 282 -15.5 c 2,26,-1
 273.75 -15.5 l 2,27,28
 267.008789062 -15.5 267.008789062 -15.5 260.673828125 -13.248046875 c 0,29,30
 250.875 -9.763671875 250.875 -9.763671875 250.875 7 c 0,31,32
 250.875 13.1044921875 250.875 13.1044921875 254.0234375 17.302734375 c 2,33,-1
 257.0234375 21.302734375 l 1,34,-1
 257.272460938 21.634765625 l 1,35,36
 265.423828125 30.087890625 265.423828125 30.087890625 275.163085938 32.251953125 c 0,37,38
 284.90234375 34.416015625 284.90234375 34.416015625 292.61328125 35.818359375 c 0,39,40
 300.32421875 37.2197265625 300.32421875 37.2197265625 305.502929688 41.439453125 c 0,41,42
 310.681640625 45.66015625 310.681640625 45.66015625 312.278320312 56.7041015625 c 0,43,44
 313.875 67.7490234375 313.875 67.7490234375 313.875 72 c 2,45,-1
 313.875 87 l 1,46,-1
 314.375 130.111328125 l 1,47,-1
 314.125 171.888671875 l 2,48,49
 314.125 213.568359375 314.125 213.568359375 315.875 250.904296875 c 0,50,51
 317.625 288.239257812 317.625 288.239257812 317.625 307.833984375 c 0,52,53
 317.625 349.52734375 317.625 349.52734375 309.252929688 371.055664062 c 0,54,55
 298.852539062 397.797851562 298.852539062 397.797851562 274.354492188 399.5 c 1,56,-1
 194.25 399.5 l 2,57,58
 175.579101562 399.5 175.579101562 399.5 163.420898438 399.049804688 c 0,59,60
 151.262695312 398.599609375 151.262695312 398.599609375 145.235351562 398.51953125 c 1,61,62
 143.224609375 393.936523438 143.224609375 393.936523438 143.224609375 385.529296875 c 2,63,-1
 143.625 358 l 1,64,-1
 142.875 82 l 2,65,66
 142.875 61.3125 142.875 61.3125 147.598632812 52.0751953125 c 0,67,68
 152.322265625 42.837890625 152.322265625 42.837890625 159.452148438 38.0849609375 c 0,69,70
 166.58203125 33.3310546875 166.58203125 33.3310546875 177.877929688 31.8740234375 c 0,71,72
 189.173828125 30.416015625 189.173828125 30.416015625 203.842773438 25.814453125 c 1,73,-1
 204.9765625 24.302734375 l 2,74,75
 209.625 18.1044921875 209.625 18.1044921875 209.625 8.4453125 c 0,76,77
 209.625 -1.21484375 209.625 -1.21484375 204.927734375 -6.009765625 c 1,78,-1
 204.158203125 -9.0888671875 l 1,79,-1
 202.28515625 -10.5166015625 l 2,80,81
 195.744140625 -15.5 195.744140625 -15.5 183.16015625 -15.5 c 0,82,83
 170.576171875 -15.5 170.576171875 -15.5 155.576171875 -12.5 c 0,84,85
 140.576171875 -9.5 140.576171875 -9.5 122.557617188 -9.5 c 0,86,87
 104.5390625 -9.5 104.5390625 -9.5 82.4140625 -12.5 c 0,88,89
 60.2890625 -15.5 60.2890625 -15.5 46.8837890625 -15.5 c 0,90,91
 33.4794921875 -15.5 33.4794921875 -15.5 25.3359375 -14.4658203125 c 0,92,93
 12.375 -12.8203125 12.375 -12.8203125 12.375 2 c 0,94,95
 12.375 21.626953125 12.375 21.626953125 25.423828125 26.701171875 c 0,96,97
 34.58984375 30.265625 34.58984375 30.265625 45.6064453125 33.58203125 c 0,98,99
 56.623046875 36.8994140625 56.623046875 36.8994140625 64.1240234375 45.650390625 c 0,100,101
 71.625 54.4013671875 71.625 54.4013671875 71.625 81 c 2,102,-1
 71.625 375 l 2,103,104
 71.625 384.76171875 71.625 384.76171875 70.263671875 395.182617188 c 1,105,106
 53.9775390625 397.618164062 53.9775390625 397.618164062 43.1689453125 398.069335938 c 0,107,108
 32.361328125 398.520507812 32.361328125 398.520507812 24.392578125 400.645507812 c 0,109,110
 12.375 403.850585938 12.375 403.850585938 12.375 421 c 0,111,112
 12.375 437.077148438 12.375 437.077148438 15.615234375 444.27734375 c 0,113,114
 18.85546875 451.477539062 18.85546875 451.477539062 27.265625 454.428710938 c 0,115,116
 39.662109375 458.778320312 39.662109375 458.778320312 53.6904296875 460.405273438 c 0,117,118
 67.71875 462.032226562 67.71875 462.032226562 71.154296875 463.322265625 c 1,119,120
 73.19921875 500.881835938 73.19921875 500.881835938 74.2998046875 541.459960938 c 0,121,122
 75.3994140625 582.0390625 75.3994140625 582.0390625 83.0341796875 621.778320312 c 0,123,124
 89.9482421875 661.676757812 89.9482421875 661.676757812 104.190429688 697.603515625 c 0,125,126
 118.43359375 733.530273438 118.43359375 733.530273438 139.310546875 760.8515625 c 0,127,128
 160.303710938 788.32421875 160.303710938 788.32421875 187.131835938 803.942382812 c 0,129,130
 213.959960938 819.560546875 213.959960938 819.560546875 244.450195312 819.560546875 c 0,131,132
 264.819335938 819.560546875 264.819335938 819.560546875 281.770507812 816.407226562 c 0,133,134
 298.72265625 813.252929688 298.72265625 813.252929688 312.7890625 803.607421875 c 0,135,136
 326.85546875 793.961914062 326.85546875 793.961914062 336.370117188 778.516601562 c 0,137,138
 345.885742188 763.071289062 345.885742188 763.071289062 346.841796875 739.072265625 c 0,139,140
 347.549804688 734.953125 347.549804688 734.953125 347.549804688 730.844726562 c 0,141,142
 347.549804688 720.447265625 347.549804688 720.447265625 342.311523438 708.97265625 c 0,143,144
 337.073242188 697.497070312 337.073242188 697.497070312 327.60546875 690.038085938 c 0,145,146
 316.610351562 681.375 316.610351562 681.375 305.48046875 681.375 c 0,147,148
 284.642578125 681.375 284.642578125 681.375 278.4921875 708.31640625 c 0,149,150
 276.254882812 718.12109375 276.254882812 718.12109375 269.676757812 727.330078125 c 0,151,152
 262.958984375 736.734375 262.958984375 736.734375 248.618164062 745.12890625 c 0,153,154
 234.317382812 753.5 234.317382812 753.5 205.5 753.5 c 0,155,156
 191.157226562 753.5 191.157226562 753.5 181.127929688 741.46484375 c 0,157,158
 162.217773438 718.7734375 162.217773438 718.7734375 152.088867188 663.709960938 c 0,159,160
 141.375 605.47265625 141.375 605.47265625 141.375 518 c 2,161,-1
 141.375 504 l 2,162,163
 141.375 468.260742188 141.375 468.260742188 143.436523438 460.5 c 1,164,-1
 316.5 460.5 l 2,165,166
 333.302734375 460.5 333.302734375 460.5 354.211914062 473.775390625 c 0,167,168
 368.955078125 483.13671875 368.955078125 483.13671875 374.028320312 483.13671875 c 0,169,170
 379.1015625 483.13671875 379.1015625 483.13671875 381.9765625 479.302734375 c 0,171,172
 382.265625 478.916992188 382.265625 478.916992188 382.478515625 478.73828125 c 0,173,174
 388.125 476.708007812 388.125 476.708007812 388.125 469 c 0,175,176
 388.125 438.811523438 388.125 438.811523438 386.619140625 408.625 c 0,177,178
 383.639648438 285.353515625 383.639648438 285.353515625 386.623046875 134.200195312 c 1,179,-1
 386.623046875 134.100585938 l 1,0,-1
EndSplineSet
EndChar

StartChar: fl
Encoding: 27 27 13
Width: 472
Flags: W
LayerCount: 2
Fore
SplineSet
381.375 798 m 1,0,-1
 382.125 741.98828125 l 1,1,-1
 381.375 79 l 2,2,3
 381.375 49.75390625 381.375 49.75390625 391.646484375 43.2861328125 c 0,4,5
 404.3046875 35.31640625 404.3046875 35.31640625 425.580078125 32.1640625 c 1,6,-1
 426.364257812 31.1181640625 l 1,7,8
 428.149414062 31.5 428.149414062 31.5 429.75 31.5 c 2,9,-1
 430.084960938 31.4873046875 l 2,10,11
 437.463867188 30.908203125 437.463867188 30.908203125 441.977539062 26.306640625 c 0,12,13
 448.125 20.0380859375 448.125 20.0380859375 448.125 8 c 0,14,15
 448.125 -7.58203125 448.125 -7.58203125 437.662109375 -12.7197265625 c 0,16,17
 435.543945312 -14.5 435.543945312 -14.5 430.5 -14.5 c 2,18,-1
 427.5 -14.5 l 2,19,20
 409.198242188 -14.5 409.198242188 -14.5 391.573242188 -12 c 0,21,22
 373.948242188 -9.5 373.948242188 -9.5 353.998046875 -9.5 c 0,23,24
 334.048828125 -9.5 334.048828125 -9.5 312.673828125 -12.5 c 0,25,26
 291.298828125 -15.5 291.298828125 -15.5 268.5 -15.5 c 0,27,28
 264.326171875 -15.5 264.326171875 -15.5 256.41015625 -13.9169921875 c 0,29,30
 244.125 -11.4599609375 244.125 -11.4599609375 244.125 3 c 0,31,32
 244.125 21.857421875 244.125 21.857421875 252.8828125 24.7763671875 c 0,33,34
 257.051757812 26.166015625 257.051757812 26.166015625 266.6953125 31.111328125 c 1,35,36
 279.39453125 36.091796875 279.39453125 36.091796875 291.13671875 42.4521484375 c 0,37,38
 306.05859375 50.53515625 306.05859375 50.53515625 307.893554688 81.10546875 c 0,39,40
 308.625 93.3037109375 308.625 93.3037109375 308.625 102.013671875 c 2,41,-1
 309.375 646 l 2,42,43
 309.375 682.258789062 309.375 682.258789062 300.61328125 706.091796875 c 0,44,45
 291.850585938 729.923828125 291.850585938 729.923828125 277.708007812 742.801757812 c 0,46,47
 260.294921875 758.658203125 260.294921875 758.658203125 235.6328125 758.658203125 c 0,48,49
 221.669921875 758.658203125 221.669921875 758.658203125 206.828125 753.7109375 c 0,50,51
 184.337890625 746.44140625 184.337890625 746.44140625 171.662109375 718.7421875 c 0,52,53
 158.986328125 691.043945312 158.986328125 691.043945312 152.032226562 655.419921875 c 0,54,55
 141.375 600.82421875 141.375 600.82421875 141.375 518 c 2,56,-1
 141.375 504 l 2,57,58
 141.375 468.260742188 141.375 468.260742188 143.436523438 460.5 c 1,59,-1
 226.5 460.5 l 2,60,61
 238.578125 460.5 238.578125 460.5 245.4765625 451.302734375 c 2,62,-1
 247.125 449.104492188 l 1,63,-1
 247.125 446 l 1,64,-1
 247.875 428 l 2,65,66
 247.875 414.501953125 247.875 414.501953125 242.252929688 404.505859375 c 2,67,-1
 240.958984375 402.206054688 l 1,68,69
 230.811523438 399.5 230.811523438 399.5 220.5 399.5 c 2,70,-1
 157.5 399.5 l 2,71,72
 151.979492188 399.5 151.979492188 399.5 145.361328125 398.797851562 c 1,73,74
 143.25 394 143.25 394 143.224609375 385.529296875 c 2,75,-1
 143.625 358 l 1,76,-1
 142.875 82 l 2,77,78
 142.875 61.3125 142.875 61.3125 147.598632812 52.0751953125 c 0,79,80
 152.322265625 42.837890625 152.322265625 42.837890625 159.452148438 38.0849609375 c 0,81,82
 166.58203125 33.3310546875 166.58203125 33.3310546875 177.877929688 31.8740234375 c 0,83,84
 189.173828125 30.416015625 189.173828125 30.416015625 203.842773438 25.814453125 c 1,85,-1
 204.9765625 24.302734375 l 2,86,87
 209.625 18.1044921875 209.625 18.1044921875 209.625 8.4453125 c 0,88,89
 209.625 -1.21484375 209.625 -1.21484375 204.927734375 -6.009765625 c 1,90,-1
 204.158203125 -9.0888671875 l 1,91,-1
 202.28515625 -10.5166015625 l 2,92,93
 195.744140625 -15.5 195.744140625 -15.5 183.16015625 -15.5 c 0,94,95
 170.576171875 -15.5 170.576171875 -15.5 155.576171875 -12.5 c 0,96,97
 140.576171875 -9.5 140.576171875 -9.5 122.557617188 -9.5 c 0,98,99
 104.5390625 -9.5 104.5390625 -9.5 82.4140625 -12.5 c 0,100,101
 60.2890625 -15.5 60.2890625 -15.5 46.8837890625 -15.5 c 0,102,103
 33.4794921875 -15.5 33.4794921875 -15.5 25.3359375 -14.4658203125 c 0,104,105
 12.375 -12.8203125 12.375 -12.8203125 12.375 2 c 0,106,107
 12.375 21.626953125 12.375 21.626953125 25.423828125 26.701171875 c 0,108,109
 34.58984375 30.265625 34.58984375 30.265625 45.6064453125 33.58203125 c 0,110,111
 56.623046875 36.8994140625 56.623046875 36.8994140625 64.1240234375 45.650390625 c 0,112,113
 71.625 54.4013671875 71.625 54.4013671875 71.625 81 c 2,114,-1
 71.625 375 l 2,115,116
 71.625 384.76171875 71.625 384.76171875 70.263671875 395.182617188 c 1,117,118
 53.9775390625 397.618164062 53.9775390625 397.618164062 43.1689453125 398.069335938 c 0,119,120
 32.361328125 398.520507812 32.361328125 398.520507812 24.392578125 400.645507812 c 0,121,122
 12.375 403.850585938 12.375 403.850585938 12.375 421 c 0,123,124
 12.375 437.077148438 12.375 437.077148438 15.615234375 444.27734375 c 0,125,126
 18.85546875 451.477539062 18.85546875 451.477539062 27.265625 454.428710938 c 0,127,128
 39.662109375 458.778320312 39.662109375 458.778320312 53.6904296875 460.405273438 c 0,129,130
 67.71875 462.032226562 67.71875 462.032226562 71.154296875 463.322265625 c 1,131,132
 73.19921875 500.881835938 73.19921875 500.881835938 74.2998046875 541.459960938 c 0,133,134
 75.3994140625 582.0390625 75.3994140625 582.0390625 83.0341796875 621.778320312 c 0,135,136
 89.9482421875 661.676757812 89.9482421875 661.676757812 104.190429688 697.603515625 c 0,137,138
 118.43359375 733.530273438 118.43359375 733.530273438 139.310546875 760.8515625 c 0,139,140
 160.303710938 788.32421875 160.303710938 788.32421875 187.131835938 803.942382812 c 0,141,142
 213.959960938 819.560546875 213.959960938 819.560546875 244.450195312 819.560546875 c 0,143,144
 269.239257812 819.560546875 269.239257812 819.560546875 289.376953125 812.4375 c 0,145,146
 309.513671875 805.313476562 309.513671875 805.313476562 322.682617188 786.728515625 c 1,147,148
 337.765625 793.776367188 337.765625 793.776367188 350.998046875 800.452148438 c 0,149,150
 364.229492188 807.126953125 364.229492188 807.126953125 372.204101562 810.165039062 c 1,151,-1
 374.364257812 808.245117188 l 1,152,-1
 378.864257812 804.245117188 l 1,153,-1
 381.375 802.013671875 l 1,154,-1
 381.375 798 l 1,0,-1
EndSplineSet
EndChar

StartChar: Lslash
Encoding: 28 28 14
Width: 481
Flags: W
LayerCount: 2
Fore
SplineSet
25.017578125 311.8984375 m 0,0,1
 25.017578125 323.064453125 25.017578125 323.064453125 43.240234375 335.212890625 c 0,2,3
 50.0458984375 339.75 50.0458984375 339.75 57.072265625 344.1875 c 0,4,5
 64.0986328125 348.625 64.0986328125 348.625 67.9384765625 351.697265625 c 0,6,7
 78.4384765625 357.697265625 78.4384765625 357.697265625 88.8388671875 366.017578125 c 0,8,9
 99.2392578125 374.337890625 99.2392578125 374.337890625 109.125 381.483398438 c 1,10,-1
 109.125 614 l 2,11,12
 109.125 635.608398438 109.125 635.608398438 105.458007812 658.708007812 c 0,13,14
 102.98046875 677.708007812 102.98046875 677.708007812 92.6630859375 683.602539062 c 0,15,16
 80.2626953125 690.688476562 80.2626953125 690.688476562 65.5693359375 693.137695312 c 0,17,18
 50.876953125 695.586914062 50.876953125 695.586914062 38.708984375 698.62890625 c 0,19,20
 22.125 702.774414062 22.125 702.774414062 22.125 723 c 0,21,22
 22.125 743.309570312 22.125 743.309570312 35.40625 746.388671875 c 0,23,24
 44.509765625 748.5 44.509765625 748.5 62.9013671875 748.5 c 0,25,26
 81.29296875 748.5 81.29296875 748.5 106.79296875 745 c 0,27,28
 132.29296875 741.5 132.29296875 741.5 159.8125 741.5 c 0,29,30
 187.33203125 741.5 187.33203125 741.5 212.83203125 743.5 c 0,31,32
 238.33203125 745.5 238.33203125 745.5 270.75 745.5 c 2,33,-1
 272.88671875 745.5 l 1,34,-1
 274.484375 743.606445312 l 2,35,36
 282.819335938 733.727539062 282.819335938 733.727539062 283.875 722.47265625 c 1,37,38
 283.875 704.592773438 283.875 704.592773438 271.028320312 698.8828125 c 0,39,40
 261.413085938 694.609375 261.413085938 694.609375 248.397460938 693.032226562 c 2,41,-1
 224.030273438 690.033203125 l 2,42,43
 213.696289062 688.741210938 213.696289062 688.741210938 206.740234375 682.110351562 c 0,44,45
 195.375 668.80859375 195.375 668.80859375 195.375 608 c 0,46,47
 195.375 561.958007812 195.375 561.958007812 195.024414062 519.854492188 c 0,48,49
 194.672851562 477.750976562 194.672851562 477.750976562 194.630859375 437.827148438 c 1,50,51
 212.782226562 449.33203125 212.782226562 449.33203125 231.89453125 462.528320312 c 0,52,53
 257.57421875 480.259765625 257.57421875 480.259765625 262.322265625 482.98828125 c 0,54,55
 267.069335938 485.715820312 267.069335938 485.715820312 268.586914062 485.715820312 c 0,56,57
 272.696289062 485.715820312 272.696289062 485.715820312 275.973632812 480.794921875 c 0,58,59
 279.251953125 475.874023438 279.251953125 475.874023438 283.899414062 463.094726562 c 2,60,-1
 296.337890625 429.370117188 l 2,61,62
 296.775390625 427.622070312 296.775390625 427.622070312 296.775390625 425.780273438 c 0,63,64
 296.775390625 419.8984375 296.775390625 419.8984375 292.973632812 415.463867188 c 0,65,66
 284.439453125 405.506835938 284.439453125 405.506835938 276.18359375 400.370117188 c 0,67,68
 267.927734375 395.233398438 267.927734375 395.233398438 265.721679688 393.76171875 c 0,69,70
 263.514648438 392.290039062 263.514648438 392.290039062 193.875 344.427734375 c 1,71,-1
 193.875 204 l 2,72,73
 193.875 151.37890625 193.875 151.37890625 195.71484375 126.8515625 c 0,74,75
 199.25390625 79.6611328125 199.25390625 79.6611328125 206.947265625 68.6875 c 0,76,77
 225.122070312 51.17578125 225.122070312 51.17578125 248.547851562 47.447265625 c 0,78,79
 260.037109375 45.6171875 260.037109375 45.6171875 271.875 45.6171875 c 0,80,81
 283.713867188 45.6171875 283.713867188 45.6171875 301.307617188 48.96875 c 0,82,83
 318.900390625 52.3203125 318.900390625 52.3203125 337.3359375 60.9951171875 c 0,84,85
 355.772460938 69.6708984375 355.772460938 69.6708984375 362.1328125 76.267578125 c 1,86,87
 373.548828125 84.830078125 373.548828125 84.830078125 386.9609375 107.061523438 c 0,88,89
 400.372070312 129.29296875 400.372070312 129.29296875 411.508789062 154.041992188 c 0,90,91
 422.646484375 178.791015625 422.646484375 178.791015625 431.444335938 199.193359375 c 0,92,93
 440.243164062 219.594726562 440.243164062 219.594726562 443.272460938 223.634765625 c 0,94,95
 450.044921875 230.658203125 450.044921875 230.658203125 457.965820312 230.658203125 c 0,96,97
 460.713867188 230.658203125 460.713867188 230.658203125 463.573242188 229.829101562 c 0,98,99
 474.982421875 226.522460938 474.982421875 226.522460938 479.142578125 214.040039062 c 2,100,-1
 480.364257812 210.376953125 l 1,101,102
 459.604492188 166.728515625 459.604492188 166.728515625 449.245117188 126.768554688 c 0,103,104
 438.884765625 86.80859375 438.884765625 86.80859375 432.533203125 54.9248046875 c 0,105,106
 426.180664062 23.041015625 426.180664062 23.041015625 422.548828125 5.4306640625 c 0,107,108
 418.916992188 -12.1806640625 418.916992188 -12.1806640625 415.143554688 -17.33984375 c 0,109,110
 411.370117188 -22.5 411.370117188 -22.5 407.25 -22.5 c 0,111,112
 355.870117188 -22.5 355.870117188 -22.5 301.916992188 -13.44140625 c 0,113,114
 224.938476562 -4.6376953125 224.938476562 -4.6376953125 198.833007812 -4.5693359375 c 0,115,116
 172.727539062 -4.5 172.727539062 -4.5 154.099609375 -6.4873046875 c 0,117,118
 135.471679688 -8.4736328125 135.471679688 -8.4736328125 118.243164062 -10.4716796875 c 0,119,120
 100.971679688 -12.4736328125 100.971679688 -12.4736328125 82.099609375 -14.4873046875 c 0,121,122
 63.2275390625 -16.5 63.2275390625 -16.5 37.5 -16.5 c 0,123,124
 30.2978515625 -16.5 30.2978515625 -16.5 25.8359375 -9.064453125 c 0,125,126
 21.375 -1.62890625 21.375 -1.62890625 21.375 7 c 0,127,128
 21.375 26.0791015625 21.375 26.0791015625 32.4140625 31.966796875 c 0,129,130
 40.7412109375 36.4072265625 40.7412109375 36.4072265625 52.703125 37.4365234375 c 0,131,132
 64.6650390625 38.4658203125 64.6650390625 38.4658203125 76.791015625 40.775390625 c 0,133,134
 88.9169921875 43.0849609375 88.9169921875 43.0849609375 98.0947265625 54.3974609375 c 0,135,136
 112.575195312 73.919921875 112.575195312 73.919921875 112.575195312 169.5 c 0,137,138
 112.575195312 198.490234375 112.575195312 198.490234375 111.366210938 229.532226562 c 0,139,140
 110.15625 260.575195312 110.15625 260.575195312 109.4296875 287.067382812 c 1,141,142
 75.0517578125 264.1484375 75.0517578125 264.1484375 67.267578125 259.997070312 c 0,143,144
 54.818359375 253.357421875 54.818359375 253.357421875 50.0947265625 253.357421875 c 0,145,146
 45.37109375 253.357421875 45.37109375 253.357421875 43.638671875 258.55859375 c 0,147,148
 40.5849609375 264.015625 40.5849609375 264.015625 37.232421875 273.453125 c 0,149,150
 25.017578125 307.834960938 25.017578125 307.834960938 25.017578125 311.8984375 c 0,0,1
EndSplineSet
EndChar

StartChar: lslash
Encoding: 29 29 15
Width: 243
Flags: W
LayerCount: 2
Fore
SplineSet
157.875 666 m 1,0,-1
 157.125 527 l 1,1,-1
 157.125 465.193359375 l 1,2,3
 174.534179688 477.055664062 174.534179688 477.055664062 190.947265625 488.83984375 c 0,4,5
 207.356445312 500.62109375 207.356445312 500.62109375 220.387695312 509.819335938 c 0,6,7
 222.069335938 510.715820312 222.069335938 510.715820312 223.583007812 510.715820312 c 0,8,9
 227.7421875 510.715820312 227.7421875 510.715820312 230.9375 505.725585938 c 0,10,11
 234.133789062 500.734375 234.133789062 500.734375 238.459960938 488.045898438 c 0,12,13
 242.78515625 475.356445312 242.78515625 475.356445312 251.177734375 455.012695312 c 0,14,15
 251.775390625 452.622070312 251.775390625 452.622070312 251.775390625 450.759765625 c 0,16,17
 251.775390625 441.240234375 251.775390625 441.240234375 238.817382812 430.607421875 c 0,18,19
 233.590820312 426.319335938 233.590820312 426.319335938 228.247070312 423.265625 c 0,20,21
 222.903320312 420.211914062 222.903320312 420.211914062 218.578125 417.333007812 c 2,22,-1
 157.125 373.505859375 l 1,23,-1
 157.125 78 l 2,24,25
 157.125 48.75390625 157.125 48.75390625 167.396484375 42.2861328125 c 0,26,27
 180.0546875 34.31640625 180.0546875 34.31640625 201.330078125 31.1640625 c 1,28,-1
 202.114257812 30.1181640625 l 1,29,30
 203.899414062 30.5 203.899414062 30.5 205.5 30.5 c 2,31,-1
 205.834960938 30.4873046875 l 2,32,33
 213.213867188 29.908203125 213.213867188 29.908203125 217.727539062 25.306640625 c 0,34,35
 223.875 19.0380859375 223.875 19.0380859375 223.875 7 c 0,36,37
 223.875 -8.58203125 223.875 -8.58203125 213.412109375 -13.7197265625 c 0,38,39
 211.293945312 -15.5 211.293945312 -15.5 206.25 -15.5 c 2,40,-1
 203.25 -15.5 l 2,41,42
 184.948242188 -15.5 184.948242188 -15.5 167.323242188 -13 c 0,43,44
 149.698242188 -10.5 149.698242188 -10.5 129.748046875 -10.5 c 0,45,46
 109.798828125 -10.5 109.798828125 -10.5 88.423828125 -13.5 c 0,47,48
 67.048828125 -16.5 67.048828125 -16.5 44.25 -16.5 c 0,49,50
 40.076171875 -16.5 40.076171875 -16.5 32.16015625 -14.9169921875 c 0,51,52
 19.875 -12.4599609375 19.875 -12.4599609375 19.875 2 c 0,53,54
 19.875 20.857421875 19.875 20.857421875 28.6328125 23.7763671875 c 0,55,56
 32.8017578125 25.166015625 32.8017578125 25.166015625 42.4453125 30.111328125 c 1,57,58
 55.14453125 35.091796875 55.14453125 35.091796875 66.88671875 41.4521484375 c 0,59,60
 81.80859375 49.53515625 81.80859375 49.53515625 83.6435546875 80.10546875 c 0,61,62
 84.375 92.3037109375 84.375 92.3037109375 84.375 101 c 2,63,-1
 84.375 323.529296875 l 1,64,-1
 55.8203125 303.328125 l 2,65,66
 51.0517578125 300.1484375 51.0517578125 300.1484375 39.517578125 293.997070312 c 0,67,68
 23.318359375 285.357421875 23.318359375 285.357421875 18.5947265625 285.357421875 c 0,69,70
 13.87109375 285.357421875 13.87109375 285.357421875 12.138671875 290.55859375 c 0,71,72
 9.0849609375 296.015625 9.0849609375 296.015625 5.732421875 305.453125 c 0,73,74
 -6.482421875 339.834960938 -6.482421875 339.834960938 -6.482421875 345.11328125 c 0,75,76
 -6.482421875 350.391601562 -6.482421875 350.391601562 -1.0224609375 355.8515625 c 0,77,78
 8.5869140625 365.4609375 8.5869140625 365.4609375 20.5927734375 373.04296875 c 0,79,80
 32.5986328125 380.625 32.5986328125 380.625 36.5498046875 383.786132812 c 1,81,82
 42.62890625 386.826171875 42.62890625 386.826171875 51.6328125 393.548828125 c 0,83,84
 60.58203125 400.231445312 60.58203125 400.231445312 85.125 416.633789062 c 1,85,-1
 85.125 472 l 1,86,-1
 85.875 584 l 1,87,-1
 85.875 645 l 2,88,89
 85.875 659.68359375 85.875 659.68359375 84.83984375 676.25 c 0,90,91
 83.8046875 692.81640625 83.8046875 692.81640625 76.8671875 703.90234375 c 0,92,93
 74.474609375 706.96484375 74.474609375 706.96484375 68.951171875 710.646484375 c 0,94,95
 55.2685546875 719.768554688 55.2685546875 719.768554688 47.322265625 726.2890625 c 0,96,97
 39.375 732.809570312 39.375 732.809570312 39.375 742 c 2,98,-1
 39.375 746 l 2,99,100
 39.375 753.635742188 39.375 753.635742188 43.990234375 756.712890625 c 2,101,-1
 45.1708984375 757.5 l 1,102,-1
 46.5 757.5 l 2,103,104
 52.4501953125 757.5 52.4501953125 757.5 68.841796875 763.814453125 c 0,105,106
 106.263671875 778.228515625 106.263671875 778.228515625 131.740234375 795.212890625 c 0,107,108
 137.869140625 799.298828125 137.869140625 799.298828125 141.375 802.940429688 c 1,109,-1
 141.375 815.013671875 l 1,110,-1
 150.114257812 807.245117188 l 1,111,-1
 154.614257812 803.245117188 l 1,112,-1
 157.125 801.013671875 l 1,113,-1
 157.125 797 l 1,114,-1
 157.875 741 l 1,115,-1
 157.875 666 l 1,0,-1
EndSplineSet
EndChar

StartChar: Zcaron
Encoding: 30 30 16
Width: 581
Flags: W
LayerCount: 2
Fore
SplineSet
417.75 687.5 m 2,0,-1
 392.25 686.5 l 1,1,-1
 339 686.5 l 2,2,3
 312.797851562 686.5 312.797851562 686.5 245.750976562 685.001953125 c 0,4,5
 178.704101562 683.50390625 178.704101562 683.50390625 161.546875 682.509765625 c 0,6,7
 137.481445312 680.559570312 137.481445312 680.559570312 118.66015625 672.983398438 c 0,8,9
 99.83984375 665.408203125 99.83984375 665.408203125 82.806640625 640.8046875 c 0,10,11
 77.2802734375 633.435546875 77.2802734375 633.435546875 72.2294921875 621.411132812 c 0,12,13
 67.1796875 609.387695312 67.1796875 609.387695312 62.181640625 597.083007812 c 0,14,15
 57.1826171875 584.778320312 57.1826171875 584.778320312 50.533203125 574.139648438 c 0,16,17
 43.8837890625 563.5 43.8837890625 563.5 36.75 563.5 c 0,18,19
 32.12890625 563.5 32.12890625 563.5 24.181640625 566.846679688 c 0,20,21
 14.8349609375 570.782226562 14.8349609375 570.782226562 14.8349609375 581.448242188 c 0,22,23
 14.8349609375 584.19921875 14.8349609375 584.19921875 15.5859375 587.091796875 c 0,24,25
 20.2607421875 615.061523438 20.2607421875 615.061523438 26.1884765625 640.995117188 c 0,26,27
 38.1181640625 693.188476562 38.1181640625 693.188476562 41.146484375 704.801757812 c 0,28,29
 44.173828125 716.416015625 44.173828125 716.416015625 48.662109375 734.370117188 c 0,30,31
 54.4443359375 757.5 54.4443359375 757.5 69 757.5 c 0,32,33
 83.8291015625 757.5 83.8291015625 757.5 91.009765625 752.712890625 c 0,34,35
 98.56640625 747.674804688 98.56640625 747.674804688 109.930664062 746.296875 c 1,36,37
 120.952148438 736.5 120.952148438 736.5 155.25 736.5 c 2,38,-1
 169.5 736.5 l 2,39,40
 203.9375 736.5 203.9375 736.5 246.2734375 737.499023438 c 0,41,42
 288.67578125 738.499023438 288.67578125 738.499023438 332.951171875 739 c 0,43,44
 377.17578125 739.499023438 377.17578125 739.499023438 419.5234375 740.499023438 c 0,45,46
 461.940429688 741.5 461.940429688 741.5 497.25 741.5 c 0,47,48
 504.280273438 741.5 504.280273438 741.5 515.422851562 743.9765625 c 0,49,50
 532.1796875 747.700195312 532.1796875 747.700195312 540.764648438 747.700195312 c 0,51,52
 549.284179688 747.700195312 549.284179688 747.700195312 555.514648438 743.790039062 c 0,53,54
 563.461914062 738.803710938 563.461914062 738.803710938 563.461914062 726.716796875 c 0,55,56
 563.461914062 720.456054688 563.461914062 720.456054688 562.653320312 718.465820312 c 0,57,58
 557.87890625 706.7109375 557.87890625 706.7109375 513.881835938 639.098632812 c 0,59,60
 439.581054688 524.506835938 439.581054688 524.506835938 408.30078125 475.313476562 c 0,61,62
 377.020507812 426.120117188 377.020507812 426.120117188 347.374023438 380.586914062 c 0,63,64
 321.59375 340.9921875 321.59375 340.9921875 278.151367188 272.704101562 c 0,65,66
 234.709960938 204.416992188 234.709960938 204.416992188 229.497070312 195.495117188 c 0,67,68
 223.390625 184.311523438 223.390625 184.311523438 210.58203125 163.716796875 c 0,69,70
 197.844726562 143.237304688 197.844726562 143.237304688 184.421875 121.36328125 c 0,71,72
 170.999023438 99.4892578125 170.999023438 99.4892578125 161.44140625 81.08203125 c 0,73,74
 151.8828125 62.673828125 151.8828125 62.673828125 150.381835938 51.43359375 c 0,75,76
 150.627929688 41.8330078125 150.627929688 41.8330078125 170.75 41.8330078125 c 2,77,-1
 189.75 42.5 l 1,78,-1
 339.75 43.5 l 2,79,80
 366.646484375 43.5 366.646484375 43.5 397.3125 44.9775390625 c 0,81,82
 427.978515625 46.4560546875 427.978515625 46.4560546875 454.232421875 56.130859375 c 0,83,84
 472.087890625 65.3662109375 472.087890625 65.3662109375 481.947265625 82.2666015625 c 0,85,86
 491.805664062 99.16796875 491.805664062 99.16796875 502.096679688 122.676757812 c 0,87,88
 506.2734375 132.916015625 506.2734375 132.916015625 509.268554688 146.892578125 c 0,89,90
 512.263671875 160.869140625 512.263671875 160.869140625 517.087890625 172.564453125 c 0,91,92
 521.912109375 184.259765625 521.912109375 184.259765625 530.072265625 187.66015625 c 0,93,94
 532.087890625 188.5 532.087890625 188.5 534.26953125 188.5 c 0,95,96
 541.584960938 188.5 541.584960938 188.5 551.932617188 177.001953125 c 1,97,98
 554.625 156.663085938 554.625 156.663085938 554.625 139.3671875 c 0,99,100
 554.625 122.071289062 554.625 122.071289062 551.189453125 103.749023438 c 0,101,102
 545.317382812 72.4287109375 545.317382812 72.4287109375 543.547851562 50.41015625 c 0,103,104
 541.778320312 28.3916015625 541.778320312 28.3916015625 538.427734375 14.9892578125 c 0,105,106
 535.077148438 1.5859375 535.077148438 1.5859375 527.296875 -6.95703125 c 0,107,108
 519.516601562 -15.5 519.516601562 -15.5 505.5 -15.5 c 0,109,110
 476.102539062 -15.5 476.102539062 -15.5 446.852539062 -13.5 c 0,111,112
 417.602539062 -11.5 417.602539062 -11.5 388.5 -11.5 c 2,113,-1
 321.75 -11.5 l 2,114,115
 252.108398438 -11.5 252.108398438 -11.5 176.357421875 -15 c 0,116,117
 100.607421875 -18.5 100.607421875 -18.5 30.75 -18.5 c 0,118,119
 23.54296875 -18.5 23.54296875 -18.5 18.333984375 -13.291015625 c 0,120,121
 13.125 -8.08203125 13.125 -8.08203125 13.125 4 c 0,122,123
 13.125 7.2578125 13.125 7.2578125 16.427734375 13.5302734375 c 0,124,125
 19.73046875 19.8017578125 19.73046875 19.8017578125 29.412109375 36.2314453125 c 0,126,127
 70.4453125 105.862304688 70.4453125 105.862304688 102.516601562 157.93359375 c 0,128,129
 164.446289062 258.481445312 164.446289062 258.481445312 228.924804688 362.620117188 c 0,130,131
 293.403320312 466.758789062 293.403320312 466.758789062 309.887695312 493.732421875 c 0,132,133
 334.614257812 534.1953125 334.614257812 534.1953125 352.419921875 560.979492188 c 0,134,135
 398.309570312 629.814453125 398.309570312 629.814453125 410.41796875 649.283203125 c 0,136,137
 422.647460938 668.9453125 422.647460938 668.9453125 425.00390625 676.276367188 c 0,138,139
 427.520507812 679.631835938 427.520507812 679.631835938 430.375 686.268554688 c 1,140,141
 425.056640625 687.5 425.056640625 687.5 417.75 687.5 c 2,0,-1
386.25 971.5 m 0,142,143
 391.934570312 971.5 391.934570312 971.5 394.688476562 965.381835938 c 0,144,145
 396.375 961.6328125 396.375 961.6328125 396.375 956.487304688 c 0,146,147
 396.375 946.075195312 396.375 946.075195312 377.65234375 901.823242188 c 0,148,149
 369.413085938 882.34765625 369.413085938 882.34765625 360.045898438 859.865234375 c 0,150,151
 344.081054688 821.549804688 344.081054688 821.549804688 325.333984375 783.397460938 c 0,152,153
 317.665039062 767.791015625 317.665039062 767.791015625 313.870117188 763.99609375 c 2,154,-1
 310.956054688 761.08203125 l 1,155,156
 299.682617188 769.43359375 299.682617188 769.43359375 297.44921875 774.091796875 c 0,157,158
 274.95703125 823.07421875 274.95703125 823.07421875 254.561523438 866.88671875 c 0,159,160
 234.166015625 910.69921875 234.166015625 910.69921875 223.439453125 949.51953125 c 0,161,162
 221.625 956.778320312 221.625 956.778320312 221.625 962.666015625 c 0,163,164
 221.625 968.553710938 221.625 968.553710938 224.932617188 972.08203125 c 0,165,166
 228.241210938 975.611328125 228.241210938 975.611328125 232.583007812 975.611328125 c 0,167,168
 233.8671875 975.611328125 233.8671875 975.611328125 236.045898438 975.067382812 c 0,169,170
 240.765625 973.888671875 240.765625 973.888671875 250.829101562 957.786132812 c 0,171,172
 260.893554688 941.68359375 260.893554688 941.68359375 272.145507812 922.180664062 c 0,173,174
 283.396484375 902.677734375 283.396484375 902.677734375 293.302734375 886.829101562 c 0,175,176
 303.208007812 870.98046875 303.208007812 870.98046875 310.35546875 864.083984375 c 1,177,178
 320.88671875 875.250976562 320.88671875 875.250976562 344.89453125 920.8046875 c 0,179,180
 354.836914062 939.670898438 354.836914062 939.670898438 365.538085938 955.584960938 c 0,181,182
 376.240234375 971.5 376.240234375 971.5 386.25 971.5 c 0,142,143
EndSplineSet
EndChar

StartChar: zcaron
Encoding: 31 31 17
Width: 357
Flags: W
LayerCount: 2
Fore
SplineSet
256.5 713.5 m 0,0,1
 262.184570312 713.5 262.184570312 713.5 264.938476562 707.381835938 c 0,2,3
 266.625 703.6328125 266.625 703.6328125 266.625 698.487304688 c 0,4,5
 266.625 688.075195312 266.625 688.075195312 247.90234375 643.823242188 c 0,6,7
 239.663085938 624.34765625 239.663085938 624.34765625 230.295898438 601.865234375 c 0,8,9
 214.331054688 563.549804688 214.331054688 563.549804688 195.583984375 525.397460938 c 0,10,11
 187.915039062 509.791015625 187.915039062 509.791015625 184.120117188 505.99609375 c 2,12,-1
 181.206054688 503.08203125 l 1,13,14
 169.932617188 511.43359375 169.932617188 511.43359375 167.69921875 516.091796875 c 0,15,16
 145.20703125 565.07421875 145.20703125 565.07421875 124.811523438 608.88671875 c 128,-1,17
 104.416015625 652.69921875 104.416015625 652.69921875 93.689453125 691.51953125 c 0,18,19
 91.8203125 697.052734375 91.8203125 697.052734375 91.8203125 699.233398438 c 128,-1,20
 91.8203125 701.415039062 91.8203125 701.415039062 91.875 702 c 0,21,22
 91.875 710.313476562 91.875 710.313476562 95.6650390625 713.90625 c 128,-1,23
 99.455078125 717.5 99.455078125 717.5 104.25 717.5 c 2,24,-1
 104.811523438 717.5 l 2,25,26
 108.473632812 716.5234375 108.473632812 716.5234375 112.375976562 712.014648438 c 0,27,28
 119.64453125 703.615234375 119.64453125 703.615234375 136.645507812 674.146484375 c 128,-1,29
 153.646484375 644.677734375 153.646484375 644.677734375 163.552734375 628.829101562 c 128,-1,30
 173.458007812 612.98046875 173.458007812 612.98046875 180.60546875 606.083984375 c 1,31,32
 191.13671875 617.250976562 191.13671875 617.250976562 215.14453125 662.8046875 c 0,33,34
 225.086914062 681.670898438 225.086914062 681.670898438 235.788085938 697.584960938 c 128,-1,35
 246.490234375 713.5 246.490234375 713.5 256.5 713.5 c 0,0,1
313.604492188 137.666992188 m 0,36,37
 328.875 137.666992188 328.875 137.666992188 328.875 112 c 2,38,-1
 328.875 88 l 2,39,40
 328.875 41.2509765625 328.875 41.2509765625 324.265625 10.5234375 c 0,41,42
 323.0234375 2.2392578125 323.0234375 2.2392578125 319.38671875 -4.8798828125 c 128,-1,43
 315.75 -12 315.75 -12 310 -12.1669921875 c 0,44,45
 307.170898438 -12.1669921875 307.170898438 -12.1669921875 303.670898438 -9.8330078125 c 128,-1,46
 300.170898438 -7.5 300.170898438 -7.5 296.25 -7.5 c 0,47,48
 238.538085938 -7.5 238.538085938 -7.5 184.955078125 -8.4990234375 c 128,-1,49
 131.287109375 -9.5 131.287109375 -9.5 73.5 -9.5 c 2,50,-1
 63 -9.5 l 2,51,52
 16.857421875 -9.5 16.857421875 -9.5 16.857421875 8.2744140625 c 0,53,54
 16.857421875 8.6328125 16.857421875 8.6328125 16.875 9 c 0,55,56
 16.875 16.26953125 16.875 16.26953125 18.68359375 19.88671875 c 2,57,-1
 22.31640625 29.15234375 l 1,58,59
 28.58984375 41.7001953125 28.58984375 41.7001953125 36.51953125 52.7763671875 c 128,-1,60
 44.44921875 63.8525390625 44.44921875 63.8525390625 51.04296875 75.5751953125 c 0,61,62
 85.509765625 133.518554688 85.509765625 133.518554688 117.317382812 192.393554688 c 2,63,-1
 181.377929688 310.276367188 l 2,64,65
 185.99609375 319.493164062 185.99609375 319.493164062 195.36328125 335.48046875 c 0,66,67
 204.487304688 351.052734375 204.487304688 351.052734375 220.435546875 381.084960938 c 128,-1,68
 236.3828125 411.1171875 236.3828125 411.1171875 239.173828125 418.165039062 c 1,69,70
 230.141601562 420.25 230.141601562 420.25 216.75 420.25 c 2,71,-1
 195 419.5 l 1,72,-1
 171 419.5 l 2,73,74
 150.802734375 419.5 150.802734375 419.5 129.3984375 419.0078125 c 0,75,76
 110.717773438 418.578125 110.717773438 418.578125 93.232421875 413.614257812 c 0,77,78
 82.142578125 411.004882812 82.142578125 411.004882812 75.4306640625 402.501953125 c 128,-1,79
 68.7177734375 393.999023438 68.7177734375 393.999023438 63.1142578125 384.038085938 c 128,-1,80
 57.51171875 374.077148438 57.51171875 374.077148438 50.919921875 365.2890625 c 128,-1,81
 44.328125 356.5 44.328125 356.5 33 356.5 c 0,82,83
 17.1962890625 356.5 17.1962890625 356.5 17.1962890625 370.44921875 c 0,84,85
 17.1962890625 375.83984375 17.1962890625 375.83984375 19.890625 385.41796875 c 128,-1,86
 22.583984375 394.99609375 22.583984375 394.99609375 23.685546875 397.934570312 c 0,87,88
 25.3076171875 402.259765625 25.3076171875 402.259765625 29.07421875 418.991210938 c 0,89,90
 32.8642578125 439.181640625 32.8642578125 439.181640625 35.6767578125 450.427734375 c 128,-1,91
 38.48828125 461.674804688 38.48828125 461.674804688 43.037109375 469.086914062 c 128,-1,92
 47.5859375 476.5 47.5859375 476.5 57.7216796875 476.5 c 128,-1,93
 67.8583984375 476.5 67.8583984375 476.5 76.1083984375 472 c 128,-1,94
 84.3583984375 467.5 84.3583984375 467.5 99.75 467.5 c 2,95,-1
 219.75 467.5 l 2,96,97
 233.099609375 467.5 233.099609375 467.5 247.349609375 468.5 c 128,-1,98
 261.598632812 469.5 261.598632812 469.5 276 469.5 c 2,99,-1
 287.25 469.5 l 2,100,101
 298.07421875 469.5 298.07421875 469.5 312.331054688 467.327148438 c 128,-1,102
 326.586914062 465.155273438 326.586914062 465.155273438 332.05859375 457.860351562 c 1,103,104
 335.458007812 451.513671875 335.458007812 451.513671875 335.458007812 445.459960938 c 0,105,106
 335.458007812 437.047851562 335.458007812 437.047851562 333.06640625 432.622070312 c 0,107,108
 296.299804688 364.591796875 296.299804688 364.591796875 260.657226562 300.059570312 c 128,-1,109
 225.038085938 235.5703125 225.038085938 235.5703125 188.2890625 167.571289062 c 0,110,111
 171.724609375 137.455078125 171.724609375 137.455078125 152.514648438 105.201171875 c 128,-1,112
 133.305664062 72.9482421875 133.305664062 72.9482421875 123.22265625 43.5 c 1,113,-1
 165 43.5 l 2,114,115
 211.041015625 43.5 211.041015625 43.5 231.46484375 46.4599609375 c 128,-1,116
 251.887695312 49.419921875 251.887695312 49.419921875 264.172851562 52.6962890625 c 128,-1,117
 276.458984375 55.9716796875 276.458984375 55.9716796875 280.592773438 60.6962890625 c 0,118,119
 287.051757812 68.0791015625 287.051757812 68.0791015625 291.90234375 95.2412109375 c 2,120,-1
 295.65234375 116.241210938 l 2,121,122
 297.959960938 129.161132812 297.959960938 129.161132812 303.90234375 135.763671875 c 2,123,-1
 305.46484375 137.5 l 1,124,-1
 307.5 137.5 l 1,125,-1
 310.978515625 137.5 l 2,126,127
 312.348632812 137.666992188 312.348632812 137.666992188 313.604492188 137.666992188 c 0,36,37
EndSplineSet
EndChar

StartChar: exclam
Encoding: 33 33 18
Width: 185
Flags: W
LayerCount: 2
Fore
SplineSet
142.875 46 m 0,0,1
 142.875 13.396484375 142.875 13.396484375 126.048828125 -4.5517578125 c 128,-1,2
 109.221679688 -22.5 109.221679688 -22.5 87.75 -22.5 c 128,-1,3
 66.392578125 -22.5 66.392578125 -22.5 52.5087890625 -0.623046875 c 128,-1,4
 38.625 21.2548828125 38.625 21.2548828125 38.625 49.1201171875 c 128,-1,5
 38.625 76.986328125 38.625 76.986328125 53.6669921875 98.15625 c 128,-1,6
 68.83203125 119.5 68.83203125 119.5 90.8134765625 119.5 c 128,-1,7
 112.794921875 119.5 112.794921875 119.5 127.834960938 96.662109375 c 128,-1,8
 142.875 73.8232421875 142.875 73.8232421875 142.875 46 c 0,0,1
78.6240234375 216.001953125 m 1,9,10
 74.6552734375 274.216796875 74.6552734375 274.216796875 69.9716796875 327.83984375 c 0,11,12
 53.0205078125 521.90234375 53.0205078125 521.90234375 50.0302734375 564.436523438 c 128,-1,13
 47.0400390625 606.970703125 47.0400390625 606.970703125 44.2119140625 662.88671875 c 128,-1,14
 41.384765625 718.802734375 41.384765625 718.802734375 41.384765625 720.427734375 c 128,-1,15
 41.384765625 722.052734375 41.384765625 722.052734375 41.4580078125 723.172851562 c 0,16,17
 41.4580078125 735.473632812 41.4580078125 735.473632812 45.0732421875 742.359375 c 0,18,19
 49.13671875 750.099609375 49.13671875 750.099609375 59.775390625 750.099609375 c 0,20,21
 65.326171875 750.099609375 65.326171875 750.099609375 73.763671875 748.299804688 c 128,-1,22
 82.201171875 746.5 82.201171875 746.5 94.1806640625 746.5 c 128,-1,23
 106.16015625 746.5 106.16015625 746.5 115.53515625 748 c 128,-1,24
 124.91015625 749.5 124.91015625 749.5 133.583007812 749.5 c 128,-1,25
 142.256835938 749.5 142.256835938 749.5 147.640625 743.625976562 c 128,-1,26
 153.025390625 737.752929688 153.025390625 737.752929688 153.025390625 724.715820312 c 0,27,28
 153.025390625 714.220703125 153.025390625 714.220703125 145.303710938 633.146484375 c 128,-1,29
 137.58203125 552.073242188 137.58203125 552.073242188 131.208984375 481.594726562 c 0,30,31
 117.0546875 325.065429688 117.0546875 325.065429688 104.556640625 218.830078125 c 0,32,33
 103.153320312 208.333007812 103.153320312 208.333007812 94.3642578125 208.333007812 c 0,34,35
 86.29296875 208.333007812 86.29296875 208.333007812 80.6298828125 213.99609375 c 2,36,-1
 78.6240234375 216.001953125 l 1,9,10
EndSplineSet
EndChar

StartChar: quotedbl
Encoding: 34 34 19
Width: 228
Flags: W
LayerCount: 2
Fore
SplineSet
165.75 752.5 m 1,0,-1
 189.573242188 751.500976562 l 2,1,2
 191.6640625 752.357421875 191.6640625 752.357421875 193.653320312 752.357421875 c 0,3,4
 200.833007812 752.357421875 200.833007812 752.357421875 204.225585938 742.665039062 c 0,5,6
 206.420898438 736.393554688 206.420898438 736.393554688 206.420898438 732.1171875 c 0,7,8
 206.420898438 727.840820312 206.420898438 727.840820312 205.701171875 725.03125 c 0,9,10
 203.185546875 706.086914062 203.185546875 706.086914062 198.5078125 649.060546875 c 0,11,12
 193.830078125 592.034179688 193.830078125 592.034179688 190.774414062 564.537109375 c 0,13,14
 187.71875 537.0390625 187.71875 537.0390625 185.198242188 529.130859375 c 0,15,16
 182.747070312 521.077148438 182.747070312 521.077148438 176.294921875 517.94921875 c 0,17,18
 172.069335938 515.900390625 172.069335938 515.900390625 169.379882812 515.900390625 c 0,19,20
 160.87109375 515.900390625 160.87109375 515.900390625 155.029296875 521.3515625 c 0,21,22
 149.276367188 526.721679688 149.276367188 526.721679688 148.189453125 536.866210938 c 0,23,24
 135.747070312 646.083007812 135.747070312 646.083007812 133.32421875 679.676757812 c 0,25,26
 130.661132812 716.606445312 130.661132812 716.606445312 130.661132812 728.450195312 c 0,27,28
 130.661132812 740.29296875 130.661132812 740.29296875 132.8515625 744.966796875 c 0,29,30
 136.3828125 752.5 136.3828125 752.5 148.5 752.5 c 2,31,-1
 165.75 752.5 l 1,0,-1
57.75 752.5 m 1,32,-1
 81.5732421875 751.500976562 l 2,33,34
 84.6982421875 752.358398438 84.6982421875 752.358398438 85.6533203125 752.357421875 c 0,35,36
 92.8330078125 752.357421875 92.8330078125 752.357421875 96.2255859375 742.665039062 c 0,37,38
 98.4208984375 736.393554688 98.4208984375 736.393554688 98.4208984375 732.1171875 c 0,39,40
 98.4208984375 727.840820312 98.4208984375 727.840820312 97.701171875 725.03125 c 0,41,42
 96.23828125 714.016601562 96.23828125 714.016601562 93.6611328125 685.049804688 c 0,43,44
 81.080078125 543.661132812 81.080078125 543.661132812 76.4482421875 529.130859375 c 0,45,46
 74.0390625 521.208007812 74.0390625 521.208007812 68.0859375 518.033203125 c 0,47,48
 64.0859375 515.900390625 64.0859375 515.900390625 61.388671875 515.900390625 c 0,49,50
 53.0693359375 515.900390625 53.0693359375 515.900390625 46.861328125 521.16796875 c 0,51,52
 40.546875 526.525390625 40.546875 526.525390625 39.439453125 536.866210938 c 0,53,54
 22.6611328125 684.142578125 22.6611328125 684.142578125 22.6611328125 732.734375 c 0,55,56
 22.6611328125 740.29296875 22.6611328125 740.29296875 24.8515625 744.966796875 c 0,57,58
 28.3828125 752.5 28.3828125 752.5 39.75 752.5 c 2,59,-1
 57.75 752.5 l 1,32,-1
EndSplineSet
EndChar

StartChar: numbersign
Encoding: 35 35 20
Width: 393
Flags: W
LayerCount: 2
Fore
SplineSet
222.646484375 245.5 m 1,0,1
 226 267.432617188 226 267.432617188 229.515625 287.462890625 c 0,2,3
 233.032226562 307.494140625 233.032226562 307.494140625 236.1640625 328.478515625 c 1,4,5
 222.798828125 328.397460938 222.798828125 328.397460938 207.298828125 327.975585938 c 0,6,7
 191.798828125 327.553710938 191.798828125 327.553710938 173.283203125 327.505859375 c 1,8,9
 168.694335938 299.329101562 168.694335938 299.329101562 165.872070312 280.095703125 c 0,10,11
 163.049804688 260.86328125 163.049804688 260.86328125 160.23046875 245.5 c 1,12,-1
 222.646484375 245.5 l 1,0,1
186.228515625 406.484375 m 1,13,-1
 247.255859375 405.508789062 l 1,14,15
 251.383789062 437.745117188 251.383789062 437.745117188 256.044921875 475.504882812 c 0,16,17
 260.703125 513.255859375 260.703125 513.255859375 268.049804688 569.8515625 c 1,18,19
 279.670898438 574.5 279.670898438 574.5 289.924804688 574.5 c 0,20,21
 308.811523438 574.5 308.811523438 574.5 316.857421875 572.354492188 c 2,22,-1
 321.936523438 571 l 1,23,24
 317.5625 520.844726562 317.5625 520.844726562 311.853515625 482.306640625 c 0,25,26
 306.14453125 443.768554688 306.14453125 443.768554688 300.170898438 405.5 c 1,27,-1
 371.362304688 405.5 l 1,28,-1
 372.265625 399.4765625 l 1,29,-1
 374.515625 384.4765625 l 1,30,-1
 374.625 383.749023438 l 1,31,-1
 374.625 383 l 1,32,-1
 374.625 369 l 2,33,34
 374.625 360.62109375 374.625 360.62109375 373.775390625 349.294921875 c 0,35,36
 372.92578125 337.967773438 372.92578125 337.967773438 368.073242188 330.203125 c 2,37,-1
 366.159179688 327.140625 l 1,38,39
 355.965820312 328.5 355.965820312 328.5 348 328.5 c 2,40,-1
 288.047851562 328.5 l 1,41,42
 277.409179688 262.299804688 277.409179688 262.299804688 274.251953125 245.5 c 1,43,-1
 336.625 245.5 l 1,44,-1
 338.313476562 242.384765625 l 2,45,46
 347.825195312 224.82421875 347.825195312 224.82421875 347.825195312 208.677734375 c 0,47,48
 347.825195312 191.41796875 347.825195312 191.41796875 337.213867188 164.693359375 c 1,49,50
 301.279296875 162.610351562 301.279296875 162.610351562 261.874023438 162.505859375 c 1,51,52
 257.838867188 134.984375 257.838867188 134.984375 253.567382812 99.859375 c 0,53,54
 249.297851562 64.7578125 249.297851562 64.7578125 240.241210938 -5.5 c 1,55,-1
 235.5 -5.5 l 1,56,-1
 215 -6.8330078125 l 2,57,58
 206.28125 -6.8330078125 206.28125 -6.8330078125 186.90234375 -4.845703125 c 1,59,60
 194.963867188 57.2607421875 194.963867188 57.2607421875 199.572265625 88.181640625 c 0,61,62
 204.180664062 119.1015625 204.180664062 119.1015625 206.935546875 137.592773438 c 0,63,64
 209.690429688 156.083007812 209.690429688 156.083007812 210.646484375 162.5 c 1,65,-1
 147.123046875 162.5 l 1,66,67
 143.08984375 134.986328125 143.08984375 134.986328125 135.072265625 68.4931640625 c 0,68,69
 127.055664062 1.9990234375 127.055664062 1.9990234375 127.055664062 0.8193359375 c 2,70,-1
 126.3046875 -5.5 l 1,71,-1
 121.5 -5.5 l 1,72,-1
 100.416992188 -6.8330078125 l 2,73,74
 91.53125 -6.8330078125 91.53125 -6.8330078125 72.15234375 -4.845703125 c 1,75,76
 79.6357421875 52.810546875 79.6357421875 52.810546875 95.916015625 163.513671875 c 1,77,78
 57.5771484375 163.66796875 57.5771484375 163.66796875 27.375 165.905273438 c 1,79,-1
 27.375 173 l 2,80,81
 27.375 180.778320312 27.375 180.778320312 25.5 188.278320312 c 0,82,83
 23.625 195.778320312 23.625 195.778320312 23.625 204.403320312 c 0,84,85
 23.625 213.02734375 23.625 213.02734375 25.5537109375 222.287109375 c 0,86,87
 27.482421875 231.545898438 27.482421875 231.545898438 28.87109375 244.5 c 1,88,-1
 33.75 244.5 l 2,89,90
 47.1982421875 244.5 47.1982421875 244.5 66.859375 244.9765625 c 0,91,92
 86.5205078125 245.453125 86.5205078125 245.453125 108.641601562 245.49609375 c 1,93,94
 111.946289062 267.31640625 111.946289062 267.31640625 115.142578125 286.920898438 c 0,95,96
 118.338867188 306.525390625 118.338867188 306.525390625 121.426757812 327.5 c 1,97,-1
 64.4404296875 327.5 l 1,98,99
 52.8212890625 351.44140625 52.8212890625 351.44140625 52.8212890625 366.53125 c 0,100,101
 52.8212890625 381.622070312 52.8212890625 381.622070312 64.2900390625 407.5 c 1,102,-1
 67.5 407.5 l 1,103,-1
 132.522460938 406.509765625 l 1,104,105
 146.146484375 510.61328125 146.146484375 510.61328125 153.252929688 569.833007812 c 1,106,-1
 156.6328125 571.185546875 l 2,107,108
 164.920898438 574.5 164.920898438 574.5 175.555664062 574.5 c 0,109,110
 194.061523438 574.5 194.061523438 574.5 202.107421875 572.354492188 c 2,111,-1
 207.186523438 571 l 1,112,113
 200.58984375 495.353515625 200.58984375 495.353515625 186.228515625 406.484375 c 1,13,-1
EndSplineSet
EndChar

StartChar: dollar
Encoding: 36 36 21
Width: 422
Flags: W
LayerCount: 2
Fore
SplineSet
186.584960938 600.743164062 m 128,-1,1
 186.954101562 659.938476562 186.954101562 659.938476562 186.982421875 711.252929688 c 1,2,3
 155.522460938 704.119140625 155.522460938 704.119140625 131.870117188 676.919921875 c 0,4,5
 109.5 649.720703125 109.5 649.720703125 109.5 602.879882812 c 128,-1,6
 109.5 556.0390625 109.5 556.0390625 133.038085938 524.221679688 c 0,7,8
 155.682617188 495.1953125 155.682617188 495.1953125 186.184570312 472.091796875 c 1,9,0
 186.215820312 541.546875 186.215820312 541.546875 186.584960938 600.743164062 c 128,-1,1
309.772460938 153.35546875 m 128,-1,11
 309.772460938 206.946289062 309.772460938 206.946289062 285.049804688 241.396484375 c 0,12,13
 262.240234375 271.924804688 262.240234375 271.924804688 229.584960938 296.845703125 c 1,14,-1
 229.584960938 25.9755859375 l 1,15,16
 264.461914062 35.0322265625 264.461914062 35.0322265625 287.625 67.3974609375 c 0,17,10
 309.772460938 99.763671875 309.772460938 99.763671875 309.772460938 153.35546875 c 128,-1,11
199.443359375 819 m 2,18,-1
 206.677734375 819 l 2,19,20
 210.930664062 819 210.930664062 819 217.379882812 818.3828125 c 128,-1,21
 223.829101562 817.765625 223.829101562 817.765625 228.622070312 811.802734375 c 2,22,23
 229.719726562 803.104492188 229.719726562 803.104492188 230.817382812 809.116210938 c 1,24,25
 229.584960938 800.069335938 229.584960938 800.069335938 229.584960938 793.799804688 c 2,26,27
 229.584960938 779.946289062 229.584960938 779.946289062 229.584960938 780.029296875 c 1,28,29
 229.584960938 765.91796875 229.584960938 765.91796875 229.584960938 765.275390625 c 2,30,31
 229.584960938 761.223632812 229.584960938 761.223632812 229.327148438 756.884765625 c 1,32,33
 243.833984375 753.927734375 243.833984375 753.927734375 261.95703125 744.224609375 c 128,-1,34
 280.079101562 734.522460938 280.079101562 734.522460938 289.053710938 728.44140625 c 0,35,36
 297.864257812 722.360351562 297.864257812 722.360351562 299.03125 722.360351562 c 128,-1,37
 300.198242188 722.360351562 300.198242188 722.360351562 300.5234375 722.786132812 c 0,38,39
 303.959960938 727.29296875 303.959960938 727.29296875 307.673828125 737.520507812 c 128,-1,40
 311.38671875 747.748046875 311.38671875 747.748046875 318.494140625 758.233398438 c 128,-1,41
 325.600585938 768.717773438 325.600585938 768.717773438 339.375 768.717773438 c 0,42,43
 349.237304688 768.717773438 349.237304688 768.717773438 351.640625 752.958007812 c 0,44,45
 353.25 742.405273438 353.25 742.405273438 353.25 727.594726562 c 128,-1,46
 353.25 712.784179688 353.25 712.784179688 352.126953125 697.563476562 c 128,-1,47
 351.00390625 682.342773438 351.00390625 682.342773438 351.077148438 671.891601562 c 128,-1,48
 351.150390625 661.44140625 351.150390625 661.44140625 351.150390625 635.119140625 c 128,-1,49
 351.150390625 608.796875 351.150390625 608.796875 348.734375 566.036132812 c 0,50,51
 347.49609375 555.004882812 347.49609375 555.004882812 343.474609375 549.73046875 c 128,-1,52
 339.453125 544.45703125 339.453125 544.45703125 334.94140625 544.45703125 c 128,-1,53
 330.428710938 544.45703125 330.428710938 544.45703125 327.428710938 545.440429688 c 128,-1,54
 324.428710938 546.423828125 324.428710938 546.423828125 322.875 546.423828125 c 0,55,56
 314.8984375 546.423828125 314.8984375 546.423828125 309.96484375 559.361328125 c 0,57,58
 306.29296875 568.994140625 306.29296875 568.994140625 303.962890625 582.235351562 c 128,-1,59
 301.6328125 595.4765625 301.6328125 595.4765625 299.4765625 608.677734375 c 128,-1,60
 297.319335938 621.879882812 297.319335938 621.879882812 292.901367188 631.142578125 c 1,61,62
 282.079101562 663.306640625 282.079101562 663.306640625 262.428710938 682.266601562 c 0,63,64
 246.041015625 698.079101562 246.041015625 698.079101562 228.78125 703.912109375 c 1,65,66
 228.78125 569.157226562 228.78125 569.157226562 228.78125 441.3125 c 1,67,68
 251.225585938 426.502929688 251.225585938 426.502929688 273.668945312 413.846679688 c 2,69,70
 300.853515625 396.981445312 300.853515625 396.981445312 316.264648438 383.856445312 c 0,71,72
 349.703125 354.280273438 349.703125 354.280273438 368.365234375 307.37109375 c 128,-1,73
 386.973632812 260.596679688 386.973632812 260.596679688 387.749023438 207.716796875 c 1,74,75
 387.749023438 210.173828125 387.749023438 210.173828125 387.749023438 207.572265625 c 2,76,77
 387.749023438 104.2109375 387.749023438 104.2109375 344.576171875 47.08984375 c 128,-1,78
 301.404296875 -10.0302734375 301.404296875 -10.0302734375 229.141601562 -22.2646484375 c 1,79,80
 228.784179688 -30.7578125 228.784179688 -30.7578125 228.78125 -33.41015625 c 2,81,82
 228.78125 -35.1513671875 228.78125 -35.1513671875 228.78125 -50.130859375 c 1,83,84
 228.78125 -51.115234375 228.78125 -51.115234375 228.78125 -65.869140625 c 2,85,86
 228.78125 -74.267578125 228.78125 -74.267578125 227.177734375 -88 c 1,87,-1
 221.94921875 -88 l 1,88,-1
 205.0703125 -88 l 2,89,90
 194.442382812 -88 194.442382812 -88 191.108398438 -86.6171875 c 2,91,92
 189.385742188 -78.40234375 189.385742188 -78.40234375 187.663085938 -85.1884765625 c 1,93,94
 186.181640625 -74.3076171875 186.181640625 -74.3076171875 186.181640625 -66.806640625 c 2,95,96
 186.181640625 -51.990234375 186.181640625 -51.990234375 186.181640625 -51.068359375 c 1,97,98
 186.181640625 -31.8154296875 186.181640625 -31.8154296875 186.181640625 -25.7841796875 c 1,99,100
 173.202148438 -24.9072265625 173.202148438 -24.9072265625 160.000976562 -19.830078125 c 128,-1,101
 146.799804688 -14.7529296875 146.799804688 -14.7529296875 135.458984375 -9.30078125 c 0,102,103
 124.337890625 -3.8486328125 124.337890625 -3.8486328125 114.608398438 1.0595703125 c 0,104,105
 103.283203125 5.291015625 103.283203125 5.291015625 98.0595703125 5.3896484375 c 128,-1,106
 92.8369140625 5.4892578125 92.8369140625 5.4892578125 89.40234375 0.609375 c 128,-1,107
 85.9677734375 -4.26953125 85.9677734375 -4.26953125 82.1640625 -13.2490234375 c 128,-1,108
 78.3603515625 -22.2294921875 78.3603515625 -22.2294921875 71.9716796875 -30.009765625 c 128,-1,109
 65.58203125 -37.7900390625 65.58203125 -37.7900390625 51.375 -37.7900390625 c 0,110,111
 41.298828125 -37.7900390625 41.298828125 -37.7900390625 39.06640625 -18.7548828125 c 0,112,113
 37.5 -5.4091796875 37.5 -5.4091796875 37.5 11.7490234375 c 128,-1,114
 37.5 28.90625 37.5 28.90625 38.625 47.103515625 c 128,-1,115
 39.75 65.2998046875 39.75 65.2998046875 39.75 84.3740234375 c 0,116,117
 39.75 139.673828125 39.75 139.673828125 42.0341796875 172.048828125 c 0,118,119
 43.052734375 184.064453125 43.052734375 184.064453125 47.7763671875 188.7109375 c 128,-1,120
 52.501953125 193.358398438 52.501953125 193.358398438 56.833984375 193.358398438 c 128,-1,121
 61.1669921875 193.358398438 61.1669921875 193.358398438 63.7919921875 192.374023438 c 128,-1,122
 66.4169921875 191.390625 66.4169921875 191.390625 67.875 191.390625 c 0,123,124
 76.6953125 191.390625 76.6953125 191.390625 81.2177734375 178.788085938 c 0,125,126
 84.4716796875 169.717773438 84.4716796875 169.717773438 86.7734375 156.641601562 c 0,127,128
 92.39453125 124.694335938 92.39453125 124.694335938 98.5625 106.215820312 c 0,129,130
 109.852539062 71.048828125 109.852539062 71.048828125 134.193359375 52.076171875 c 0,131,132
 159.793945312 33.1025390625 159.793945312 33.1025390625 186.181640625 28.91015625 c 1,133,134
 186.181640625 181.557617188 186.181640625 181.557617188 186.181640625 328.094726562 c 1,135,136
 158.810546875 345.8515625 158.810546875 345.8515625 131.130859375 365.208007812 c 0,137,138
 105.052734375 384.564453125 105.052734375 384.564453125 83.8330078125 409.864257812 c 128,-1,139
 62.61328125 435.163085938 62.61328125 435.163085938 48.931640625 468.999023438 c 128,-1,140
 35.25 502.833984375 35.25 502.833984375 35.25 548.744140625 c 128,-1,141
 35.25 594.654296875 35.25 594.654296875 46.919921875 631.895507812 c 128,-1,142
 58.6083984375 669.198242188 58.6083984375 669.198242188 79.3115234375 695.836914062 c 128,-1,143
 99.939453125 722.379882812 99.939453125 722.379882812 126.725585938 737.504882812 c 0,144,145
 155.3828125 752.629882812 155.3828125 752.629882812 186.985351562 757.204101562 c 1,146,147
 186.985351562 779.151367188 186.985351562 779.151367188 186.985351562 814.907226562 c 1,148,149
 196.866210938 819.004882812 196.866210938 819.004882812 199.443359375 819 c 2,18,-1
EndSplineSet
EndChar

StartChar: percent
Encoding: 37 37 22
Width: 621
Flags: W
LayerCount: 2
Fore
SplineSet
500.302734375 223.904296875 m 0,0,1
 481.3125 250.5 481.3125 250.5 453.713867188 250.5 c 0,2,3
 431.415039062 250.5 431.415039062 250.5 412.233398438 225.799804688 c 128,-1,4
 392.915039062 200.922851562 392.915039062 200.922851562 392.189453125 159.532226562 c 2,5,6
 392.189453125 163.02734375 392.189453125 163.02734375 392.189453125 159.41015625 c 2,7,8
 392.0859375 156.0390625 392.0859375 156.0390625 392.083007812 152.798828125 c 0,9,10
 392.083007812 110.918945312 392.083007812 110.918945312 410.169921875 88.458984375 c 128,-1,11
 428.2578125 66 428.2578125 66 453.826171875 66 c 128,-1,12
 479.39453125 66 479.39453125 66 499.024414062 87.59375 c 0,13,14
 518.286132812 109.188476562 518.286132812 109.188476562 519 152.081054688 c 0,15,16
 518.984375 197.309570312 518.984375 197.309570312 500.302734375 223.904296875 c 0,0,1
209.611328125 631.404296875 m 128,-1,18
 190.3359375 658 190.3359375 658 162.73828125 658 c 0,19,20
 140.46875 658 140.46875 658 121.373046875 632.749023438 c 0,21,22
 102.701171875 607.498046875 102.701171875 607.498046875 101.998046875 566.071289062 c 2,23,24
 101.998046875 562.396484375 101.998046875 562.396484375 101.998046875 565.94921875 c 2,25,26
 101.897460938 562.577148438 101.897460938 562.577148438 101.89453125 559.340820312 c 0,27,28
 101.89453125 517.532226562 101.89453125 517.532226562 119.408203125 495.515625 c 0,29,30
 137.248046875 473.5 137.248046875 473.5 162.833007812 473.5 c 128,-1,31
 188.41796875 473.5 188.41796875 473.5 208.29296875 495.09375 c 128,-1,32
 228.166992188 516.688476562 228.166992188 516.688476562 228.904296875 559.581054688 c 0,33,17
 228.888671875 604.809570312 228.888671875 604.809570312 209.611328125 631.404296875 c 128,-1,18
473.962890625 697.5 m 1,34,-1
 476.930664062 697.5 l 2,35,36
 487.115234375 697.5 487.115234375 697.5 500.98046875 685.989257812 c 128,-1,37
 514.71484375 674.477539062 514.71484375 674.477539062 528.244140625 664.638671875 c 1,38,39
 502.936523438 614.60546875 502.936523438 614.60546875 478.805664062 573.901367188 c 0,40,41
 454.422851562 533.391601562 454.422851562 533.391601562 428.884765625 492.391601562 c 0,42,43
 354.576171875 369.36328125 354.576171875 369.36328125 280.654296875 249.334960938 c 128,-1,44
 206.850585938 129.499023438 206.850585938 129.499023438 134.646484375 -2.1591796875 c 1,45,-1
 130.404296875 0.033203125 l 2,46,47
 125.931640625 2.357421875 125.931640625 2.357421875 115.859375 11.8076171875 c 128,-1,48
 105.787109375 21.2578125 105.787109375 21.2578125 89.2783203125 28.9140625 c 2,49,-1
 82.021484375 32.2802734375 l 1,50,51
 181.354492188 206.57421875 181.354492188 206.57421875 279.62109375 366.048828125 c 128,-1,52
 377.889648438 525.52734375 377.889648438 525.52734375 473.962890625 697.5 c 1,34,-1
544.634765625 279.95703125 m 128,-1,54
 562.29296875 257.947265625 562.29296875 257.947265625 572.8671875 227.807617188 c 128,-1,55
 583.5 197.502929688 583.5 197.502929688 583.5 162.265625 c 128,-1,56
 583.5 127.028320312 583.5 127.028320312 574.123046875 95.431640625 c 128,-1,57
 564.73046875 63.783203125 564.73046875 63.783203125 547.859375 40.2421875 c 128,-1,58
 530.97265625 16.677734375 530.97265625 16.677734375 507.8359375 2.8681640625 c 0,59,60
 484.387695312 -11 484.387695312 -11 455 -11 c 128,-1,61
 425.610351562 -11 425.610351562 -11 400.924804688 0.2548828125 c 128,-1,62
 376.23828125 11.5087890625 376.23828125 11.5087890625 358.680664062 33.7041015625 c 128,-1,63
 341.166015625 55.845703125 341.166015625 55.845703125 331.825195312 86.6494140625 c 128,-1,64
 322.54296875 117.2578125 322.54296875 117.2578125 322.54296875 153.826171875 c 128,-1,65
 322.54296875 190.395507812 322.54296875 190.395507812 331.813476562 221.4765625 c 128,-1,66
 341.118164062 252.670898438 341.118164062 252.670898438 358.543945312 276.236328125 c 128,-1,67
 376.010742188 299.856445312 376.010742188 299.856445312 400.334960938 313.181640625 c 128,-1,68
 424.649414062 326.5 424.649414062 326.5 452.51953125 326.5 c 128,-1,69
 480.390625 326.5 480.390625 326.5 503.866210938 314.223632812 c 0,70,53
 526.982421875 301.958007812 526.982421875 301.958007812 544.634765625 279.95703125 c 128,-1,54
255.354492188 687.453125 m 128,-1,72
 273.588867188 665.42578125 273.588867188 665.42578125 284.500976562 634.770507812 c 128,-1,73
 295.45703125 603.9921875 295.45703125 603.9921875 295.45703125 568.754882812 c 128,-1,74
 295.45703125 533.516601562 295.45703125 533.516601562 285.770507812 502.389648438 c 128,-1,75
 276.079101562 471.250976562 276.079101562 471.250976562 258.682617188 447.723632812 c 128,-1,76
 241.286132812 424.197265625 241.286132812 424.197265625 217.370117188 409.848632812 c 128,-1,77
 193.454101562 395.5 193.454101562 395.5 164.014648438 395.5 c 128,-1,78
 134.575195312 395.5 134.575195312 395.5 110.864257812 407.234375 c 128,-1,79
 87.248046875 419.04296875 87.248046875 419.04296875 70.2734375 441.185546875 c 128,-1,80
 53.3408203125 463.2734375 53.3408203125 463.2734375 43.912109375 493.506835938 c 128,-1,81
 34.5 523.689453125 34.5 523.689453125 34.5 560.315429688 c 128,-1,82
 34.5 596.94140625 34.5 596.94140625 43.876953125 628.540039062 c 128,-1,83
 53.26953125 660.190429688 53.26953125 660.190429688 70.140625 683.733398438 c 128,-1,84
 87.056640625 707.337890625 87.056640625 707.337890625 110.236328125 720.662109375 c 0,85,86
 133.654296875 734 133.654296875 734 161.534179688 734 c 128,-1,87
 189.4140625 734 189.4140625 734 213.288085938 721.72265625 c 128,-1,71
 237.139648438 709.45703125 237.139648438 709.45703125 255.354492188 687.453125 c 128,-1,72
EndSplineSet
EndChar

StartChar: ampersand
Encoding: 38 38 23
Width: 608
Flags: W
LayerCount: 2
Fore
SplineSet
255.9140625 444.493164062 m 0,0,1
 274.655273438 461.288085938 274.655273438 461.288085938 284.514648438 488.989257812 c 0,2,3
 294.375 516.69140625 294.375 516.69140625 294.375 550.521484375 c 0,4,5
 294.375 584.3515625 294.375 584.3515625 280.094726562 607.92578125 c 0,6,7
 265.813476562 631.5 265.813476562 631.5 237.75 631.5 c 0,8,9
 213.1875 631.5 213.1875 631.5 198.28125 610.26953125 c 0,10,11
 183.375 589.0390625 183.375 589.0390625 183.375 556 c 0,12,13
 183.375 512.915039062 183.375 512.915039062 215.01953125 472.41015625 c 0,14,15
 235.7890625 445.82421875 235.7890625 445.82421875 246.979492188 437.340820312 c 0,16,17
 248.622070312 438.427734375 248.622070312 438.427734375 250.662109375 440.370117188 c 0,18,19
 252.701171875 442.3125 252.701171875 442.3125 255.9140625 444.493164062 c 0,0,1
118.125 198 m 0,20,21
 118.125 166.567382812 118.125 166.567382812 126.658203125 140.494140625 c 0,22,23
 135.205078125 114.379882812 135.205078125 114.379882812 150.504882812 94.927734375 c 0,24,25
 165.893554688 75.365234375 165.893554688 75.365234375 185.961914062 63.8974609375 c 0,26,27
 205.90625 52.5 205.90625 52.5 229.5 52.5 c 0,28,29
 264.723632812 52.5 264.723632812 52.5 289.987304688 72.2294921875 c 0,30,31
 315.25 91.958984375 315.25 91.958984375 339.463867188 125.221679688 c 0,32,33
 344.34765625 131.733398438 344.34765625 131.733398438 347.93359375 139.122070312 c 0,34,35
 351.51953125 146.51171875 351.51953125 146.51171875 355.135742188 153.782226562 c 1,36,37
 351.1484375 165.515625 351.1484375 165.515625 343.698242188 176.802734375 c 0,38,39
 331.256835938 195.653320312 331.256835938 195.653320312 327.115234375 202.3046875 c 0,40,41
 273.953125 290.427734375 273.953125 290.427734375 201.057617188 356.568359375 c 1,42,43
 165.40234375 337.228515625 165.40234375 337.228515625 141.763671875 295.361328125 c 0,44,45
 118.125 253.494140625 118.125 253.494140625 118.125 198 c 0,20,21
187.059570312 661.8359375 m 0,46,47
 208.034179688 674.5 208.034179688 674.5 232.5859375 674.5 c 0,48,49
 285.341796875 674.5 285.341796875 674.5 318.360351562 646.856445312 c 0,50,51
 335.672851562 632.362304688 335.672851562 632.362304688 346.124023438 608.244140625 c 0,52,53
 356.625 584.010742188 356.625 584.010742188 356.625 549 c 0,54,55
 356.625 501.182617188 356.625 501.182617188 325.666015625 461.118164062 c 0,56,57
 304.03125 433.12109375 304.03125 433.12109375 272.819335938 412.244140625 c 1,58,59
 276.30078125 408.57421875 276.30078125 408.57421875 281.958984375 403.29296875 c 0,60,61
 287.6171875 398.01171875 287.6171875 398.01171875 298.6796875 386.313476562 c 0,62,63
 309.7421875 374.615234375 309.7421875 374.615234375 324.6015625 354.802734375 c 0,64,65
 345.653320312 326.733398438 345.653320312 326.733398438 369.659179688 290.399414062 c 0,66,67
 393.666015625 254.06640625 393.666015625 254.06640625 404.665039062 237.634765625 c 1,68,69
 410.0859375 249.150390625 410.0859375 249.150390625 422.180664062 267.857421875 c 0,70,71
 434.275390625 286.563476562 434.275390625 286.563476562 441.151367188 300.073242188 c 0,72,73
 457.125 331.4609375 457.125 331.4609375 457.125 357 c 0,74,75
 457.125 373.59765625 457.125 373.59765625 454.419921875 378.647460938 c 0,76,77
 451.689453125 383.744140625 451.689453125 383.744140625 448.233398438 385.419921875 c 0,78,79
 444.77734375 387.095703125 444.77734375 387.095703125 440.740234375 389.787109375 c 0,80,81
 433.875 394.364257812 433.875 394.364257812 433.875 412 c 0,82,83
 433.875 421.857421875 433.875 421.857421875 444.1328125 425.276367188 c 0,84,85
 450.802734375 427.5 450.802734375 427.5 456.75 427.5 c 2,86,-1
 507 427.5 l 2,87,88
 523.991210938 427.5 523.991210938 427.5 540.491210938 429.5 c 0,89,90
 556.991210938 431.5 556.991210938 431.5 575.25 431.5 c 0,91,92
 581.522460938 431.5 581.522460938 431.5 587.198242188 426.202148438 c 0,93,94
 592.875 420.904296875 592.875 420.904296875 592.875 410.150390625 c 0,95,96
 592.875 399.396484375 592.875 399.396484375 587.649414062 393.822265625 c 0,97,98
 578.590820312 384.161132812 578.590820312 384.161132812 563.959960938 383.012695312 c 0,99,100
 557.41796875 382.5 557.41796875 382.5 552.75 382.5 c 0,101,102
 544.198242188 382.5 544.198242188 382.5 532.787109375 370.51171875 c 0,103,104
 521.375 358.524414062 521.375 358.524414062 510.086914062 341.530273438 c 0,105,106
 498.706054688 324.3984375 498.706054688 324.3984375 490.146484375 307.52734375 c 0,107,108
 468.294921875 264.458007812 468.294921875 264.458007812 425.504882812 193.630859375 c 1,109,110
 455.954101562 134.794921875 455.954101562 134.794921875 485.990234375 99.099609375 c 0,111,112
 502.744140625 79.189453125 502.744140625 79.189453125 521.45703125 65.7548828125 c 0,113,114
 540.168945312 52.3203125 540.168945312 52.3203125 563.1640625 49.353515625 c 1,115,116
 568.90625 46.0712890625 568.90625 46.0712890625 575.586914062 43.4521484375 c 0,117,118
 582.266601562 40.83203125 582.266601562 40.83203125 587.845703125 35.4228515625 c 0,119,120
 594.025390625 29.4306640625 594.025390625 29.4306640625 594.025390625 19.2568359375 c 0,121,122
 594.025390625 9.0830078125 594.025390625 9.0830078125 587.171875 -5.275390625 c 1,123,124
 574.474609375 -10.9189453125 574.474609375 -10.9189453125 556.771484375 -11.9912109375 c 0,125,126
 533.010742188 -13.5 533.010742188 -13.5 527.25 -13.5 c 0,127,128
 489.227539062 -13.5 489.227539062 -13.5 464.625976562 2.1201171875 c 0,129,130
 440.024414062 17.740234375 440.024414062 17.740234375 423.38671875 38.8916015625 c 0,131,132
 406.749023438 60.0439453125 406.749023438 60.0439453125 395.944335938 79.8525390625 c 0,133,134
 385.139648438 99.6611328125 385.139648438 99.6611328125 375.877929688 111.705078125 c 1,135,136
 367.759765625 95.6162109375 367.759765625 95.6162109375 354.97265625 76.6181640625 c 0,137,138
 330.486328125 40.23828125 330.486328125 40.23828125 294.587890625 6.8447265625 c 0,139,140
 277.909179688 -8.669921875 277.909179688 -8.669921875 263.014648438 -16.0048828125 c 0,141,142
 232.095703125 -32.47265625 232.095703125 -32.47265625 193.557617188 -33.5 c 0,143,144
 168.038085938 -33.5 168.038085938 -33.5 147.078125 -25.26171875 c 0,145,146
 122.963867188 -17.9599609375 122.963867188 -17.9599609375 103.075195312 -0.8017578125 c 0,147,148
 83.1201171875 16.4150390625 83.1201171875 16.4150390625 69.3955078125 40.46484375 c 0,149,150
 55.7333984375 64.4072265625 55.7333984375 64.4072265625 47.9404296875 94.0185546875 c 0,151,152
 40.125 123.717773438 40.125 123.717773438 40.125 157 c 2,153,-1
 40.125 176 l 2,154,155
 40.125 231.490234375 40.125 231.490234375 64.234375 274.524414062 c 0,156,157
 88.34375 317.557617188 88.34375 317.557617188 121.450195312 346.301757812 c 0,158,159
 134.502929688 357.5625 134.502929688 357.5625 149.826171875 367.333984375 c 0,160,161
 165.149414062 377.10546875 165.149414062 377.10546875 174.546875 387.163085938 c 1,162,163
 172.7890625 388.975585938 172.7890625 388.975585938 170.522460938 391.091796875 c 0,164,165
 150.909179688 414.10546875 150.909179688 414.10546875 134.891601562 448.482421875 c 0,166,167
 118.875 482.860351562 118.875 482.860351562 118.875 517.178710938 c 0,168,169
 118.875 551.498046875 118.875 551.498046875 127.552734375 579.370117188 c 0,170,171
 136.201171875 607.15234375 136.201171875 607.15234375 151.171875 628.163085938 c 0,172,173
 166.182617188 649.231445312 166.182617188 649.231445312 187.059570312 661.8359375 c 0,46,47
EndSplineSet
EndChar

StartChar: quotesingle
Encoding: 39 39 24
Width: 119
Flags: W
LayerCount: 2
Fore
SplineSet
57.75 752.5 m 1,0,-1
 81.5732421875 751.500976562 l 2,1,2
 84.6982421875 752.358398438 84.6982421875 752.358398438 85.6533203125 752.357421875 c 0,3,4
 92.8330078125 752.357421875 92.8330078125 752.357421875 96.2255859375 742.665039062 c 0,5,6
 98.4208984375 736.393554688 98.4208984375 736.393554688 98.4208984375 732.1171875 c 0,7,8
 98.4208984375 727.840820312 98.4208984375 727.840820312 97.701171875 725.03125 c 0,9,10
 96.23828125 714.016601562 96.23828125 714.016601562 93.6611328125 685.049804688 c 0,11,12
 81.080078125 543.661132812 81.080078125 543.661132812 76.4482421875 529.130859375 c 0,13,14
 74.0390625 521.208007812 74.0390625 521.208007812 68.0859375 518.033203125 c 0,15,16
 64.0859375 515.900390625 64.0859375 515.900390625 61.388671875 515.900390625 c 0,17,18
 53.0693359375 515.900390625 53.0693359375 515.900390625 46.861328125 521.16796875 c 0,19,20
 40.546875 526.525390625 40.546875 526.525390625 39.439453125 536.866210938 c 0,21,22
 22.6611328125 684.142578125 22.6611328125 684.142578125 22.6611328125 732.734375 c 0,23,24
 22.6611328125 740.29296875 22.6611328125 740.29296875 24.8515625 744.966796875 c 0,25,26
 28.3828125 752.5 28.3828125 752.5 39.75 752.5 c 2,27,-1
 57.75 752.5 l 1,0,-1
EndSplineSet
EndChar

StartChar: parenleft
Encoding: 40 40 25
Width: 270
Flags: W
LayerCount: 2
Fore
SplineSet
108.375 269 m 0,0,1
 108.375 148.251953125 108.375 148.251953125 137.32421875 35.42578125 c 0,2,3
 146.88671875 -1.84375 146.88671875 -1.84375 160.875976562 -33.259765625 c 2,4,-1
 195.787109375 -116.345703125 l 2,5,6
 212.92578125 -157.185546875 212.92578125 -157.185546875 239.595703125 -187.806640625 c 1,7,8
 244.799804688 -196.728515625 244.799804688 -196.728515625 244.799804688 -206.334960938 c 0,9,10
 244.799804688 -210.405273438 244.799804688 -210.405273438 243.909179688 -214.561523438 c 0,11,12
 240.494140625 -230.5 240.494140625 -230.5 228 -230.5 c 0,13,14
 219.225585938 -230.5 219.225585938 -230.5 207.469726562 -217.528320312 c 0,15,16
 195.71484375 -204.556640625 195.71484375 -204.556640625 190.98046875 -198.245117188 c 0,17,18
 120.588867188 -102.370117188 120.588867188 -102.370117188 79.6064453125 9.9501953125 c 0,19,20
 38.625 122.270507812 38.625 122.270507812 38.625 259 c 0,21,22
 38.625 375.502929688 38.625 375.502929688 75.03125 495.801757812 c 0,23,24
 110.380859375 612.609375 110.380859375 612.609375 173.534179688 698.975585938 c 0,25,26
 184.426757812 716.97265625 184.426757812 716.97265625 195.85546875 729.440429688 c 0,27,28
 207.284179688 741.908203125 207.284179688 741.908203125 215.379882812 750.00390625 c 0,29,30
 223.474609375 758.098632812 223.474609375 758.098632812 229.3203125 759.397460938 c 2,31,-1
 231.328125 759.84375 l 1,32,33
 243.438476562 750.42578125 243.438476562 750.42578125 248.69140625 737.583984375 c 2,34,-1
 249.618164062 735.318359375 l 1,35,-1
 249.297851562 732.759765625 l 2,36,37
 248.2265625 724.188476562 248.2265625 724.188476562 241.579101562 716.500976562 c 0,38,39
 214.298828125 680.09765625 214.298828125 680.09765625 196.631835938 645.74609375 c 0,40,41
 153.614257812 562.676757812 153.614257812 562.676757812 130.9921875 466.750976562 c 0,42,43
 108.375 370.84375 108.375 370.84375 108.375 269 c 0,0,1
EndSplineSet
EndChar

StartChar: parenright
Encoding: 41 41 26
Width: 270
Flags: W
LayerCount: 2
Fore
SplineSet
228.375 269 m 0,0,1
 228.375 178.8515625 228.375 178.8515625 207.895507812 91.3701171875 c 0,2,3
 181.501953125 -21.37109375 181.501953125 -21.37109375 131.301757812 -113.404296875 c 0,4,5
 105.135742188 -161.376953125 105.135742188 -161.376953125 74.6416015625 -198.069335938 c 0,6,7
 58.8134765625 -217.114257812 58.8134765625 -217.114257812 40.5029296875 -231.064453125 c 1,8,-1
 38.2431640625 -230.227539062 l 2,9,10
 21.5869140625 -224.05859375 21.5869140625 -224.05859375 17.79296875 -203.822265625 c 2,11,-1
 17.0908203125 -200.08203125 l 1,12,13
 44.3642578125 -157.301757812 44.3642578125 -157.301757812 68.1650390625 -115.649414062 c 0,14,15
 91.966796875 -73.9970703125 91.966796875 -73.9970703125 109.745117188 -27.5751953125 c 0,16,17
 158.625 99.046875 158.625 99.046875 158.625 262 c 0,18,19
 158.625 423.736328125 158.625 423.736328125 112.256835938 558.88671875 c 0,20,21
 96.3642578125 605.208984375 96.3642578125 605.208984375 74.943359375 644.604492188 c 0,22,23
 53.4560546875 684.12109375 53.4560546875 684.12109375 41.4580078125 700.119140625 c 0,24,25
 26.8408203125 719.608398438 26.8408203125 719.608398438 22.7158203125 728.653320312 c 0,26,27
 21.7724609375 731.168945312 21.7724609375 731.168945312 21.7724609375 735.85546875 c 0,28,29
 21.7724609375 740.541015625 21.7724609375 740.541015625 26.5615234375 749.384765625 c 0,30,31
 33.125 761.5 33.125 761.5 39.75 761.5 c 0,32,33
 46.5849609375 761.5 46.5849609375 761.5 59.84765625 746.763671875 c 0,34,35
 64.330078125 741.783203125 64.330078125 741.783203125 68.5537109375 737.17578125 c 0,36,37
 72.77734375 732.568359375 72.77734375 732.568359375 75.2265625 729.302734375 c 0,38,39
 145.662109375 635.388671875 145.662109375 635.388671875 187.018554688 520.045898438 c 0,40,41
 228.375 404.702148438 228.375 404.702148438 228.375 269 c 0,0,1
EndSplineSet
EndChar

StartChar: asterisk
Encoding: 42 42 27
Width: 399
Flags: W
LayerCount: 2
Fore
SplineSet
212.670898438 510.649414062 m 0,0,1
 211.283203125 515.14453125 211.283203125 515.14453125 211.283203125 521.216796875 c 128,-1,2
 211.283203125 527.290039062 211.283203125 527.290039062 215.194335938 533.569335938 c 128,-1,3
 219.10546875 539.84765625 219.10546875 539.84765625 237.537109375 554.18359375 c 0,4,5
 272.8125 581.620117188 272.8125 581.620117188 305.5078125 605.473632812 c 128,-1,6
 338.202148438 629.326171875 338.202148438 629.326171875 344.475585938 635.599609375 c 1,7,8
 349.1640625 638.099609375 349.1640625 638.099609375 352.284179688 638.099609375 c 128,-1,9
 355.403320312 638.099609375 355.403320312 638.099609375 356.65625 637.98046875 c 0,10,11
 365.859375 637.104492188 365.859375 637.104492188 367.685546875 623.275390625 c 0,12,13
 371.181640625 613.928710938 371.181640625 613.928710938 372.999023438 608.59765625 c 128,-1,14
 374.831054688 603.22265625 374.831054688 603.22265625 377.086914062 597.206054688 c 0,15,16
 383.877929688 579.09765625 383.877929688 579.09765625 384.331054688 571.311523438 c 0,17,18
 384.331054688 559.654296875 384.331054688 559.654296875 371.016601562 552.997070312 c 0,19,20
 360.995117188 547.857421875 360.995117188 547.857421875 341.376953125 540.815429688 c 128,-1,21
 321.758789062 533.7734375 321.758789062 533.7734375 300.795898438 525.787109375 c 0,22,23
 266.3125 512.650390625 266.3125 512.650390625 231.015625 501.767578125 c 0,24,25
 227.43359375 500.219726562 227.43359375 500.219726562 224.392578125 500.219726562 c 0,26,27
 215.891601562 500.219726562 215.891601562 500.219726562 212.670898438 510.649414062 c 0,0,1
195.75 755.5 m 2,28,29
 198.561523438 755.5 198.561523438 755.5 202.241210938 754.518554688 c 128,-1,30
 205.920898438 753.537109375 205.920898438 753.537109375 213.927734375 753.500976562 c 0,31,32
 215.66796875 753.944335938 215.66796875 753.944335938 217.27734375 753.944335938 c 0,33,34
 225.459960938 753.944335938 225.459960938 753.944335938 228.672851562 743.94921875 c 0,35,36
 230.474609375 738.341796875 230.474609375 738.341796875 230.474609375 734.1796875 c 128,-1,37
 230.474609375 730.017578125 230.474609375 730.017578125 229.701171875 727.028320312 c 0,38,39
 228.275390625 716.108398438 228.275390625 716.108398438 226.438476562 687.212890625 c 0,40,41
 221.526367188 609.920898438 221.526367188 609.920898438 218.131835938 575.009765625 c 128,-1,42
 214.737304688 540.098632812 214.737304688 540.098632812 211.26171875 532.533203125 c 0,43,44
 206.920898438 518.997070312 206.920898438 518.997070312 196.815429688 517.5 c 1,45,46
 185.681640625 517.5 185.681640625 517.5 183.4609375 538.642578125 c 0,47,48
 181.227539062 551.654296875 181.227539062 551.654296875 174.825195312 606.825195312 c 0,49,50
 165.321289062 688.737304688 165.321289062 688.737304688 163.099609375 730.202148438 c 1,51,52
 164.037109375 740.205078125 164.037109375 740.205078125 166.340820312 746.346679688 c 0,53,54
 169.7734375 755.5 169.7734375 755.5 182.25 755.5 c 2,55,-1
 195.75 755.5 l 2,28,29
65.6669921875 360.16015625 m 0,56,57
 81.0576171875 382.912109375 81.0576171875 382.912109375 118.15234375 426.62109375 c 0,58,59
 176.30078125 495.13671875 176.30078125 495.13671875 185.86328125 495.13671875 c 0,60,61
 186.052734375 495.13671875 186.052734375 495.13671875 186.193359375 495.0859375 c 0,62,63
 190.453125 495.0859375 190.453125 495.0859375 193.970703125 491.400390625 c 0,64,65
 199.465820312 485.643554688 199.465820312 485.643554688 199.465820312 476.272460938 c 0,66,67
 199.465820312 471.712890625 199.465820312 471.712890625 197.881835938 465.64453125 c 128,-1,68
 196.297851562 459.576171875 196.297851562 459.576171875 184.848632812 436.677734375 c 128,-1,69
 173.400390625 413.780273438 173.400390625 413.780273438 159.490234375 387.213867188 c 128,-1,70
 145.640625 360.76171875 145.640625 360.76171875 133.458007812 336.642578125 c 128,-1,71
 121.275390625 312.5234375 121.275390625 312.5234375 115.870117188 303.139648438 c 0,72,73
 113.325195312 296.025390625 113.325195312 296.025390625 106.461914062 292.102539062 c 0,74,75
 103.974609375 290.681640625 103.974609375 290.681640625 101.498046875 290.681640625 c 0,76,77
 95.3642578125 290.681640625 95.3642578125 290.681640625 91.0732421875 298.83203125 c 0,78,79
 84.80859375 305.342773438 84.80859375 305.342773438 82.2177734375 308.303710938 c 128,-1,80
 79.6220703125 311.26953125 79.6220703125 311.26953125 77.2890625 313.862304688 c 128,-1,81
 74.955078125 316.455078125 74.955078125 316.455078125 73.080078125 318.955078125 c 2,82,-1
 66.5234375 326.697265625 l 2,83,84
 58.875 336.895507812 58.875 336.895507812 58.875 343.977539062 c 128,-1,85
 58.875 351.060546875 58.875 351.060546875 65.6669921875 360.16015625 c 0,56,57
292.004882812 288.333007812 m 0,86,87
 283.9140625 288.333007812 283.9140625 288.333007812 276.715820312 299.530273438 c 1,88,89
 271.348632812 310.776367188 271.348632812 310.776367188 249.849609375 359.545898438 c 0,90,91
 218.326171875 431.051757812 218.326171875 431.051757812 205.008789062 466.5390625 c 0,92,93
 198.577148438 482.375 198.577148438 482.375 206.3984375 492.802734375 c 0,94,95
 210.393554688 498.129882812 210.393554688 498.129882812 215.243164062 498.129882812 c 128,-1,96
 220.091796875 498.129882812 220.091796875 498.129882812 224.73046875 493.643554688 c 0,97,98
 236.3515625 487.263671875 236.3515625 487.263671875 309.369140625 382.60546875 c 0,99,100
 324.04296875 361.572265625 324.04296875 361.572265625 329.194335938 355.836914062 c 128,-1,101
 334.344726562 350.100585938 334.344726562 350.100585938 335.875 340.576171875 c 0,102,103
 336.177734375 338.6953125 336.177734375 338.6953125 336.177734375 336.889648438 c 0,104,105
 336.177734375 327.227539062 336.177734375 327.227539062 328.5390625 322.565429688 c 0,106,107
 322.568359375 315.440429688 322.568359375 315.440429688 319.6015625 310.991210938 c 0,108,109
 315.379882812 304.657226562 315.379882812 304.657226562 309.864257812 299.754882812 c 2,110,-1
 303.263671875 293.887695312 l 2,111,112
 297.762695312 288.333007812 297.762695312 288.333007812 292.004882812 288.333007812 c 0,86,87
26.25 551.115234375 m 0,113,114
 14.375 557.182617188 14.375 557.182617188 14.375 570.052734375 c 0,115,116
 14.375 576.10546875 14.375 576.10546875 20.8408203125 593.346679688 c 0,117,118
 21.7880859375 595.873046875 21.7880859375 595.873046875 22.517578125 598.791992188 c 128,-1,119
 23.2470703125 601.7109375 23.2470703125 601.7109375 26.4482421875 611.315429688 c 128,-1,120
 29.6494140625 620.918945312 29.6494140625 620.918945312 29.763671875 621.948242188 c 0,121,122
 31.447265625 637.514648438 31.447265625 637.514648438 40.66796875 637.514648438 c 0,123,124
 40.955078125 637.514648438 40.955078125 637.514648438 41.25 637.5 c 0,125,126
 49.103515625 637.5 49.103515625 637.5 55.0927734375 631.04296875 c 0,127,128
 61.7607421875 625.168945312 61.7607421875 625.168945312 80.62890625 611.357421875 c 0,129,130
 121.39453125 581.515625 121.39453125 581.515625 149.436523438 559.241210938 c 0,131,132
 178.096679688 536.4765625 178.096679688 536.4765625 181.984375 530.935546875 c 0,133,134
 186.715820312 523.724609375 186.715820312 523.724609375 186.715820312 517.318359375 c 128,-1,135
 186.715820312 510.912109375 186.715820312 510.912109375 185.092773438 506.313476562 c 0,136,137
 181.352539062 495.717773438 181.352539062 495.717773438 171.467773438 495.717773438 c 0,138,139
 168.362304688 495.717773438 168.362304688 495.717773438 165.116210938 496.729492188 c 0,140,141
 118.420898438 512.501953125 118.420898438 512.501953125 96.6669921875 521.15234375 c 128,-1,142
 74.9140625 529.802734375 74.9140625 529.802734375 55.3095703125 537.342773438 c 128,-1,143
 35.705078125 544.8828125 35.705078125 544.8828125 26.25 551.115234375 c 0,113,114
EndSplineSet
EndChar

StartChar: plus
Encoding: 43 43 28
Width: 368
Flags: W
LayerCount: 2
Fore
SplineSet
294.83984375 216.099609375 m 2,0,-1
 211.125 215.501953125 l 1,1,-1
 211.125 43.8505859375 l 1,2,3
 198.561523438 40.5 198.561523438 40.5 194.25 40.5 c 2,4,-1
 183.75 40.5 l 2,5,6
 177.607421875 40.5 177.607421875 40.5 169.100585938 41.0673828125 c 0,7,8
 160.59375 41.6337890625 160.59375 41.6337890625 154.65234375 48.236328125 c 2,9,-1
 152.426757812 50.708984375 l 1,10,11
 153.825195312 75.8818359375 153.825195312 75.8818359375 153.825195312 104.879882812 c 2,12,-1
 153.375976562 214.5 l 1,13,-1
 33.6904296875 214.5 l 1,14,15
 22.0712890625 238.44140625 22.0712890625 238.44140625 22.0712890625 253.529296875 c 0,16,17
 22.0712890625 268.616210938 22.0712890625 268.616210938 33.5537109375 295.701171875 c 1,18,19
 53.3798828125 294.5 53.3798828125 294.5 68.25 294.5 c 2,20,-1
 152.625 294.5 l 1,21,-1
 152.625 454.080078125 l 1,22,23
 170.581054688 469.571289062 170.581054688 469.571289062 181.8984375 469.571289062 c 0,24,25
 193.216796875 469.571289062 193.216796875 469.571289062 212.772460938 454.163085938 c 1,26,27
 211.875 427.818359375 211.875 427.818359375 211.875 407 c 2,28,-1
 211.875 293.5 l 1,29,-1
 341.362304688 293.5 l 1,30,31
 343.875 276.749023438 343.875 276.749023438 343.875 270 c 2,32,-1
 343.875 256 l 2,33,34
 343.875 247.809570312 343.875 247.809570312 343.442382812 236.275390625 c 0,35,36
 343.009765625 224.7421875 343.009765625 224.7421875 336.9765625 216.697265625 c 2,37,-1
 335.153320312 214.266601562 l 1,38,39
 316.588867188 216.099609375 316.588867188 216.099609375 294.83984375 216.099609375 c 2,0,-1
EndSplineSet
EndChar

StartChar: comma
Encoding: 44 44 29
Width: 198
Flags: W
LayerCount: 2
Fore
SplineSet
168.375 -9 m 0,0,1
 168.375 -46.771484375 168.375 -46.771484375 155.869140625 -80.1220703125 c 0,2,3
 134.934570312 -135.947265625 134.934570312 -135.947265625 88.90625 -175.317382812 c 0,4,5
 68.0947265625 -193.119140625 68.0947265625 -193.119140625 51.955078125 -196.393554688 c 0,6,7
 51.353515625 -196.775390625 51.353515625 -196.775390625 50.8369140625 -196.775390625 c 128,-1,8
 50.3212890625 -196.775390625 50.3212890625 -196.775390625 49.9208984375 -196.642578125 c 0,9,10
 44.1875 -196.642578125 44.1875 -196.642578125 39.0986328125 -189.240234375 c 128,-1,11
 34.009765625 -181.837890625 34.009765625 -181.837890625 34.009765625 -174.5625 c 0,12,13
 34.009765625 -163.189453125 34.009765625 -163.189453125 50.2744140625 -149.635742188 c 0,14,15
 81.498046875 -123.615234375 81.498046875 -123.615234375 98.9970703125 -92.505859375 c 0,16,17
 109.125 -74.501953125 109.125 -74.501953125 109.125 -50 c 128,-1,18
 109.125 -25.646484375 109.125 -25.646484375 99.4873046875 -17.935546875 c 0,19,20
 94.4638671875 -13.9169921875 94.4638671875 -13.9169921875 87.197265625 -11.0107421875 c 0,21,22
 76.61328125 -6.77734375 76.61328125 -6.77734375 69.6103515625 -2.7900390625 c 0,23,24
 56.1884765625 5.630859375 56.1884765625 5.630859375 45.15625 18.0771484375 c 128,-1,25
 34.125 30.5234375 34.125 30.5234375 34.125 54 c 0,26,27
 34.125 71.18359375 34.125 71.18359375 40.16015625 83.8291015625 c 128,-1,28
 46.1953125 96.4736328125 46.1953125 96.4736328125 54.9697265625 103.716796875 c 0,29,30
 72.880859375 118.5 72.880859375 118.5 93.2294921875 118.5 c 128,-1,31
 113.578125 118.5 113.578125 118.5 127.123046875 105.365234375 c 128,-1,32
 140.66796875 92.23046875 140.66796875 92.23046875 149.801757812 73.169921875 c 128,-1,33
 158.934570312 54.109375 158.934570312 54.109375 163.659179688 32.0615234375 c 128,-1,34
 168.375 10.0556640625 168.375 10.0556640625 168.375 -9 c 0,0,1
EndSplineSet
EndChar

StartChar: hyphen
Encoding: 45 45 30
Width: 289
Flags: W
LayerCount: 2
Fore
SplineSet
29.875 233.888671875 m 2,0,-1
 30.375 278 l 2,1,2
 30.375 290.032226562 30.375 290.032226562 47.2578125 291.484375 c 0,3,4
 59.06640625 292.5 59.06640625 292.5 69.75 292.5 c 2,5,-1
 83.25 292.5 l 1,6,-1
 192.5390625 291.25 l 2,7,8
 225.227539062 291.25 225.227539062 291.25 257.705078125 293.490234375 c 2,9,-1
 257.852539062 293.5 l 2,10,11
 268.125 293.5 268.125 293.5 268.125 267 c 2,12,-1
 268.125 226 l 2,13,14
 268.125 214.494140625 268.125 214.494140625 255.42578125 212.075195312 c 0,15,16
 247.154296875 210.5 247.154296875 210.5 237 210.5 c 2,17,-1
 63.75 210.5 l 2,18,19
 39.888671875 210.5 39.888671875 210.5 34.298828125 214.673828125 c 0,20,21
 30.6865234375 217.37109375 30.6865234375 217.37109375 30.396484375 222.267578125 c 0,22,23
 30 227 30 227 29.875 233.888671875 c 2,0,-1
EndSplineSet
EndChar

StartChar: period
Encoding: 46 46 31
Width: 192
Flags: W
LayerCount: 2
Fore
SplineSet
53.1328125 97.4443359375 m 0,0,1
 69.009765625 117.5 69.009765625 117.5 92.5146484375 117.5 c 0,2,3
 116.018554688 117.5 116.018554688 117.5 128.697265625 95.5244140625 c 0,4,5
 141.375 73.548828125 141.375 73.548828125 141.375 43.623046875 c 0,6,7
 141.375 13.697265625 141.375 13.697265625 126.528320312 -4.4013671875 c 0,8,9
 111.682617188 -22.5 111.682617188 -22.5 89.623046875 -22.5 c 0,10,11
 67.5634765625 -22.5 67.5634765625 -22.5 52.3447265625 -3.8984375 c 0,12,13
 37.125 14.703125 37.125 14.703125 37.125 46 c 0,14,15
 37.125 77.2236328125 37.125 77.2236328125 53.1328125 97.4443359375 c 0,0,1
EndSplineSet
EndChar

StartChar: slash
Encoding: 47 47 32
Width: 290
Flags: W
LayerCount: 2
Fore
SplineSet
57.75 -38.5 m 1,0,-1
 36.6669921875 -39.8330078125 l 2,1,2
 27.78125 -39.8330078125 27.78125 -39.8330078125 7.1904296875 -37.7216796875 c 1,3,4
 62.9765625 167.614257812 62.9765625 167.614257812 117.711914062 358.063476562 c 0,5,6
 172.448242188 548.515625 172.448242188 548.515625 222.076171875 749.0625 c 1,7,8
 233.170898438 753.5 233.170898438 753.5 243.805664062 753.5 c 0,9,10
 262.311523438 753.5 262.311523438 753.5 270.357421875 751.354492188 c 2,11,-1
 276.303710938 749.768554688 l 1,12,13
 264.09375 691.623046875 264.09375 691.623046875 250.17578125 643.977539062 c 0,14,15
 236.2578125 596.331054688 236.2578125 596.331054688 222.76171875 547.345703125 c 0,16,17
 194.541992188 448.041015625 194.541992188 448.041015625 147.173828125 281.76953125 c 0,18,19
 99.8046875 115.494140625 99.8046875 115.494140625 61.822265625 -38.5 c 1,20,-1
 57.75 -38.5 l 1,0,-1
EndSplineSet
EndChar

StartChar: zero
Encoding: 48 48 33
Width: 465
Flags: W
LayerCount: 2
Fore
SplineSet
120.16796875 324.504882812 m 132,-1,1
 120.16796875 267.000976562 120.16796875 267.000976562 126.072265625 213.970703125 c 132,-1,2
 131.974609375 160.938476562 131.974609375 160.938476562 146.423828125 117.25390625 c 132,-1,3
 160.9375 73.5673828125 160.9375 73.5673828125 183.318359375 47.0068359375 c 4,4,5
 207.12890625 18.7470703125 207.12890625 18.7470703125 241.19140625 18.7470703125 c 4,6,7
 268.999023438 18.7470703125 268.999023438 18.7470703125 289.884765625 43.61328125 c 132,-1,8
 310.7734375 68.4814453125 310.7734375 68.4814453125 325.303710938 111.392578125 c 132,-1,9
 339.834960938 154.301757812 339.834960938 154.301757812 347.186523438 208.645507812 c 132,-1,10
 354.522460938 262.989257812 354.522460938 262.989257812 355.262695312 319.9765625 c 4,11,12
 355.2578125 378.732421875 355.2578125 378.732421875 348.643554688 438.201171875 c 4,13,14
 334.177734375 565.40234375 334.177734375 565.40234375 289.576171875 621.287109375 c 4,15,16
 266.784179688 649.845703125 266.784179688 649.845703125 234.272460938 649.845703125 c 6,17,18
 234.16015625 641.15625 234.16015625 641.15625 234.045898438 649.852539062 c 6,19,20
 232.495117188 649.940429688 232.495117188 649.940429688 230.97265625 649.940429688 c 4,21,22
 204.578125 649.940429688 204.578125 649.940429688 184.00390625 622.6796875 c 132,-1,23
 163.4296875 595.416992188 163.4296875 595.416992188 149.243164062 549.91015625 c 132,-1,24
 135.056640625 504.404296875 135.056640625 504.404296875 127.96875 446.575195312 c 4,25,0
 120.16796875 382.0078125 120.16796875 382.0078125 120.16796875 324.504882812 c 132,-1,1
376.26953125 602.012695312 m 128,-1,27
 402.623046875 554.825195312 402.623046875 554.825195312 418.038085938 488.841796875 c 128,-1,28
 433.420898438 422.994140625 433.420898438 422.994140625 433.420898438 347.791992188 c 128,-1,29
 433.420898438 272.58984375 433.420898438 272.58984375 419.60546875 204.696289062 c 128,-1,30
 405.762695312 136.658203125 405.762695312 136.658203125 380.98828125 85.107421875 c 128,-1,31
 356.213867188 33.5556640625 356.213867188 33.5556640625 319.748046875 2.966796875 c 0,32,33
 282.467773438 -27.623046875 282.467773438 -27.623046875 237.974609375 -27.623046875 c 128,-1,34
 193.48046875 -27.623046875 193.48046875 -27.623046875 155.805664062 -1.525390625 c 0,35,36
 118.848632812 24.5732421875 118.848632812 24.5732421875 93.22265625 72.5888671875 c 128,-1,37
 67.595703125 120.604492188 67.595703125 120.604492188 53.740234375 185.76953125 c 128,-1,38
 39.88671875 250.935546875 39.88671875 250.935546875 39.88671875 328.973632812 c 128,-1,39
 39.88671875 407.012695312 39.88671875 407.012695312 53.7216796875 475.013671875 c 128,-1,40
 67.5576171875 543.015625 67.5576171875 543.015625 92.7236328125 593.103515625 c 128,-1,41
 117.889648438 643.190429688 117.889648438 643.190429688 153.970703125 673.767578125 c 0,42,43
 190.821289062 704.34375 190.821289062 704.34375 233.77734375 704.34375 c 128,-1,44
 276.734375 704.34375 276.734375 704.34375 313.555664062 676.772460938 c 0,45,26
 349.916015625 649.201171875 349.916015625 649.201171875 376.26953125 602.012695312 c 128,-1,27
EndSplineSet
EndChar

StartChar: one
Encoding: 49 49 34
Width: 290
Flags: W
LayerCount: 2
Fore
SplineSet
109.526367188 691.334960938 m 0,0,1
 125.913085938 702.217773438 125.913085938 702.217773438 156.549804688 702.217773438 c 2,2,3
 166.961914062 694.458984375 166.961914062 694.458984375 177.375 701.700195312 c 1,4,-1
 178.26953125 701.700195312 l 1,5,6
 178.69140625 694.017578125 178.69140625 694.017578125 179.11328125 701.334960938 c 1,7,8
 183.61328125 691.884765625 183.61328125 691.884765625 188.11328125 697.434570312 c 1,9,10
 189.557617188 689.30859375 189.557617188 689.30859375 191.000976562 696.182617188 c 1,11,12
 193.5 684.255859375 193.5 684.255859375 193.5 670.6796875 c 128,-1,13
 193.5 657.103515625 193.5 657.103515625 191.96875 638.10546875 c 2,14,15
 191.9609375 631.903320312 191.9609375 631.903320312 191.954101562 637.939453125 c 2,16,17
 190.291015625 621 190.291015625 621 187.834960938 615.405273438 c 0,18,19
 182.177734375 603.026367188 182.177734375 603.026367188 182.177734375 587.59375 c 0,20,21
 182.177734375 585.946289062 182.177734375 585.946289062 182.2421875 584.251953125 c 2,22,23
 182.248046875 579.13671875 182.248046875 579.13671875 182.252929688 583.994140625 c 1,24,25
 181.876953125 554.596679688 181.876953125 554.596679688 181.5 534.119140625 c 2,26,27
 181.5 446.961914062 181.5 446.961914062 180.374023438 360.155273438 c 128,-1,28
 179.25 273.2421875 179.25 273.2421875 179.25 186.370117188 c 2,29,30
 179.25 178.774414062 179.25 178.774414062 179.25 163.95703125 c 2,31,32
 179.9921875 143.084960938 179.9921875 143.084960938 182.125 120.919921875 c 128,-1,33
 184.258789062 98.755859375 184.258789062 98.755859375 191.615234375 86.90234375 c 0,34,35
 197.165039062 76.642578125 197.165039062 76.642578125 208.2734375 72.5625 c 128,-1,36
 219.380859375 68.4833984375 219.380859375 68.4833984375 230.463867188 64.5908203125 c 128,-1,37
 241.546875 60.6982421875 241.546875 60.6982421875 250.650390625 55.2373046875 c 0,38,39
 262.5 47.9208984375 262.5 47.9208984375 262.5 29.7744140625 c 0,40,41
 262.5 0.75 262.5 0.75 246.540039062 -2.3173828125 c 0,42,43
 231.2421875 -4.787109375 231.2421875 -4.787109375 228.8203125 -4.787109375 c 0,44,45
 224.72265625 -4.787109375 224.72265625 -4.787109375 223.083984375 -4.7236328125 c 128,-1,46
 221.319335938 -4.7587890625 221.319335938 -4.7587890625 219.557617188 -4.7587890625 c 0,47,48
 199.123046875 -4.7587890625 199.123046875 -4.7587890625 178.795898438 -0.1259765625 c 128,-1,49
 158.46875 4.5078125 158.46875 4.5078125 137.5 4.5078125 c 0,50,51
 137.13671875 4.5078125 137.13671875 4.5078125 136.76953125 4.5087890625 c 0,52,53
 117.840820312 4.5556640625 117.840820312 4.5556640625 102.602539062 -0.6572265625 c 0,54,55
 92.9658203125 -3.833984375 92.9658203125 -3.833984375 84.796875 -4.6025390625 c 128,-1,56
 76.626953125 -5.3701171875 76.626953125 -5.3701171875 71.25 -5.78515625 c 1,57,58
 71.25 1.4775390625 71.25 1.4775390625 71.25 -6.259765625 c 1,59,-1
 65.625 -6.259765625 l 1,60,-1
 55.0625 -6.259765625 l 2,61,62
 46.2041015625 -6.130859375 46.2041015625 -6.130859375 37.4384765625 0.0341796875 c 0,63,64
 27 7.462890625 27 7.462890625 27 29.8271484375 c 0,65,66
 27 47.3642578125 27 47.3642578125 37.1181640625 55.609375 c 0,67,68
 45.3330078125 62.5302734375 45.3330078125 62.5302734375 56.6123046875 66.267578125 c 0,69,70
 66.95703125 70.3876953125 66.95703125 70.3876953125 78.408203125 75.1689453125 c 0,71,72
 87.7998046875 79.7734375 87.7998046875 79.7734375 95.068359375 91.7724609375 c 0,73,74
 101.404296875 101.606445312 101.404296875 101.606445312 103.202148438 132.271484375 c 128,-1,75
 105 162.936523438 105 162.936523438 105 192.463867188 c 2,76,77
 105 211.295898438 105 211.295898438 105 224.153320312 c 2,78,79
 105.75 333.858398438 105.75 333.858398438 105.75 334.016601562 c 2,80,81
 106.125 410.306640625 106.125 410.306640625 106.5 489.124023438 c 1,82,83
 106.5 500.982421875 106.5 500.982421875 106.5 519.243164062 c 2,84,85
 106.5 562.880859375 106.5 562.880859375 105.051757812 571.930664062 c 0,86,87
 101.338867188 579.455078125 101.338867188 579.455078125 94.4921875 580.125 c 0,88,89
 94.451171875 580.12890625 94.451171875 580.12890625 72.93359375 582.017578125 c 2,90,-1
 59.625 582.017578125 l 2,91,92
 49.3564453125 582.017578125 49.3564453125 582.017578125 37.736328125 589.393554688 c 0,93,94
 23.931640625 597.62890625 23.931640625 597.62890625 28.19140625 636.686523438 c 0,95,96
 30.033203125 652.264648438 30.033203125 652.264648438 31.99609375 655.228515625 c 128,-1,97
 33.9599609375 658.192382812 33.9599609375 658.192382812 36.1171875 658.649414062 c 0,98,99
 50.775390625 663.311523438 50.775390625 663.311523438 53.798828125 663.8828125 c 0,100,101
 80.291015625 670.869140625 80.291015625 670.869140625 109.526367188 691.334960938 c 0,0,1
EndSplineSet
EndChar

StartChar: two
Encoding: 50 50 35
Width: 372
Flags: W
LayerCount: 2
Fore
SplineSet
155.465820312 158.073242188 m 0,0,1
 127.911132812 104.630859375 127.911132812 104.630859375 115.106445312 83.3134765625 c 1,2,3
 131.833984375 75.0107421875 131.833984375 75.0107421875 170.596679688 75.0107421875 c 0,4,5
 212.90625 75.0107421875 212.90625 75.0107421875 244.036132812 86.6513671875 c 0,6,7
 265.181640625 94.5576171875 265.181640625 94.5576171875 270.529296875 106.551757812 c 0,8,9
 288.407226562 151.826171875 288.407226562 151.826171875 300.0859375 185.616210938 c 128,-1,10
 311.764648438 219.405273438 311.764648438 219.405273438 318.16015625 237.099609375 c 0,11,12
 320.444335938 243.418945312 320.444335938 243.418945312 326.060546875 259.215820312 c 0,13,14
 331.858398438 274.840820312 331.858398438 274.840820312 341.15234375 274.840820312 c 0,15,16
 344.986328125 274.840820312 344.986328125 274.840820312 348.876953125 271.98046875 c 0,17,18
 359.872070312 263.900390625 359.872070312 263.900390625 363.51953125 247.815429688 c 2,19,20
 363.805664062 248.719726562 363.805664062 248.719726562 364.091796875 245.291015625 c 1,21,22
 344.03515625 183.3046875 344.03515625 183.3046875 336.98828125 136.057617188 c 0,23,24
 326.602539062 66.4248046875 326.602539062 66.4248046875 323.990234375 10.0947265625 c 0,25,26
 322.982421875 -11.625 322.982421875 -11.625 312.588867188 -11.625 c 0,27,28
 311.7265625 -11.625 311.7265625 -11.625 310.846679688 -11.4326171875 c 0,29,30
 288.807617188 -8.3701171875 288.807617188 -8.3701171875 255.8515625 1.328125 c 0,31,32
 221.470703125 11.0263671875 221.470703125 11.0263671875 169.25 14 c 0,33,34
 147.50390625 14 147.50390625 14 121.549804688 13.2607421875 c 0,35,36
 97.16015625 12.521484375 97.16015625 12.521484375 77.3076171875 12.5009765625 c 0,37,38
 75.5068359375 9.7158203125 75.5068359375 9.7158203125 73.1044921875 3.431640625 c 0,39,40
 67.75 -10.5712890625 67.75 -10.5712890625 61.5859375 -10.5712890625 c 0,41,42
 60.296875 -10.5712890625 60.296875 -10.5712890625 59.029296875 -9.95703125 c 0,43,44
 49.97265625 -9.390625 49.97265625 -9.390625 44.486328125 -1.595703125 c 128,-1,45
 39 6.19921875 39 6.19921875 39 28.091796875 c 0,46,47
 39 37.5576171875 39 37.5576171875 43.619140625 46.6552734375 c 0,48,49
 83.9638671875 133.638671875 83.9638671875 133.638671875 126.885742188 255.293945312 c 0,50,51
 166.416992188 358.732421875 166.416992188 358.732421875 187.908203125 449.02734375 c 0,52,53
 205.232421875 528.528320312 205.232421875 528.528320312 188.583984375 573.513671875 c 128,-1,54
 171.934570312 618.5 171.934570312 618.5 133.607421875 618.5 c 0,55,56
 110.998046875 618.5 110.998046875 618.5 98.708984375 606.208984375 c 128,-1,57
 86.41796875 593.918945312 86.41796875 593.918945312 79.33984375 577.639648438 c 128,-1,58
 72.26171875 561.361328125 72.26171875 561.361328125 67.9423828125 544.8671875 c 0,59,60
 61.1865234375 519.071289062 61.1865234375 519.071289062 50.517578125 519.071289062 c 0,61,62
 45.6181640625 519.071289062 45.6181640625 519.071289062 41.3984375 524.697265625 c 0,63,64
 35.25 532.895507812 35.25 532.895507812 35.25 546.5 c 0,65,66
 35.25 553.577148438 35.25 553.577148438 38.0673828125 566.458984375 c 128,-1,67
 40.8857421875 579.340820312 40.8857421875 579.340820312 45.474609375 590.8125 c 128,-1,68
 50.064453125 602.28515625 50.064453125 602.28515625 53.8359375 613.6015625 c 128,-1,69
 57.6083984375 624.918945312 57.6083984375 624.918945312 60.08984375 629.947265625 c 0,70,71
 75.421875 665.176757812 75.421875 665.176757812 89.1455078125 683.212890625 c 0,72,73
 113.583984375 715.33203125 113.583984375 715.33203125 141.940429688 718.962890625 c 0,74,75
 154.4453125 720.5 154.4453125 720.5 166.953125 720.5 c 0,76,77
 230.975585938 720.5 230.975585938 720.5 259.885742188 647.975585938 c 0,78,79
 276.818359375 604.462890625 276.818359375 604.462890625 276.818359375 543.8359375 c 0,80,81
 276.818359375 506.235351562 276.818359375 506.235351562 270.559570312 462.001953125 c 0,82,83
 262.90234375 406.727539062 262.90234375 406.727539062 225.329101562 311.659179688 c 0,84,85
 194.71484375 234.197265625 194.71484375 234.197265625 155.465820312 158.073242188 c 0,0,1
EndSplineSet
EndChar

StartChar: three
Encoding: 51 51 36
Width: 334
Flags: W
LayerCount: 2
Fore
SplineSet
31.29296875 585.400390625 m 4,0,1
 25.6884765625 592.125976562 25.6884765625 592.125976562 25.6884765625 602.375 c 4,2,3
 25.6884765625 617.276367188 25.6884765625 617.276367188 35.9453125 634.635742188 c 132,-1,4
 46.2041015625 651.99609375 46.2041015625 651.99609375 62.248046875 667.126953125 c 132,-1,5
 78.166015625 682.138671875 78.166015625 682.138671875 97.7236328125 692.569335938 c 132,-1,6
 117.28125 703 117.28125 703 138.75 703 c 132,-1,7
 160.298828125 703 160.298828125 703 180.969726562 696.69140625 c 132,-1,8
 201.641601562 690.506835938 201.641601562 690.506835938 217.380859375 675.8984375 c 4,9,10
 249.9921875 643.637695312 249.9921875 643.637695312 249.9921875 582.770507812 c 4,11,12
 249.9921875 559.375976562 249.9921875 559.375976562 239.049804688 532.299804688 c 4,13,14
 218.1640625 480.618164062 218.1640625 480.618164062 177.200195312 433.3828125 c 4,15,16
 168.681640625 423.838867188 168.681640625 423.838867188 161.3828125 416.61328125 c 5,17,18
 189.241210938 416.537109375 189.241210938 416.537109375 212.681640625 407.91015625 c 4,19,20
 241.30859375 396.119140625 241.30859375 396.119140625 261.010742188 371.392578125 c 132,-1,21
 280.646484375 346.750976562 280.646484375 346.750976562 291.221679688 311.931640625 c 132,-1,22
 301.7421875 277.295898438 301.7421875 277.295898438 301.7421875 237.6484375 c 4,23,24
 301.7421875 178.7890625 301.7421875 178.7890625 277.866210938 125.426757812 c 132,-1,25
 253.991210938 72.0654296875 253.991210938 72.0654296875 218.008789062 32.0322265625 c 4,26,27
 178.243164062 -7.935546875 178.243164062 -7.935546875 128.921875 -31.4638671875 c 4,28,29
 84.2919921875 -54.9921875 84.2919921875 -54.9921875 42.72265625 -55.9990234375 c 5,30,-1
 42.6171875 -55.9990234375 l 6,31,32
 35.22265625 -55.9990234375 35.22265625 -55.9990234375 32.138671875 -50.2421875 c 132,-1,33
 29.0546875 -44.5986328125 29.0546875 -44.5986328125 29.0546875 -38.3642578125 c 4,34,35
 29.0546875 -30.3154296875 29.0546875 -30.3154296875 32.34375 -24.2958984375 c 132,-1,36
 35.6328125 -18.2763671875 35.6328125 -18.2763671875 40.962890625 -17.7041015625 c 4,37,38
 75.390625 -5.1826171875 75.390625 -5.1826171875 106.903320312 14.9326171875 c 4,39,40
 180.0703125 56.7646484375 180.0703125 56.7646484375 210.845703125 126.819335938 c 4,41,42
 224.4921875 162.021484375 224.4921875 162.021484375 224.4921875 206.336914062 c 4,43,44
 224.4921875 255.37109375 224.4921875 255.37109375 204.08203125 295.495117188 c 4,45,46
 193.198242188 314.979492188 193.198242188 314.979492188 177.084960938 328.423828125 c 4,47,48
 161.139648438 341.948242188 161.139648438 341.948242188 142.3203125 346.256835938 c 4,49,50
 114.21875 352.807617188 114.21875 352.807617188 101.4375 352.807617188 c 4,51,52
 89.654296875 352.807617188 89.654296875 352.807617188 75.578125 344.102539062 c 4,53,54
 70.8955078125 341.426757812 70.8955078125 341.426757812 61.0380859375 331.963867188 c 132,-1,55
 51.1796875 322.5 51.1796875 322.5 44.8671875 322.5 c 4,56,57
 35.6064453125 322.5 35.6064453125 322.5 31.1552734375 331.198242188 c 4,58,59
 27.9921875 337.379882812 27.9921875 337.379882812 27.9921875 347.413085938 c 4,60,61
 27.9921875 360.883789062 27.9921875 360.883789062 41.7529296875 369.20703125 c 4,62,63
 52.126953125 375.48046875 52.126953125 375.48046875 56.5634765625 378.368164062 c 4,64,65
 73.375 389.801757812 73.375 389.801757812 93.2197265625 409.4296875 c 132,-1,66
 113.1171875 429.108398438 113.1171875 429.108398438 132.51953125 452.997070312 c 4,67,68
 152.5859375 476.884765625 152.5859375 476.884765625 165.645507812 503.005859375 c 132,-1,69
 178.705078125 529.125976562 178.705078125 529.125976562 178.705078125 554.536132812 c 4,70,71
 178.705078125 599.2421875 178.705078125 599.2421875 159.271484375 620.12109375 c 132,-1,72
 139.8359375 641 139.8359375 641 114.887695312 641 c 4,73,74
 92.6357421875 641 92.6357421875 641 78.5625 625.51953125 c 132,-1,75
 64.490234375 610.0390625 64.490234375 610.0390625 46.673828125 584.3046875 c 4,76,77
 43.533203125 580.1171875 43.533203125 580.1171875 39.626953125 580.1171875 c 132,-1,78
 35.6953125 580.1171875 35.6953125 580.1171875 31.29296875 585.400390625 c 4,0,1
EndSplineSet
EndChar

StartChar: four
Encoding: 52 52 37
Width: 465
Flags: W
LayerCount: 2
Fore
SplineSet
256.78515625 325 m 6,0,-1
 256.78515625 383 l 5,1,-1
 256.001953125 539 l 5,2,-1
 256.001953125 593.62890625 l 5,3,4
 229.057617188 548.376953125 229.057617188 548.376953125 191.447265625 488.453125 c 132,-1,5
 153.838867188 428.529296875 153.838867188 428.529296875 110.899414062 350.764648438 c 4,6,7
 106.01953125 341.431640625 106.01953125 341.431640625 98.3154296875 329.342773438 c 132,-1,8
 90.6435546875 317.254882812 90.6435546875 317.254882812 90.6435546875 309 c 4,9,10
 90.6435546875 306.079101562 90.6435546875 306.079101562 92.7294921875 304.966796875 c 4,11,12
 97.3544921875 302.5 97.3544921875 302.5 102.7578125 302.5 c 132,-1,13
 108.290039062 302.5 108.290039062 302.5 129.018554688 303.499023438 c 132,-1,14
 149.748046875 304.498046875 149.748046875 304.498046875 173.293945312 304.999023438 c 132,-1,15
 196.712890625 305.497070312 196.712890625 305.497070312 215.920898438 306.499023438 c 132,-1,16
 235.129882812 307.5 235.129882812 307.5 243.4140625 307.5 c 132,-1,17
 251.69921875 307.5 251.69921875 307.5 254.3828125 310.436523438 c 4,18,19
 256.78515625 314.498046875 256.78515625 314.498046875 256.78515625 325 c 6,0,-1
341.880859375 304.5 m 6,20,-1
 379.768554688 304.5 l 5,21,-1
 432.268554688 305.5 l 6,22,23
 445.017578125 305.5 445.017578125 305.5 454.521484375 293.430664062 c 132,-1,24
 464.143554688 281.211914062 464.143554688 281.211914062 464.143554688 264 c 4,25,26
 464.143554688 251.592773438 464.143554688 251.592773438 459.654296875 244.110351562 c 4,27,28
 453.887695312 234.5 453.887695312 234.5 443.33984375 234.5 c 132,-1,29
 432.791015625 234.5 432.791015625 234.5 423.416015625 235.5 c 132,-1,30
 414.041015625 236.5 414.041015625 236.5 404.518554688 236.5 c 6,31,-1
 389.518554688 236.5 l 5,32,-1
 358.235351562 237.125 l 6,33,34
 340.0703125 237.125 340.0703125 237.125 334.537109375 231.388671875 c 4,35,36
 331.955078125 228.712890625 331.955078125 228.712890625 331.955078125 221.41796875 c 6,37,38
 331.955078125 125.0390625 331.955078125 125.0390625 331.955078125 22.7001953125 c 6,39,40
 331.955078125 14.447265625 331.955078125 14.447265625 331.486328125 9.771484375 c 132,-1,41
 331.015625 5.095703125 331.015625 5.095703125 331.015625 2.29296875 c 132,-1,42
 331.015625 -0.5107421875 331.015625 -0.5107421875 333.697265625 -7.1826171875 c 5,43,44
 333.586914062 -1.9287109375 333.586914062 -1.9287109375 333.475585938 -9.384765625 c 6,45,46
 331.501953125 -29.029296875 331.501953125 -29.029296875 316.358398438 -37.537109375 c 4,47,48
 303.075195312 -45 303.075195312 -45 289.334960938 -45 c 132,-1,49
 275.594726562 -45 275.594726562 -45 265.918945312 -39.9453125 c 4,50,51
 253.653320312 -33.705078125 253.653320312 -33.705078125 253.653320312 -22.958984375 c 6,52,53
 253.672851562 -15.68359375 253.672851562 -15.68359375 253.693359375 -22.09765625 c 6,54,55
 256.001953125 2.302734375 256.001953125 2.302734375 256.001953125 75.384765625 c 6,56,57
 256.001953125 123.741210938 256.001953125 123.741210938 256.001953125 165.939453125 c 5,58,59
 256.393554688 184.419921875 256.393554688 184.419921875 256.78515625 200.018554688 c 6,60,61
 256.78515625 218.907226562 256.78515625 218.907226562 252.173828125 226.170898438 c 132,-1,62
 247.48046875 233.563476562 247.48046875 233.563476562 241.588867188 235.657226562 c 132,-1,63
 235.697265625 237.75 235.697265625 237.75 229.256835938 237.75 c 6,64,-1
 205.497070312 236.5 l 6,65,66
 160.288085938 236.5 160.288085938 236.5 116.046875 232.5 c 4,67,68
 73.216796875 228.5 73.216796875 228.5 29.5185546875 228.5 c 4,69,70
 20.130859375 228.5 20.130859375 228.5 15.1689453125 240.806640625 c 4,71,72
 13.072265625 246.005859375 13.072265625 246.005859375 13.072265625 252.331054688 c 132,-1,73
 13.072265625 258.657226562 13.072265625 258.657226562 16.5849609375 265.57421875 c 4,74,75
 35.9287109375 303.66796875 35.9287109375 303.66796875 72.607421875 369.240234375 c 6,76,77
 90.79296875 399.069335938 90.79296875 399.069335938 109.143554688 434.21875 c 6,78,79
 167.025390625 533.54296875 167.025390625 533.54296875 181.583984375 557.798828125 c 132,-1,80
 196.141601562 582.055664062 196.141601562 582.055664062 206.37890625 597.90234375 c 4,81,82
 222.431640625 623.862304688 222.431640625 623.862304688 230.38671875 643.870117188 c 4,83,84
 240.776367188 669.99609375 240.776367188 669.99609375 253.145507812 693.049804688 c 4,85,86
 259.826171875 705.051757812 259.826171875 705.051757812 272.182617188 709.491210938 c 132,-1,87
 284.5390625 714 284.5390625 714 297 714 c 132,-1,88
 309.459960938 714 309.459960938 714 319.177734375 707.794921875 c 132,-1,89
 328.89453125 701.704101562 328.89453125 701.704101562 328.89453125 690.255859375 c 4,90,91
 328.89453125 685.32421875 328.89453125 685.32421875 329.642578125 675.484375 c 132,-1,92
 330.389648438 665.64453125 330.389648438 665.64453125 330.389648438 629.947265625 c 6,93,94
 330.389648438 467.8671875 330.389648438 467.8671875 330.389648438 311.86328125 c 6,95,96
 330.389648438 305.184570312 330.389648438 305.184570312 341.880859375 304.5 c 6,20,-1
EndSplineSet
EndChar

StartChar: five
Encoding: 53 53 38
Width: 396
Flags: W
LayerCount: 2
Fore
SplineSet
110.38671875 709.359375 m 4,0,1
 115.571289062 709.853515625 115.571289062 709.853515625 124.36328125 710.016601562 c 6,2,3
 162.341796875 703.91796875 162.341796875 703.91796875 200.38671875 708.627929688 c 6,4,5
 246.549804688 708.627929688 246.549804688 708.627929688 285.75 712 c 5,6,7
 304.509765625 750.013671875 304.509765625 750.013671875 323.270507812 800.668945312 c 6,8,9
 327.423828125 809.275390625 327.423828125 809.275390625 334.548828125 809.275390625 c 4,10,11
 337.71875 809.275390625 337.71875 809.275390625 350.852539062 802.270507812 c 5,12,13
 355.008789062 796.838867188 355.008789062 796.838867188 355.008789062 788.004882812 c 4,14,15
 355.008789062 778.217773438 355.008789062 778.217773438 351.818359375 762.13671875 c 132,-1,16
 348.62890625 746.056640625 348.62890625 746.056640625 344.904296875 728.526367188 c 132,-1,17
 341.177734375 710.99609375 341.177734375 710.99609375 338.16796875 690.3359375 c 5,18,19
 335.7890625 679.971679688 335.7890625 679.971679688 332.65234375 668.696289062 c 132,-1,20
 329.515625 657.421875 329.515625 657.421875 324.076171875 646.484375 c 132,-1,21
 318.63671875 635.545898438 318.63671875 635.545898438 309.133789062 628.770507812 c 132,-1,22
 299.630859375 621.995117188 299.630859375 621.995117188 286.196289062 621.995117188 c 6,23,-1
 203.2109375 621.995117188 l 6,24,25
 177.564453125 621.995117188 177.564453125 621.995117188 157.813476562 620.583984375 c 132,-1,26
 138.0625 619.172851562 138.0625 619.172851562 135.295898438 617.15625 c 6,27,28
 134.580078125 612.9375 134.580078125 612.9375 133.865234375 616.11328125 c 5,29,30
 133.060546875 612.399414062 133.060546875 612.399414062 132.255859375 616.05859375 c 5,31,32
 128.998046875 613.8359375 128.998046875 613.8359375 123.498046875 597.337890625 c 4,33,34
 116.66796875 575.80859375 116.66796875 575.80859375 101.87109375 505.350585938 c 4,35,36
 99.830078125 495.634765625 99.830078125 495.634765625 97.990234375 488.438476562 c 5,37,38
 103.203125 492.288085938 103.203125 492.288085938 108.857421875 496.8828125 c 4,39,40
 140.895507812 522.013671875 140.895507812 522.013671875 187.876953125 533.620117188 c 4,41,42
 200.376953125 536.708007812 200.376953125 536.708007812 214.409179688 536.708007812 c 132,-1,43
 228.318359375 536.708007812 228.318359375 536.708007812 243.694335938 533.6796875 c 4,44,45
 281.255859375 526.583007812 281.255859375 526.583007812 307.209960938 505.173828125 c 4,46,47
 359.04296875 462.060546875 359.04296875 462.060546875 372.3203125 381.41015625 c 4,48,49
 376.459960938 356.265625 376.459960938 356.265625 376.459960938 334.911132812 c 132,-1,50
 376.459960938 313.556640625 376.459960938 313.556640625 375.033203125 297.147460938 c 4,51,52
 368.874023438 227.7109375 368.874023438 227.7109375 338.959960938 170.564453125 c 132,-1,53
 309.045898438 113.41796875 309.045898438 113.41796875 264.947265625 72.52734375 c 4,54,55
 246.771484375 55.96875 246.771484375 55.96875 237.916015625 55.375 c 4,56,57
 227.697265625 55.375 227.697265625 55.375 215.475585938 74.734375 c 4,58,59
 211.24609375 80.84375 211.24609375 80.84375 216.4921875 89.6015625 c 4,60,61
 218.950195312 93.703125 218.950195312 93.703125 226.630859375 102.31640625 c 132,-1,62
 234.311523438 110.928710938 234.311523438 110.928710938 248.908203125 132.497070312 c 132,-1,63
 263.505859375 154.065429688 263.505859375 154.065429688 277.654296875 187.009765625 c 4,64,65
 291.272460938 219.954101562 291.272460938 219.954101562 297.12890625 266.758789062 c 4,66,67
 299.911132812 306.776367188 299.911132812 306.776367188 299.93359375 316.763671875 c 132,-1,68
 299.955078125 326.75 299.955078125 326.75 299.703125 333.467773438 c 4,69,70
 298.63671875 361.833007812 298.63671875 361.833007812 290.536132812 383.009765625 c 132,-1,71
 282.330078125 404.102539062 282.330078125 404.102539062 265.444335938 420.419921875 c 132,-1,72
 248.55859375 436.73828125 248.55859375 436.73828125 220.337890625 451.03515625 c 4,73,74
 211.087890625 455.318359375 211.087890625 455.318359375 193.8671875 453.922851562 c 132,-1,75
 176.645507812 452.528320312 176.645507812 452.528320312 157.326171875 447.259765625 c 132,-1,76
 138.021484375 441.995117188 138.021484375 441.995117188 120.657226562 433.387695312 c 4,77,78
 104.228515625 424.795898438 104.228515625 424.795898438 94.42578125 416.91015625 c 5,79,80
 89.66796875 414.577148438 89.66796875 414.577148438 86.69921875 408.541015625 c 132,-1,81
 83.7314453125 402.504882812 83.7314453125 402.504882812 78.9111328125 395.05859375 c 132,-1,82
 74.0908203125 387.611328125 74.0908203125 387.611328125 65.25390625 384.571289062 c 4,83,84
 62.45703125 383.609375 62.45703125 383.609375 57.37890625 383.609375 c 132,-1,85
 52.3017578125 383.609375 52.3017578125 383.609375 42.625 388.668945312 c 5,86,87
 33.0712890625 398.383789062 33.0712890625 398.383789062 33.0712890625 412.764648438 c 4,88,89
 33.0712890625 431.506835938 33.0712890625 431.506835938 40.46875 447.28515625 c 132,-1,90
 47.8662109375 463.063476562 47.8662109375 463.063476562 49.916015625 470.2109375 c 4,91,92
 66.548828125 529.23046875 66.548828125 529.23046875 75.02734375 568.026367188 c 4,93,94
 93.6923828125 653.4296875 93.6923828125 653.4296875 96.0947265625 687.974609375 c 4,95,96
 96.6640625 693.109375 96.6640625 693.109375 98.720703125 699.833984375 c 4,97,98
 101.568359375 709.13671875 101.568359375 709.13671875 110.38671875 709.359375 c 4,0,1
EndSplineSet
EndChar

StartChar: six
Encoding: 54 54 39
Width: 461
Flags: W
LayerCount: 2
Fore
SplineSet
330.344726562 432.649414062 m 0,0,1
 358.489257812 416.751953125 358.489257812 416.751953125 378.072265625 387.975585938 c 128,-1,2
 397.581054688 359.307617188 397.581054688 359.307617188 407.666015625 320.633789062 c 128,-1,3
 417.75 281.959960938 417.75 281.959960938 417.75 235.434570312 c 128,-1,4
 417.75 188.909179688 417.75 188.909179688 405.419921875 143.91796875 c 128,-1,5
 393.072265625 98.861328125 393.072265625 98.861328125 370.276367188 63.8837890625 c 128,-1,6
 347.40625 28.79296875 347.40625 28.79296875 315.01953125 8.14453125 c 0,7,8
 281.270507812 -12.50390625 281.270507812 -12.50390625 240.444335938 -12.75 c 128,-1,9
 199.6171875 -12.9951171875 199.6171875 -12.9951171875 159.412109375 7.2119140625 c 0,10,11
 126.948242188 24.4375 126.948242188 24.4375 105.184570312 52.4013671875 c 128,-1,12
 83.55859375 80.1884765625 83.55859375 80.1884765625 69.650390625 114.559570312 c 0,13,14
 42 182.887695312 42 182.887695312 42 266.377929688 c 128,-1,15
 42 349.8671875 42 349.8671875 62.1787109375 423.087890625 c 128,-1,16
 82.357421875 496.30859375 82.357421875 496.30859375 117.341796875 558.495117188 c 0,17,18
 153.41015625 620.595703125 153.41015625 620.595703125 203.024414062 669.76953125 c 0,19,20
 263.749023438 729.954101562 263.749023438 729.954101562 329.7890625 762.612304688 c 0,21,22
 341.795898438 768.895507812 341.795898438 768.895507812 352.694335938 770.19140625 c 1,23,24
 358.38671875 765.740234375 358.38671875 765.740234375 364.068359375 759.571289062 c 128,-1,25
 369.75 753.40234375 369.75 753.40234375 369.75 744.080078125 c 128,-1,26
 369.75 734.7578125 369.75 734.7578125 362.4921875 727.07421875 c 0,27,28
 349.131835938 712.9296875 349.131835938 712.9296875 321.36328125 698.421875 c 1,29,30
 297.798828125 681.358398438 297.798828125 681.358398438 271.599609375 653.51171875 c 0,31,32
 218.21875 597.673828125 218.21875 597.673828125 184.077148438 524.040039062 c 0,33,34
 154.424804688 459.426757812 154.424804688 459.426757812 139.844726562 387.131835938 c 1,35,36
 200.774414062 448.5 200.774414062 448.5 264.537109375 448.5 c 0,37,38
 300.83203125 448.5 300.83203125 448.5 330.344726562 432.649414062 c 0,0,1
173.28515625 361.114257812 m 128,-1,40
 143.227539062 334.729492188 143.227539062 334.729492188 129.5546875 312.705078125 c 1,41,42
 128.159179688 295.329101562 128.159179688 295.329101562 127.080078125 280.764648438 c 128,-1,43
 126 266.19921875 126 266.19921875 126 239.751953125 c 128,-1,44
 126 213.3046875 126 213.3046875 130.771484375 175.442382812 c 128,-1,45
 135.629882812 137.581054688 135.629882812 137.581054688 148.282226562 105.540039062 c 128,-1,46
 160.93359375 73.5 160.93359375 73.5 182.279296875 53.25 c 128,-1,47
 203.625 33 203.625 33 236.6484375 33 c 0,48,49
 265.01953125 33 265.01953125 33 284.419921875 49.96484375 c 128,-1,50
 303.8203125 66.9306640625 303.8203125 66.9306640625 316.407226562 94.1171875 c 0,51,52
 328.793945312 121.3046875 328.793945312 121.3046875 333.897460938 153.668945312 c 128,-1,53
 339 186.032226562 339 186.032226562 339 217.5234375 c 128,-1,54
 339 249.014648438 339 249.014648438 333.1953125 279.805664062 c 128,-1,55
 327.390625 310.59765625 327.390625 310.59765625 314.62890625 334.794921875 c 128,-1,56
 301.754882812 358.993164062 301.754882812 358.993164062 281.489257812 373.291015625 c 128,-1,57
 261.349609375 387.5 261.349609375 387.5 232.346679688 387.5 c 128,-1,39
 203.342773438 387.5 203.342773438 387.5 173.28515625 361.114257812 c 128,-1,40
EndSplineSet
EndChar

StartChar: seven
Encoding: 55 55 40
Width: 393
Flags: W
LayerCount: 2
Fore
SplineSet
83.791015625 762.568359375 m 6,0,1
 83.298828125 750.325195312 83.298828125 750.325195312 83.298828125 739.391601562 c 6,2,3
 83.423828125 722.259765625 83.423828125 722.259765625 83.548828125 718.004882812 c 6,4,5
 83.548828125 710.771484375 83.548828125 710.771484375 83.32421875 703.356445312 c 5,6,7
 95.41015625 696.984375 95.41015625 696.984375 107.495117188 702.565429688 c 5,8,-1
 205.686523438 702.565429688 l 6,9,10
 223.115234375 702.565429688 223.115234375 702.565429688 238.946289062 703.538085938 c 6,11,12
 239.005859375 697.553710938 239.005859375 697.553710938 239.065429688 703.543945312 c 6,13,14
 265.390625 704.524414062 265.390625 704.524414062 291.75 706 c 4,15,16
 316.54296875 707.475585938 316.54296875 707.475585938 341.423828125 707.475585938 c 6,17,-1
 351.173828125 707.475585938 l 6,18,19
 360.33984375 707.475585938 360.33984375 707.475585938 370.201171875 703.170898438 c 4,20,21
 383.048828125 697.563476562 383.048828125 697.563476562 383.048828125 681.451171875 c 4,22,23
 383.048828125 672.462890625 383.048828125 672.462890625 367.109375 629.620117188 c 4,24,25
 360.037109375 610.61328125 360.037109375 610.61328125 352.53125 588.0078125 c 132,-1,26
 345.025390625 565.403320312 345.025390625 565.403320312 337.139648438 544.75390625 c 132,-1,27
 329.25390625 524.103515625 329.25390625 524.103515625 323.672851562 508.0234375 c 132,-1,28
 318.0625 491.86328125 318.0625 491.86328125 315.7578125 485.8125 c 4,29,30
 268.65625 353.279296875 268.65625 353.279296875 220.259765625 224.006835938 c 132,-1,31
 171.86328125 94.7333984375 171.86328125 94.7333984375 112.568359375 -32.2919921875 c 4,32,33
 108.610351562 -40.40234375 108.610351562 -40.40234375 100.233398438 -40.40234375 c 4,34,35
 92.7841796875 -40.40234375 92.7841796875 -40.40234375 84.791015625 -35.38671875 c 132,-1,36
 76.7978515625 -30.4619140625 76.7978515625 -30.4619140625 72.583984375 -23.2890625 c 132,-1,37
 68.3701171875 -16.1162109375 68.3701171875 -16.1162109375 68.3701171875 -11.48828125 c 4,38,39
 68.3701171875 -6.59375 68.3701171875 -6.59375 69.3662109375 -3.65234375 c 6,40,41
 105.74609375 98.865234375 105.74609375 98.865234375 144.37109375 191.302734375 c 5,42,43
 183.51171875 290.2578125 183.51171875 290.2578125 222.65234375 386.149414062 c 5,44,45
 241.6171875 435.315429688 241.6171875 435.315429688 260.583007812 486.733398438 c 6,46,47
 279.180664062 535.84375 279.180664062 535.84375 295.509765625 586.408203125 c 5,48,49
 297.548828125 599.752929688 297.548828125 599.752929688 297.548828125 603.73046875 c 132,-1,50
 297.548828125 607.708984375 297.548828125 607.708984375 294.56640625 608.490234375 c 4,51,52
 287.397460938 610.310546875 287.397460938 610.310546875 282.40234375 610.310546875 c 6,53,-1
 38.423828125 610.310546875 l 6,54,55
 30.8115234375 610.310546875 30.8115234375 610.310546875 23.99609375 613.099609375 c 4,56,57
 15.6845703125 616.5 15.6845703125 616.5 15.6845703125 626.55859375 c 4,58,59
 15.6845703125 629.63671875 15.6845703125 629.63671875 19.5009765625 643.447265625 c 4,60,61
 24.912109375 663.032226562 24.912109375 663.032226562 34.2470703125 706.828125 c 132,-1,62
 43.5810546875 750.624023438 43.5810546875 750.624023438 47.810546875 764.719726562 c 4,63,64
 53.3388671875 783.143554688 53.3388671875 783.143554688 61.673828125 783.143554688 c 4,65,66
 66.2373046875 783.143554688 66.2373046875 783.143554688 73.38671875 780.33984375 c 4,67,68
 83.798828125 776.330078125 83.798828125 776.330078125 83.798828125 762.9609375 c 6,69,70
 83.794921875 755.71484375 83.794921875 755.71484375 83.791015625 762.568359375 c 6,0,1
EndSplineSet
EndChar

StartChar: eight
Encoding: 56 56 41
Width: 402
Flags: W
LayerCount: 2
Fore
SplineSet
326.137695312 45.5595703125 m 128,-1,1
 305.06640625 17.5126953125 305.06640625 17.5126953125 276.060546875 2.2373046875 c 0,2,3
 244.959960938 -13 244.959960938 -13 211.185546875 -13 c 128,-1,4
 177.41015625 -13 177.41015625 -13 145.328125 -4.439453125 c 0,5,6
 114.41796875 4.1201171875 114.41796875 4.1201171875 90.9296875 24.0732421875 c 128,-1,7
 67.44140625 44.025390625 67.44140625 44.025390625 52.515625 77.390625 c 0,8,9
 36.685546875 112.776367188 36.685546875 112.776367188 36.6845703125 164.426757812 c 0,10,11
 36.6845703125 220.291015625 36.6845703125 220.291015625 66.48046875 268.96484375 c 0,12,13
 91.533203125 309.890625 91.533203125 309.890625 139.892578125 343.765625 c 0,14,15
 142.751953125 345.650390625 142.751953125 345.650390625 147.068359375 348.49609375 c 1,16,17
 146.55078125 348.921875 146.55078125 348.921875 143.916992188 350.947265625 c 128,-1,18
 141.283203125 352.97265625 141.283203125 352.97265625 136.978515625 358.05859375 c 0,19,20
 93.76953125 392.967773438 93.76953125 392.967773438 70.3525390625 428.669921875 c 0,21,22
 56.3857421875 449.965820312 56.3857421875 449.965820312 46.9638671875 475.104492188 c 0,23,24
 36.7080078125 502.465820312 36.7080078125 502.465820312 36.7080078125 540.817382812 c 128,-1,25
 36.7080078125 579.16796875 36.7080078125 579.16796875 49.6337890625 613.944335938 c 128,-1,26
 62.55859375 648.721679688 62.55859375 648.721679688 84.79296875 674.209960938 c 128,-1,27
 106.98046875 699.64453125 106.98046875 699.64453125 137.115234375 713.346679688 c 0,28,29
 168.916992188 727 168.916992188 727 201.508789062 727 c 128,-1,30
 234.1015625 727 234.1015625 727 264.223632812 716.381835938 c 0,31,32
 323.6953125 694.120117188 323.6953125 694.120117188 351.012695312 631.645507812 c 0,33,34
 366.0546875 597.244140625 366.0546875 597.244140625 366.055664062 552.608398438 c 0,35,36
 366.055664062 488.05859375 366.055664062 488.05859375 330.501953125 443.809570312 c 0,37,38
 314.271484375 423.607421875 314.271484375 423.607421875 295.31640625 409.1953125 c 0,39,40
 276.198242188 394.783203125 276.198242188 394.783203125 257.340820312 383.356445312 c 1,41,42
 258.250976562 382.723632812 258.250976562 382.723632812 261.80078125 380.435546875 c 0,43,44
 286.55078125 364.0546875 286.55078125 364.0546875 306.015625 342.48828125 c 0,45,46
 343.858398438 300.55859375 343.858398438 300.55859375 361.413085938 247.6953125 c 0,47,48
 370.544921875 220.194335938 370.544921875 220.194335938 370.544921875 182.384765625 c 128,-1,49
 370.544921875 144.575195312 370.544921875 144.575195312 358.836914062 109.037109375 c 128,-1,0
 347.12890625 73.4990234375 347.12890625 73.4990234375 326.137695312 45.5595703125 c 128,-1,1
124.375 271.791992188 m 0,50,51
 105.6484375 231.38671875 105.6484375 231.38671875 105.6484375 184.647460938 c 0,52,53
 105.6484375 153.11328125 105.6484375 153.11328125 110.754882812 124.830078125 c 0,54,55
 120.895507812 68.6650390625 120.895507812 68.6650390625 152.78125 44.9619140625 c 0,56,57
 169.19921875 33 169.19921875 33 193.48828125 33 c 0,58,59
 209.271484375 33 209.271484375 33 222.796875 35.3828125 c 128,-1,60
 236.322265625 37.7646484375 236.322265625 37.7646484375 250.904296875 46.2822265625 c 0,61,62
 278.099609375 62.1162109375 278.099609375 62.1162109375 288.137695312 91.1298828125 c 0,63,64
 297.181640625 117.327148438 297.181640625 117.327148438 297.181640625 149.155273438 c 0,65,66
 297.181640625 153.572265625 297.181640625 153.572265625 297.0078125 158.110351562 c 2,67,68
 297.004882812 165.69921875 297.004882812 165.69921875 297.001953125 158.288085938 c 2,69,70
 295.673828125 222.036132812 295.673828125 222.036132812 261.671875 267.826171875 c 0,71,72
 233.62890625 304.08984375 233.62890625 304.08984375 181.282226562 330.4296875 c 1,73,74
 144.262695312 312.197265625 144.262695312 312.197265625 124.375 271.791992188 c 0,50,51
238.446289062 672.654296875 m 128,-1,76
 219.7578125 683 219.7578125 683 195.920898438 683 c 0,77,78
 154.7734375 683 154.7734375 683 129.333984375 649.291992188 c 0,79,80
 105.771484375 615.583984375 105.771484375 615.583984375 105.75 563.598632812 c 0,81,82
 106.477539062 526.944335938 106.477539062 526.944335938 124.205078125 493.852539062 c 0,83,84
 130.001953125 483.384765625 130.001953125 483.384765625 141.829101562 468.802734375 c 0,85,86
 169.004882812 435.29296875 169.004882812 435.29296875 196.545898438 415.483398438 c 0,87,88
 209.401367188 406.237304688 209.401367188 406.237304688 219.47265625 402.321289062 c 1,89,90
 237.452148438 408.9609375 237.452148438 408.9609375 252.0859375 424.229492188 c 128,-1,91
 266.719726562 439.497070312 266.719726562 439.497070312 277.173828125 459.547851562 c 0,92,93
 286.942382812 479.619140625 286.942382812 479.619140625 291.96484375 503.061523438 c 128,-1,94
 296.985351562 526.48828125 296.985351562 526.48828125 297 549.368164062 c 0,95,96
 296.26953125 577.038085938 296.26953125 577.038085938 289.123046875 601.811523438 c 128,-1,97
 281.9765625 626.583984375 281.9765625 626.583984375 269.680664062 644.458007812 c 0,98,75
 257.091796875 662.33203125 257.091796875 662.33203125 238.446289062 672.654296875 c 128,-1,76
EndSplineSet
EndChar

StartChar: nine
Encoding: 57 57 42
Width: 461
Flags: W
LayerCount: 2
Fore
SplineSet
229.075195312 318.5 m 128,-1,1
 257.409179688 318.5 257.409179688 318.5 289.7265625 346.081054688 c 0,2,3
 303.713867188 358.018554688 303.713867188 358.018554688 314.890625 370.83984375 c 128,-1,4
 326.068359375 383.66015625 326.068359375 383.66015625 332.458007812 393.456054688 c 1,5,6
 333.845703125 410.737304688 333.845703125 410.737304688 334.923828125 425.268554688 c 128,-1,7
 336 439.80078125 336 439.80078125 336 466.248046875 c 128,-1,8
 336 492.6953125 336 492.6953125 331.228515625 530.557617188 c 128,-1,9
 326.416992188 568.418945312 326.416992188 568.418945312 313.764648438 600.459960938 c 128,-1,10
 301.11328125 632.5 301.11328125 632.5 279.767578125 652.75 c 128,-1,11
 258.421875 673 258.421875 673 225.3984375 673 c 0,12,13
 197.02734375 673 197.02734375 673 177.6171875 656.026367188 c 128,-1,14
 158.20703125 639.052734375 158.20703125 639.052734375 145.619140625 612.33203125 c 0,15,16
 133.185546875 585.611328125 133.185546875 585.611328125 127.71875 552.768554688 c 128,-1,17
 122.25 519.926757812 122.25 519.926757812 122.25 488.483398438 c 128,-1,18
 122.25 457.0390625 122.25 457.0390625 128.416015625 426.259765625 c 0,19,20
 141.752929688 361.459960938 141.752929688 361.459960938 180.62890625 333.147460938 c 0,21,0
 200.741210938 318.5 200.741210938 318.5 229.075195312 318.5 c 128,-1,1
286.8984375 192.388671875 m 0,22,23
 307.966796875 249.172851562 307.966796875 249.172851562 322.025390625 319.494140625 c 1,24,25
 261.809570312 257.5 261.809570312 257.5 197.509765625 257.5 c 0,26,27
 160.366210938 257.5 160.366210938 257.5 131.193359375 273.892578125 c 0,28,29
 75.17578125 307.018554688 75.17578125 307.018554688 53.9482421875 385.416992188 c 0,30,31
 43.5 424.002929688 43.5 424.002929688 43.5 470.571289062 c 128,-1,32
 43.5 517.139648438 43.5 517.139648438 56.2236328125 562.1640625 c 128,-1,33
 68.9306640625 607.126953125 68.9306640625 607.126953125 91.3671875 642.654296875 c 128,-1,34
 113.802734375 678.182617188 113.802734375 678.182617188 146.236328125 699.052734375 c 0,35,36
 180.162109375 720 180.162109375 720 221.323242188 720 c 128,-1,37
 262.484375 720 262.484375 720 302.634765625 698.834960938 c 0,38,39
 335.051757812 681.62890625 335.051757812 681.62890625 356.815429688 653.6953125 c 0,40,41
 399.340820312 599.115234375 399.340820312 599.115234375 412.749023438 517.688476562 c 0,42,43
 419.25 478.209960938 419.25 478.209960938 419.25 437.23828125 c 0,44,45
 419.25 356.66796875 419.25 356.66796875 401.720703125 286.947265625 c 128,-1,46
 384.223632812 217.358398438 384.223632812 217.358398438 354.901367188 161.125 c 128,-1,47
 325.466796875 104.857421875 325.466796875 104.857421875 284.147460938 63.501953125 c 128,-1,48
 242.860351562 22.177734375 242.860351562 22.177734375 198.259765625 0.2041015625 c 0,49,50
 189.486328125 -4.69921875 189.486328125 -4.69921875 177.115234375 -11.29296875 c 128,-1,51
 164.744140625 -17.88671875 164.744140625 -17.88671875 153.080078125 -19.19140625 c 1,52,53
 146.909179688 -14.6669921875 146.909179688 -14.6669921875 140.93359375 -7.974609375 c 128,-1,54
 135 -1.283203125 135 -1.283203125 135 8.7431640625 c 0,55,56
 135 13.1962890625 135 13.1962890625 138.318359375 17.0546875 c 128,-1,57
 141.677734375 20.9130859375 141.677734375 20.9130859375 149.690429688 27.1787109375 c 0,58,59
 164.72265625 38.935546875 164.72265625 38.935546875 186.927734375 55.0439453125 c 128,-1,60
 209.131835938 71.15234375 209.131835938 71.15234375 215.107421875 77.541015625 c 0,61,62
 262.735351562 128.103515625 262.735351562 128.103515625 286.8984375 192.388671875 c 0,22,23
EndSplineSet
EndChar

StartChar: colon
Encoding: 58 58 43
Width: 197
Flags: W
LayerCount: 2
Fore
SplineSet
53.345703125 457.23046875 m 0,0,1
 68.8779296875 478.5 68.8779296875 478.5 90.291015625 478.5 c 0,2,3
 111.704101562 478.5 111.704101562 478.5 128.790039062 457.38671875 c 0,4,5
 145.875 436.272460938 145.875 436.272460938 145.875 405.556640625 c 0,6,7
 145.875 374.83984375 145.875 374.83984375 129.17578125 353.130859375 c 0,8,9
 112.537109375 331.5 112.537109375 331.5 90 331.5 c 0,10,11
 85.86328125 331.5 85.86328125 331.5 84.1611328125 332.765625 c 0,12,13
 75.41796875 334.310546875 75.41796875 334.310546875 66.9033203125 341.338867188 c 0,14,15
 51.322265625 354.19921875 51.322265625 354.19921875 42.0888671875 382.515625 c 0,16,17
 37.875 395.4375 37.875 395.4375 37.875 409 c 0,18,19
 37.875 436.045898438 37.875 436.045898438 53.345703125 457.23046875 c 0,0,1
53.1328125 101.444335938 m 0,20,21
 69.009765625 121.5 69.009765625 121.5 90.73046875 121.5 c 0,22,23
 112.451171875 121.5 112.451171875 121.5 129.163085938 100.888671875 c 0,24,25
 145.875 80.27734375 145.875 80.27734375 145.875 50.6669921875 c 0,26,27
 145.875 21.056640625 145.875 21.056640625 129.663085938 -2.2216796875 c 0,28,29
 113.451171875 -25.5 113.451171875 -25.5 90.75 -25.5 c 0,30,31
 79.6708984375 -25.5 79.6708984375 -25.5 69.490234375 -18.712890625 c 0,32,33
 51.322265625 -6.6005859375 51.322265625 -6.6005859375 41.7236328125 22.4853515625 c 0,34,35
 37.125 36.419921875 37.125 36.419921875 37.125 51 c 0,36,37
 37.125 81.2236328125 37.125 81.2236328125 53.1328125 101.444335938 c 0,20,21
EndSplineSet
EndChar

StartChar: semicolon
Encoding: 59 59 44
Width: 198
Flags: W
LayerCount: 2
Fore
SplineSet
97.5 331.5 m 1,0,-1
 92.572265625 332.701171875 l 1,1,2
 71.482421875 335.599609375 71.482421875 335.599609375 60.3037109375 357.12890625 c 128,-1,3
 49.125 378.658203125 49.125 378.658203125 49.125 404 c 0,4,5
 49.125 435.915039062 49.125 435.915039062 63.076171875 456.208007812 c 128,-1,6
 77.02734375 476.5 77.02734375 476.5 99.744140625 476.5 c 128,-1,7
 122.4609375 476.5 122.4609375 476.5 137.54296875 454.71484375 c 128,-1,8
 152.625 432.930664062 152.625 432.930664062 152.625 403.94140625 c 128,-1,9
 152.625 374.952148438 152.625 374.952148438 136.778320312 353.267578125 c 128,-1,10
 120.87109375 331.5 120.87109375 331.5 97.5 331.5 c 1,0,-1
168.375 -12 m 0,11,12
 168.375 -87.69921875 168.375 -87.69921875 123.734375 -140.606445312 c 0,13,14
 121.0078125 -143.672851562 121.0078125 -143.672851562 110.833984375 -153.439453125 c 0,15,16
 87.55078125 -175.791992188 87.55078125 -175.791992188 73.337890625 -185.646484375 c 128,-1,17
 59.1259765625 -195.5 59.1259765625 -195.5 53.25 -195.5 c 0,18,19
 51.5244140625 -195.5 51.5244140625 -195.5 41.9990234375 -186.186523438 c 0,20,21
 37.5 -181 37.5 -181 37.125 -172 c 0,22,23
 37.125 -168.8203125 37.125 -168.8203125 38.5908203125 -166.499023438 c 128,-1,24
 40.0576171875 -164.177734375 40.0576171875 -164.177734375 45.6328125 -157.671875 c 0,25,26
 55.2822265625 -146.415039062 55.2822265625 -146.415039062 59.3974609375 -143.521484375 c 0,27,28
 70.2841796875 -133.82421875 70.2841796875 -133.82421875 79.6025390625 -123.7890625 c 0,29,30
 97.8984375 -104.0859375 97.8984375 -104.0859375 105.36328125 -77.84375 c 0,31,32
 109.125 -64.6220703125 109.125 -64.6220703125 109.125 -47.2353515625 c 128,-1,33
 109.125 -29.849609375 109.125 -29.849609375 104.286132812 -22.5908203125 c 128,-1,34
 99.4462890625 -15.3310546875 99.4462890625 -15.3310546875 91.650390625 -11.2646484375 c 128,-1,35
 83.85546875 -7.197265625 83.85546875 -7.197265625 73.4892578125 -4.1259765625 c 128,-1,36
 63.1240234375 -1.0546875 63.1240234375 -1.0546875 54.078125 6.58984375 c 0,37,38
 33.3681640625 22.712890625 33.3681640625 22.712890625 33.3681640625 50.990234375 c 0,39,40
 33.3681640625 51.4931640625 33.3681640625 51.4931640625 33.375 52 c 0,41,42
 33.375 84.037109375 33.375 84.037109375 52.96875 101.268554688 c 128,-1,43
 72.5625 118.5 72.5625 118.5 93 118.5 c 128,-1,44
 113.473632812 118.5 113.473632812 118.5 127.395507812 105.943359375 c 128,-1,45
 141.317382812 93.3857421875 141.317382812 93.3857421875 150.93359375 74.15234375 c 0,46,47
 168.375 39.26953125 168.375 39.26953125 168.375 -12 c 0,11,12
EndSplineSet
EndChar

StartChar: less
Encoding: 60 60 45
Width: 351
Flags: W
LayerCount: 2
Fore
SplineSet
328.875 16 m 2,0,1
 328.875 5.6357421875 328.875 5.6357421875 327.493164062 0.72265625 c 0,2,3
 326.111328125 -4.19140625 326.111328125 -4.19140625 324.611328125 -7.69140625 c 0,4,5
 323.111328125 -11.19140625 323.111328125 -11.19140625 322.243164062 -14.27734375 c 0,6,7
 321.375 -17.3642578125 321.375 -17.3642578125 321.375 -26 c 2,8,-1
 321.375 -38.4130859375 l 1,9,10
 268.7890625 -1.5732421875 268.7890625 -1.5732421875 237.565429688 22.5029296875 c 0,11,12
 206.3671875 46.55859375 206.3671875 46.55859375 176.666015625 71.1220703125 c 0,13,14
 146.974609375 95.6767578125 146.974609375 95.6767578125 114.297851562 124.221679688 c 0,15,16
 81.7333984375 152.668945312 81.7333984375 152.668945312 31.875 193.822265625 c 1,17,-1
 31.875 265.315429688 l 1,18,19
 94.560546875 313.909179688 94.560546875 313.909179688 124.8203125 340.551757812 c 0,20,21
 155.079101562 367.1953125 155.079101562 367.1953125 173.086914062 384.202148438 c 0,22,23
 191.094726562 401.209960938 191.094726562 401.209960938 210.677734375 418.282226562 c 0,24,25
 259.243164062 460.62109375 259.243164062 460.62109375 317.625 501.395507812 c 1,26,-1
 317.625 489 l 2,27,28
 317.625 479.221679688 317.625 479.221679688 319.000976562 473.719726562 c 0,29,30
 320.375976562 468.216796875 320.375976562 468.216796875 321.250976562 464.13671875 c 0,31,32
 322.125 460.055664062 322.125 460.055664062 322.125 450 c 2,33,-1
 322.125 446.235351562 l 1,34,35
 253.46484375 378.0625 253.46484375 378.0625 217.711914062 340.07421875 c 0,36,37
 181.958984375 302.0859375 181.958984375 302.0859375 157.911132812 277.538085938 c 2,38,-1
 111.221679688 229.958984375 l 1,39,40
 180.115234375 158.819335938 180.115234375 158.819335938 210.918945312 129.483398438 c 0,41,42
 235.84765625 105.7421875 235.84765625 105.7421875 328.875 19.9306640625 c 1,43,-1
 328.875 16 l 2,0,1
EndSplineSet
EndChar

StartChar: equal
Encoding: 61 61 46
Width: 393
Flags: W
LayerCount: 2
Fore
SplineSet
246 299.5 m 1,0,-1
 45.75 298.5 l 1,1,-1
 42.6904296875 298.5 l 1,2,3
 31.0712890625 322.44140625 31.0712890625 322.44140625 31.0712890625 337.529296875 c 0,4,5
 31.0712890625 352.616210938 31.0712890625 352.616210938 42.4677734375 379.5 c 1,6,-1
 45.75 379.5 l 2,7,8
 116.280273438 379.5 116.280273438 379.5 180.81640625 378.499023438 c 0,9,10
 245.291992188 377.5 245.291992188 377.5 291.75 377.5 c 2,11,-1
 350.362304688 377.5 l 1,12,13
 352.875 360.749023438 352.875 360.749023438 352.875 354 c 2,14,-1
 352.875 340 l 2,15,16
 352.875 331.809570312 352.875 331.809570312 352.44921875 320.467773438 c 0,17,18
 352.024414062 309.125976562 352.024414062 309.125976562 347.073242188 301.203125 c 2,19,-1
 345.1796875 298.173828125 l 1,20,21
 334.241210938 299.5 334.241210938 299.5 324 299.5 c 2,22,-1
 246 299.5 l 1,0,-1
42.75 215.5 m 1,23,-1
 135 216.5 l 1,24,-1
 346.375 216.5 l 1,25,-1
 348.063476562 213.384765625 l 2,26,27
 357.302734375 196.327148438 357.302734375 196.327148438 357.302734375 180.916992188 c 0,28,29
 357.302734375 165.938476562 357.302734375 165.938476562 347.229492188 135.717773438 c 1,30,31
 327.129882812 134.5 327.129882812 134.5 309 134.5 c 2,32,-1
 185.25 134.5 l 2,33,34
 92.916015625 134.5 92.916015625 134.5 36.375 136.717773438 c 1,35,-1
 36.375 144 l 2,36,37
 36.375 151.778320312 36.375 151.778320312 34.5 159.278320312 c 0,38,39
 32.625 166.778320312 32.625 166.778320312 32.625 175.376953125 c 0,40,41
 32.625 183.975585938 32.625 183.975585938 34.5595703125 193.77734375 c 0,42,43
 36.494140625 203.579101562 36.494140625 203.579101562 37.984375 215.5 c 1,44,-1
 42.75 215.5 l 1,23,-1
EndSplineSet
EndChar

StartChar: greater
Encoding: 62 62 47
Width: 351
Flags: W
LayerCount: 2
Fore
SplineSet
37.875 -26 m 2,0,1
 37.875 -15.2421875 37.875 -15.2421875 35.5068359375 -9.716796875 c 0,2,3
 33.138671875 -4.19140625 33.138671875 -4.19140625 31.7568359375 0.72265625 c 0,4,5
 30.375 5.6357421875 30.375 5.6357421875 30.375 16 c 2,6,-1
 30.375 19.91796875 l 1,7,8
 103.989257812 88.197265625 103.989257812 88.197265625 191.650390625 175.024414062 c 0,9,10
 215.651367188 198.796875 215.651367188 198.796875 247.774414062 230.065429688 c 1,11,12
 222.12109375 255.63671875 222.12109375 255.63671875 200.083984375 278.859375 c 0,13,14
 178.046875 302.081054688 178.046875 302.081054688 153.700195312 327.051757812 c 0,15,16
 129.306640625 352.071289062 129.306640625 352.071289062 101.916992188 380.5859375 c 0,17,18
 74.59375 409.032226562 74.59375 409.032226562 37.125 446.235351562 c 1,19,-1
 37.125 450 l 2,20,21
 37.125 460.055664062 37.125 460.055664062 37.9990234375 464.13671875 c 0,22,23
 38.8740234375 468.216796875 38.8740234375 468.216796875 39.609375 471.158203125 c 0,24,25
 41.625 479.221679688 41.625 479.221679688 41.625 489 c 2,26,-1
 41.625 501.666992188 l 1,27,28
 96.591796875 461.4765625 96.591796875 461.4765625 127.85546875 435.360351562 c 0,29,30
 159.078125 409.279296875 159.078125 409.279296875 186.47265625 384.260742188 c 0,31,32
 213.868164062 359.2421875 213.868164062 359.2421875 245.325195312 331.779296875 c 0,33,34
 276.694335938 304.393554688 276.694335938 304.393554688 327.375 265.327148438 c 1,35,-1
 327.375 193.822265625 l 1,36,37
 293.250976562 165.65625 293.250976562 165.65625 268.921875 144.696289062 c 0,38,39
 241.997070312 121.499023438 241.997070312 121.499023438 222.431640625 105.073242188 c 0,40,41
 164.548828125 56.4814453125 164.548828125 56.4814453125 143.671875 39.9853515625 c 0,42,43
 107.840820312 11.6748046875 107.840820312 11.6748046875 37.875 -38.556640625 c 1,44,-1
 37.875 -26 l 2,0,1
EndSplineSet
EndChar

StartChar: question
Encoding: 63 63 48
Width: 275
Flags: W
LayerCount: 2
Fore
SplineSet
80.9580078125 -22.4375 m 0,0,1
 60.658203125 -20.0263671875 60.658203125 -20.0263671875 49.6416015625 -0.2529296875 c 0,2,3
 38.625 19.5205078125 38.625 19.5205078125 38.625 46.244140625 c 0,4,5
 38.625 72.9677734375 38.625 72.9677734375 51.8466796875 91.734375 c 0,6,7
 65.068359375 110.5 65.068359375 110.5 87.515625 110.5 c 0,8,9
 109.962890625 110.5 109.962890625 110.5 123.043945312 88.5576171875 c 0,10,11
 136.125 66.6162109375 136.125 66.6162109375 136.125 38.57421875 c 0,12,13
 136.125 10.533203125 136.125 10.533203125 119.139648438 -8.716796875 c 0,14,15
 105.975585938 -23.63671875 105.975585938 -23.63671875 90.0791015625 -23.63671875 c 0,16,17
 85.6015625 -23.63671875 85.6015625 -23.63671875 80.9580078125 -22.4375 c 0,0,1
63.375 237 m 1,18,-1
 64.125 284 l 2,19,20
 64.125 302.728515625 64.125 302.728515625 63.5 314.395507812 c 0,21,22
 62.875 326.061523438 62.875 326.061523438 62.875 331.958984375 c 0,23,24
 62.875 337.857421875 62.875 337.857421875 63.1494140625 345.170898438 c 0,25,26
 63.9228515625 365.809570312 63.9228515625 365.809570312 75.3017578125 376.645507812 c 1,27,28
 96.732421875 387.87109375 96.732421875 387.87109375 117.762695312 401.646484375 c 0,29,30
 138.793945312 415.420898438 138.793945312 415.420898438 156.478515625 433.225585938 c 0,31,32
 174.163085938 451.030273438 174.163085938 451.030273438 184.39453125 475.490234375 c 0,33,34
 194.625 499.950195312 194.625 499.950195312 194.625 534 c 0,35,36
 194.625 581.4921875 194.625 581.4921875 171.514648438 619.263671875 c 0,37,38
 160.573242188 637.147460938 160.573242188 637.147460938 145.5546875 648.323242188 c 0,39,40
 130.536132812 659.5 130.536132812 659.5 113.25 659.5 c 0,41,42
 101.487304688 659.5 101.487304688 659.5 87.9873046875 653 c 0,43,44
 74.4873046875 646.5 74.4873046875 646.5 60.2138671875 646.5 c 0,45,46
 45.94140625 646.5 45.94140625 646.5 34.408203125 659.51171875 c 0,47,48
 22.875 672.5234375 22.875 672.5234375 22.875 691.346679688 c 0,49,50
 22.875 710.169921875 22.875 710.169921875 28.240234375 721.497070312 c 0,51,52
 33.5517578125 732.709960938 33.5517578125 732.709960938 42.546875 738.9921875 c 0,53,54
 51.5419921875 745.274414062 51.5419921875 745.274414062 61.21875 746.88671875 c 0,55,56
 70.8955078125 748.5 70.8955078125 748.5 81 748.5 c 0,57,58
 114.934570312 748.5 114.934570312 748.5 145.638671875 721.552734375 c 0,59,60
 176.341796875 694.606445312 176.341796875 694.606445312 200.155273438 654.661132812 c 0,61,62
 223.932617188 614.776367188 223.932617188 614.776367188 237.779296875 567.59765625 c 0,63,64
 251.625 520.418945312 251.625 520.418945312 251.625 479.30859375 c 0,65,66
 251.625 438.198242188 251.625 438.198242188 240.975585938 410.326171875 c 0,67,68
 221.349609375 358.958007812 221.349609375 358.958007812 180.4296875 329.405273438 c 0,69,70
 180.422851562 329.400390625 180.422851562 329.400390625 145.9375 304.411132812 c 0,71,72
 129.853515625 292.713867188 129.853515625 292.713867188 118.391601562 280.672851562 c 0,73,74
 106.928710938 268.630859375 106.928710938 268.630859375 103.670898438 252.991210938 c 2,75,-1
 103.159179688 250.53515625 l 1,76,-1
 101.860351562 249.236328125 l 1,77,78
 100.875 246.354492188 100.875 246.354492188 100.875 239 c 2,79,-1
 100.875 212 l 2,80,81
 100.875 197.922851562 100.875 197.922851562 98.0263671875 184.899414062 c 0,82,83
 94.328125 167.993164062 94.328125 167.993164062 81.3603515625 166.421875 c 1,84,-1
 80.4814453125 166.69140625 l 2,85,86
 67.181640625 170.784179688 67.181640625 170.784179688 64.982421875 188.500976562 c 0,87,88
 63.375 197.30078125 63.375 197.30078125 63.375 210 c 2,89,-1
 63.375 237 l 1,18,-1
EndSplineSet
EndChar

StartChar: at
Encoding: 64 64 49
Width: 673
Flags: W
LayerCount: 2
Fore
SplineSet
336.256835938 192.87109375 m 0,0,1
 316.328125 183.345703125 316.328125 183.345703125 300.8515625 165.4609375 c 0,2,3
 285.375 147.577148438 285.375 147.577148438 285.375 120.057617188 c 0,4,5
 285.375 92.537109375 285.375 92.537109375 293.702148438 78.0185546875 c 0,6,7
 302.028320312 63.5 302.028320312 63.5 324 63.5 c 0,8,9
 339.170898438 63.5 339.170898438 63.5 354.59375 73.7822265625 c 0,10,11
 370.017578125 84.064453125 370.017578125 84.064453125 379.805664062 97.998046875 c 0,12,13
 384.068359375 104.65625 384.068359375 104.65625 390.3203125 117.16015625 c 0,14,15
 396.572265625 129.665039062 396.572265625 129.665039062 398.66796875 139.24609375 c 1,16,-1
 400.125 174.211914062 l 1,17,-1
 400.125 203 l 2,18,19
 400.125 213.006835938 400.125 213.006835938 399.553710938 220.801757812 c 1,20,21
 377.263671875 213.34375 377.263671875 213.34375 360.58984375 204.643554688 c 0,22,23
 343.915039062 195.944335938 343.915039062 195.944335938 336.256835938 192.87109375 c 0,0,1
357.75 -109.5 m 0,24,25
 403.340820312 -109.5 403.340820312 -109.5 453.799804688 -86.404296875 c 0,26,27
 478.415039062 -75.1376953125 478.415039062 -75.1376953125 499.923828125 -58.611328125 c 0,28,29
 521.432617188 -42.0849609375 521.432617188 -42.0849609375 535.836914062 -20.9580078125 c 2,30,-1
 538.157226562 -17.5546875 l 1,31,32
 562.999023438 -26.587890625 562.999023438 -26.587890625 585.474609375 -32.0361328125 c 1,33,-1
 578.666015625 -42.0380859375 l 2,34,35
 533.607421875 -108.225585938 533.607421875 -108.225585938 476.260742188 -141.868164062 c 0,36,37
 418.934570312 -175.5 418.934570312 -175.5 352.5 -175.5 c 0,38,39
 304.4140625 -175.5 304.4140625 -175.5 258.99609375 -157.1796875 c 0,40,41
 213.596679688 -138.868164062 213.596679688 -138.868164062 174.66796875 -104.7734375 c 0,42,43
 135.685546875 -70.6318359375 135.685546875 -70.6318359375 105.8828125 -21.724609375 c 0,44,45
 76.06640625 27.2041015625 76.06640625 27.2041015625 58.474609375 88.3916015625 c 0,46,47
 40.125 154.263671875 40.125 154.263671875 40.125 236.452148438 c 0,48,49
 40.125 318.640625 40.125 318.640625 65.759765625 393.122070312 c 0,50,51
 91.337890625 467.439453125 91.337890625 467.439453125 135.630859375 523.442382812 c 0,52,53
 179.962890625 579.494140625 179.962890625 579.494140625 236.15625 607.52734375 c 0,54,55
 292.229492188 635.5 292.229492188 635.5 353.25 635.5 c 0,56,57
 391.459960938 635.5 391.459960938 635.5 430.391601562 622.268554688 c 0,58,59
 469.37890625 609.017578125 469.37890625 609.017578125 503.416015625 583.01171875 c 0,60,61
 537.477539062 556.987304688 537.477539062 556.987304688 565.03125 519.228515625 c 0,62,63
 593.42578125 480.31640625 593.42578125 480.31640625 609.65625 432 c 0,64,65
 633.375 359.713867188 633.375 359.713867188 633.375 296 c 0,66,67
 633.375 249.890625 633.375 249.890625 622.637695312 202.336914062 c 0,68,69
 611.92578125 154.90234375 611.92578125 154.90234375 592.724609375 113.426757812 c 0,70,71
 573.5234375 71.9521484375 573.5234375 71.9521484375 544.850585938 41.470703125 c 0,72,73
 516.177734375 10.990234375 516.177734375 10.990234375 480.357421875 1.6455078125 c 0,74,75
 472.311523438 -0.5 472.311523438 -0.5 462 -0.5 c 0,76,77
 433.965820312 -0.5 433.965820312 -0.5 418.034179688 23.537109375 c 0,78,79
 405.987304688 41.712890625 405.987304688 41.712890625 399.5 66.205078125 c 1,80,81
 382.841796875 41.126953125 382.841796875 41.126953125 354.637695312 18.564453125 c 0,82,83
 339.01171875 6.0625 339.01171875 6.0625 321.4375 -0.70703125 c 0,84,85
 303.799804688 -7.5 303.799804688 -7.5 288 -7.5 c 0,86,87
 246.158203125 -7.5 246.158203125 -7.5 229.016601562 23.5185546875 c 0,88,89
 211.875 54.537109375 211.875 54.537109375 211.875 103 c 0,90,91
 211.875 147.631835938 211.875 147.631835938 244.583007812 185.184570312 c 0,92,93
 268.790039062 212.978515625 268.790039062 212.978515625 305.591796875 231.056640625 c 0,94,95
 332.622070312 244.071289062 332.622070312 244.071289062 353.668945312 253.748046875 c 0,96,97
 374.716796875 263.42578125 374.716796875 263.42578125 400.125 271.877929688 c 1,98,-1
 400.125 341 l 2,99,100
 400.125 381.911132812 400.125 381.911132812 388.930664062 406.631835938 c 0,101,102
 378.575195312 429.5 378.575195312 429.5 347.25 429.5 c 0,103,104
 325.360351562 429.5 325.360351562 429.5 312.688476562 420.82421875 c 0,105,106
 299.923828125 412.083984375 299.923828125 412.083984375 292.75 399.78515625 c 0,107,108
 285.575195312 387.486328125 285.575195312 387.486328125 282.748046875 375.235351562 c 0,109,110
 282.012695312 372.046875 282.012695312 372.046875 278.370117188 354.762695312 c 0,111,112
 274.065429688 336.396484375 274.065429688 336.396484375 260.178710938 322.930664062 c 0,113,114
 246.328125 309.5 246.328125 309.5 229.5 309.5 c 0,115,116
 216.637695312 309.5 216.637695312 309.5 214.234375 325.5234375 c 0,117,118
 212.625 336.250976562 212.625 336.250976562 212.625 345 c 0,119,120
 212.625 372.6796875 212.625 372.6796875 228.875976562 399.104492188 c 0,121,122
 245.127929688 425.530273438 245.127929688 425.530273438 267.868164062 447.114257812 c 0,123,124
 290.599609375 468.689453125 290.599609375 468.689453125 317.66796875 482.094726562 c 0,125,126
 344.736328125 495.5 344.736328125 495.5 366.75 495.5 c 0,127,128
 376.055664062 495.5 376.055664062 495.5 391.551757812 491.90625 c 0,129,130
 416.7265625 486.068359375 416.7265625 486.068359375 427.759765625 478.712890625 c 0,131,132
 455.494140625 460.223632812 455.494140625 460.223632812 461.934570312 429.630859375 c 0,133,134
 468.375 399.038085938 468.375 399.038085938 468.375 359.974609375 c 0,135,136
 468.375 320.911132812 468.375 320.911132812 467.623046875 278.3203125 c 0,137,138
 466.875 235.911132812 466.875 235.911132812 466.875 193 c 2,139,-1
 466.875 163 l 2,140,141
 466.875 97.498046875 466.875 97.498046875 472.502929688 87.494140625 c 2,142,-1
 472.887695312 86.712890625 l 2,143,144
 476.407226562 78.5 476.407226562 78.5 489 78.5 c 0,145,146
 509.887695312 78.5 509.887695312 78.5 526.743164062 101.442382812 c 0,147,148
 543.599609375 124.385742188 543.599609375 124.385742188 556.005859375 157.95703125 c 0,149,150
 568.413085938 191.529296875 568.413085938 191.529296875 574.642578125 227.68359375 c 0,151,152
 580.875 263.856445312 580.875 263.856445312 580.875 288 c 0,153,154
 580.875 351.345703125 580.875 351.345703125 562.642578125 403.85546875 c 0,155,156
 544.373046875 456.47265625 544.373046875 456.47265625 512.973632812 494.443359375 c 0,157,158
 481.505859375 532.498046875 481.505859375 532.498046875 440.486328125 553.495117188 c 0,159,160
 399.454101562 574.5 399.454101562 574.5 353.25 574.5 c 0,161,162
 297.540039062 574.5 297.540039062 574.5 252.943359375 545.744140625 c 0,163,164
 208.22265625 516.907226562 208.22265625 516.907226562 176.728515625 469.056640625 c 0,165,166
 145.19921875 421.151367188 145.19921875 421.151367188 128.30859375 357.017578125 c 0,167,168
 111.375 292.716796875 111.375 292.716796875 111.375 222.5625 c 0,169,170
 111.375 88.3984375 111.375 88.3984375 174.400390625 -5.9384765625 c 0,171,172
 208.8515625 -54.77734375 208.8515625 -54.77734375 255.030273438 -82.142578125 c 0,173,174
 301.1953125 -109.5 301.1953125 -109.5 357.75 -109.5 c 0,24,25
EndSplineSet
EndChar

StartChar: A
Encoding: 65 65 50
Width: 619
Flags: W
LayerCount: 2
Fore
SplineSet
319.768554688 319.5 m 2,0,-1
 304.35546875 319.5 l 1,1,-1
 247.329101562 320.5 l 2,2,3
 211.354492188 320.5 211.354492188 320.5 195.236328125 316.56640625 c 1,4,5
 154.787109375 193.53125 154.787109375 193.53125 135.37890625 104.561523438 c 0,6,7
 130.578125 82.5546875 130.578125 82.5546875 130.578125 78.669921875 c 0,8,9
 130.578125 62.25390625 130.578125 62.25390625 139.155273438 58.17578125 c 0,10,11
 150.78515625 52.6455078125 150.78515625 52.6455078125 165.981445312 50.71875 c 128,-1,12
 181.178710938 48.7919921875 181.178710938 48.7919921875 194.202148438 45.2890625 c 0,13,14
 211.494140625 40.638671875 211.494140625 40.638671875 211.494140625 19.0673828125 c 0,15,16
 211.494140625 8.0283203125 211.494140625 8.0283203125 205.104492188 0.6015625 c 128,-1,17
 198.712890625 -7 198.712890625 -7 190.301757812 -7 c 0,18,19
 164.5703125 -7 164.5703125 -7 138.369140625 -3.5 c 128,-1,20
 112.16796875 0 112.16796875 0 91.1650390625 0 c 0,21,22
 70.498046875 0 70.498046875 0 56.248046875 -2.5 c 128,-1,23
 41.998046875 -5 41.998046875 -5 24.375 -5 c 0,24,25
 16.421875 -5 16.421875 -5 11.9609375 2.435546875 c 128,-1,26
 7.5 9.7236328125 7.5 9.7236328125 7.5 18.1806640625 c 0,27,28
 7.5 35.349609375 7.5 35.349609375 16.8740234375 41.8349609375 c 0,29,30
 24.033203125 46.7880859375 24.033203125 46.7880859375 32.919921875 48.80859375 c 128,-1,31
 41.80859375 50.828125 41.80859375 50.828125 50.4072265625 54.2861328125 c 128,-1,32
 59.0068359375 57.744140625 59.0068359375 57.744140625 64.6396484375 69.1962890625 c 0,33,34
 66.9345703125 73.509765625 66.9345703125 73.509765625 71.2041015625 86.529296875 c 128,-1,35
 75.47265625 99.548828125 75.47265625 99.548828125 80.6923828125 114.651367188 c 128,-1,36
 85.912109375 129.754882812 85.912109375 129.754882812 90.015625 144.381835938 c 128,-1,37
 94.1201171875 159.008789062 94.1201171875 159.008789062 103.625 189.473632812 c 0,38,39
 113.284179688 219.938476562 113.284179688 219.938476562 130.231445312 272.848632812 c 0,40,41
 178.775390625 424.997070312 178.775390625 424.997070312 215.368164062 538.044921875 c 128,-1,42
 251.961914062 651.092773438 251.961914062 651.092773438 281.205078125 743.096679688 c 0,43,44
 282.997070312 750 282.997070312 750 285.392578125 754.352539062 c 0,45,46
 289.051757812 761 289.051757812 761 297.7890625 761 c 128,-1,47
 306.52734375 761 306.52734375 761 311.344726562 752.404296875 c 0,48,49
 314.88671875 746.0859375 314.88671875 746.0859375 316.708007812 739.130859375 c 0,50,51
 335.176757812 682.361328125 335.176757812 682.361328125 354.026367188 623.154296875 c 2,52,53
 372.733398438 561.11328125 372.733398438 561.11328125 391.440429688 506.877929688 c 1,54,55
 459.204101562 282.383789062 459.204101562 282.383789062 536.461914062 77.0830078125 c 0,56,57
 542.2421875 61.1337890625 542.2421875 61.1337890625 553.6953125 55.4111328125 c 128,-1,58
 565.146484375 49.6884765625 565.146484375 49.6884765625 577.409179688 46.7744140625 c 128,-1,59
 589.671875 43.8603515625 589.671875 43.8603515625 598.950195312 40.3232421875 c 0,60,61
 612 35.349609375 612 35.349609375 612 16.111328125 c 0,62,63
 612 1.9892578125 612 1.9892578125 600.27734375 -3.1171875 c 0,64,65
 591.541015625 -7 591.541015625 -7 583.125 -7 c 2,66,-1
 574.125 -7 l 2,67,68
 555.020507812 -7 555.020507812 -7 537.020507812 -4 c 128,-1,69
 518.998046875 -1 518.998046875 -1 495.801757812 -1 c 128,-1,70
 472.604492188 -1 472.604492188 -1 445.631835938 -4 c 128,-1,71
 418.66015625 -7 418.66015625 -7 390.666015625 -7 c 0,72,73
 381.705078125 -7 381.705078125 -7 374.047851562 0.9482421875 c 128,-1,74
 366.391601562 8.7138671875 366.391601562 8.7138671875 366.391601562 21.02734375 c 0,75,76
 366.391601562 37.947265625 366.391601562 37.947265625 382.358398438 41.4375 c 0,77,78
 393.860351562 43.9521484375 393.860351562 43.9521484375 407.576171875 44.91796875 c 128,-1,79
 421.291992188 45.8837890625 421.291992188 45.8837890625 431.462890625 49.5673828125 c 0,80,81
 438.060546875 51.9580078125 438.060546875 51.9580078125 438.060546875 63.0380859375 c 0,82,83
 438.060546875 72.4423828125 438.060546875 72.4423828125 407.74609375 168.145507812 c 0,84,85
 381.680664062 250.434570312 381.680664062 250.434570312 370.008789062 284.659179688 c 1,86,87
 365.194335938 297.802734375 365.194335938 297.802734375 360.37890625 309.922851562 c 1,88,89
 355.625976562 315.948242188 355.625976562 315.948242188 344.071289062 317.724609375 c 128,-1,90
 332.515625 319.5 332.515625 319.5 319.768554688 319.5 c 2,0,-1
214.475585938 377.5 m 1,91,-1
 227.291992188 377.5 l 2,92,93
 240.3515625 377.5 240.3515625 377.5 267.428710938 377.995117188 c 128,-1,94
 294.505859375 378.490234375 294.505859375 378.490234375 342.415039062 378.5 c 0,95,96
 343.405273438 379.174804688 343.405273438 379.174804688 344.456054688 379.4921875 c 1,97,98
 311.956054688 496.041015625 311.956054688 496.041015625 299.350585938 542.8046875 c 128,-1,99
 286.745117188 589.568359375 286.745117188 589.568359375 285.15625 595.077148438 c 1,100,101
 277.567382812 572.100585938 277.567382812 572.100585938 270.50390625 551.584960938 c 128,-1,102
 263.439453125 531.0703125 263.439453125 531.0703125 255.387695312 505.196289062 c 0,103,104
 235.690429688 441.903320312 235.690429688 441.903320312 214.475585938 377.5 c 1,91,-1
EndSplineSet
Substitution2: "'c2sc' Versalien in Kapit+AOQA-lchen in Lateinisch Nachschlagetabelle 0 Subtabelle" uni1D00
EndChar

StartChar: B
Encoding: 66 66 51
Width: 551
Flags: W
LayerCount: 2
Fore
SplineSet
47.0361328125 735.64453125 m 0,0,1
 60.7626953125 741.5 60.7626953125 741.5 84.65625 741.5 c 2,2,3
 103.640625 733.25 103.640625 733.25 122.758789062 740 c 2,4,5
 158.295898438 740 158.295898438 740 193.736328125 744.5 c 128,-1,6
 229.17578125 749 229.17578125 749 264.287109375 749 c 128,-1,7
 299.3984375 749 299.3984375 749 335.553710938 739.30859375 c 128,-1,8
 371.708007812 729.807617188 371.708007812 729.807617188 402.676757812 708.548828125 c 0,9,10
 433.225585938 687.290039062 433.225585938 687.290039062 452.48828125 651.32421875 c 128,-1,11
 471.75 615.357421875 471.75 615.357421875 471.75 564.02734375 c 0,12,13
 471.75 504.215820312 471.75 504.215820312 443.182617188 465.322265625 c 0,14,15
 419.7265625 433.518554688 419.7265625 433.518554688 386.4609375 416.2265625 c 1,16,17
 387.698242188 415.6875 387.698242188 415.6875 394.4453125 412.948242188 c 0,18,19
 451.231445312 389.442382812 451.231445312 389.442382812 484.732421875 335.860351562 c 0,20,21
 514.5 288.250976562 514.5 288.250976562 514.5 218.97265625 c 0,22,23
 514.5 161.341796875 514.5 161.341796875 498.147460938 119.103515625 c 0,24,25
 466.235351562 36.6767578125 466.235351562 36.6767578125 389.978515625 8.4990234375 c 0,26,27
 352.860351562 -4.9189453125 352.860351562 -4.9189453125 310.3203125 -5.986328125 c 0,28,29
 304.384765625 -7.0009765625 304.384765625 -7.0009765625 302.684570312 -7 c 2,30,-1
 62.625 -7 l 2,31,32
 53.8896484375 -7 53.8896484375 -7 42.5390625 -4.390625 c 0,33,34
 27 -0.8896484375 27 -0.8896484375 27 20.005859375 c 0,35,36
 27 35.9091796875 27 35.9091796875 43.583984375 39.97265625 c 0,37,38
 55.662109375 42.931640625 55.662109375 42.931640625 69.642578125 45.81640625 c 128,-1,39
 83.6220703125 48.701171875 83.6220703125 48.701171875 96.1640625 55.2578125 c 0,40,41
 106.345703125 60.580078125 106.345703125 60.580078125 108.21484375 75.23046875 c 0,42,43
 109.813476562 79.41015625 109.813476562 79.41015625 110.407226562 154.654296875 c 128,-1,44
 111.000976562 229.8984375 111.000976562 229.8984375 112.126953125 289.725585938 c 0,45,46
 114 389.282226562 114 389.282226562 114 533.595703125 c 2,47,48
 114 581.173828125 114 581.173828125 114 637.489257812 c 2,49,50
 114 669.344726562 114 669.344726562 103.50390625 679.631835938 c 0,51,52
 98.541015625 684.49609375 98.541015625 684.49609375 89.5322265625 686.760742188 c 128,-1,53
 80.5234375 689.024414062 80.5234375 689.024414062 68.09375 691.89453125 c 0,54,55
 60.0458984375 692.129882812 60.0458984375 692.129882812 52.30859375 695.241210938 c 128,-1,56
 44.5712890625 698.352539062 44.5712890625 698.352539062 40.2373046875 701.750976562 c 0,57,58
 33.75 706.837890625 33.75 706.837890625 33.75 714.919921875 c 0,59,60
 33.75 730.088867188 33.75 730.088867188 47.0361328125 735.64453125 c 0,0,1
389.208984375 94.1650390625 m 128,-1,62
 423 138.465820312 423 138.465820312 423 209.806640625 c 0,63,64
 423 253.368164062 423 253.368164062 405.856445312 290.27734375 c 0,65,66
 392.51953125 320.032226562 392.51953125 320.032226562 373.206054688 336.344726562 c 0,67,68
 335.104492188 368.525390625 335.104492188 368.525390625 282.075195312 372.55859375 c 0,69,70
 256.548828125 374.5 256.548828125 374.5 231.026367188 374.5 c 2,71,-1
 217.784179688 374.5 l 2,72,73
 210.596679688 374.5 210.596679688 374.5 204.034179688 370.3828125 c 0,74,75
 199.48046875 367.525390625 199.48046875 367.525390625 199.48046875 356.41796875 c 2,76,77
 199.48046875 256.994140625 199.48046875 256.994140625 199.48046875 152.139648438 c 2,78,79
 199.48046875 129.197265625 199.48046875 129.197265625 202.033203125 106.315429688 c 128,-1,80
 204.5859375 83.4326171875 204.5859375 83.4326171875 217.8203125 67.640625 c 0,81,82
 228.891601562 55.5556640625 228.891601562 55.5556640625 248.81640625 52.7783203125 c 128,-1,83
 268.741210938 50 268.741210938 50 284.770507812 50 c 0,84,61
 355.495117188 50 355.495117188 50 389.208984375 94.1650390625 c 128,-1,62
374.5859375 499.791992188 m 128,-1,86
 385.637695312 526.951171875 385.637695312 526.951171875 385.637695312 566.076171875 c 0,87,88
 385.637695312 629.846679688 385.637695312 629.846679688 354.385742188 662.922851562 c 128,-1,89
 323.1328125 696 323.1328125 696 273.865234375 696 c 2,90,-1
 262.9609375 696 l 2,91,92
 254.502929688 696 254.502929688 696 244.426757812 695.534179688 c 0,93,94
 222.608398438 694.524414062 222.608398438 694.524414062 209.682617188 681.962890625 c 0,95,96
 204.638671875 677.060546875 204.638671875 677.060546875 203.280273438 666.951171875 c 0,97,98
 201.038085938 651.541015625 201.038085938 651.541015625 201.038085938 623.495117188 c 2,99,100
 201.038085938 525.383789062 201.038085938 525.383789062 201.038085938 432.879882812 c 2,101,102
 201.704101562 430.903320312 201.704101562 430.903320312 205.654296875 427.201171875 c 128,-1,103
 209.604492188 423.5 209.604492188 423.5 221.678710938 423.5 c 2,104,-1
 248.162109375 423.5 l 2,105,106
 310.401367188 423.5 310.401367188 423.5 345.169921875 455.647460938 c 0,107,85
 363.528320312 472.622070312 363.528320312 472.622070312 374.5859375 499.791992188 c 128,-1,86
EndSplineSet
Substitution2: "'c2sc' Versalien in Kapit+AOQA-lchen in Lateinisch Nachschlagetabelle 0 Subtabelle" uni0299
EndChar

StartChar: C
Encoding: 67 67 52
Width: 580
Flags: W
LayerCount: 2
Fore
SplineSet
506.580078125 765.043945312 m 128,-1,1
 514.796875 776 514.796875 776 528.375 776 c 0,2,3
 538.237304688 776 538.237304688 776 540.640625 759.9765625 c 0,4,5
 542.25 749.249023438 542.25 749.249023438 542.25 734.190429688 c 128,-1,6
 542.25 719.1328125 542.25 719.1328125 541.125 703.6328125 c 128,-1,7
 540 688.1328125 540 688.1328125 540 669.24609375 c 0,8,9
 540 623.209960938 540 623.209960938 536.983398438 570.91796875 c 0,10,11
 535.78515625 560.170898438 535.78515625 560.170898438 531.897460938 554.123046875 c 128,-1,12
 527.9609375 548 527.9609375 548 523.272460938 548 c 128,-1,13
 518.583007812 548 518.583007812 548 515.958007812 549 c 128,-1,14
 513.333007812 550 513.333007812 550 511.125 550 c 0,15,16
 502.888671875 550 502.888671875 550 498.4375 564.094726562 c 0,17,18
 495.26171875 574.155273438 495.26171875 574.155273438 492.961914062 586.931640625 c 128,-1,19
 490.662109375 599.708007812 490.662109375 599.708007812 488.18359375 612.92578125 c 128,-1,20
 485.705078125 626.143554688 485.705078125 626.143554688 481.83203125 635.008789062 c 0,21,22
 457.711914062 669.319335938 457.711914062 669.319335938 422.111328125 687.659179688 c 128,-1,23
 386.509765625 706 386.509765625 706 348.034179688 706 c 0,24,25
 294.40234375 706 294.40234375 706 256.883789062 680.000976562 c 128,-1,26
 219.294921875 653.952148438 219.294921875 653.952148438 195.521484375 609.736328125 c 128,-1,27
 171.749023438 565.521484375 171.749023438 565.521484375 160.311523438 507.3984375 c 128,-1,28
 148.874023438 449.274414062 148.874023438 449.274414062 148.874023438 383.124023438 c 128,-1,29
 148.874023438 316.973632812 148.874023438 316.973632812 160.337890625 252.939453125 c 128,-1,30
 171.80078125 188.90625 171.80078125 188.90625 196.788085938 139.775390625 c 128,-1,31
 221.774414062 90.6435546875 221.774414062 90.6435546875 260.881835938 60.322265625 c 128,-1,32
 299.989257812 30 299.989257812 30 356.575195312 30 c 0,33,34
 393.779296875 30 393.779296875 30 434.298828125 51.91796875 c 0,35,36
 474.48046875 73.775390625 474.48046875 73.775390625 496.8828125 111.017578125 c 0,37,38
 500.4296875 117.672851562 500.4296875 117.672851562 510.875 142.541015625 c 128,-1,39
 521.3203125 167.41015625 521.3203125 167.41015625 526.717773438 178.205078125 c 128,-1,40
 532.115234375 189 532.115234375 189 538.875 189 c 0,41,42
 549.096679688 189 549.096679688 189 554.673828125 183.051757812 c 128,-1,43
 560.25 177.103515625 560.25 177.103515625 560.25 162.5 c 0,44,45
 560.25 153.990234375 560.25 153.990234375 558.32421875 134.98828125 c 0,46,47
 554.504882812 97.3056640625 554.504882812 97.3056640625 545.758789062 58.82421875 c 0,48,49
 541.48046875 39.9951171875 541.48046875 39.9951171875 536.59375 33.875 c 0,50,51
 512.05078125 5 512.05078125 5 452.920898438 -11.83203125 c 0,52,53
 427.372070312 -18.9189453125 427.372070312 -18.9189453125 400.262695312 -22.4619140625 c 128,-1,54
 373.1796875 -26 373.1796875 -26 351.916992188 -26 c 0,55,56
 280.75390625 -26 280.75390625 -26 223.3046875 7.544921875 c 128,-1,57
 165.915039062 41.0556640625 165.915039062 41.0556640625 126.305664062 97.63671875 c 0,58,59
 87.7158203125 154.12109375 87.7158203125 154.12109375 66.7216796875 228.530273438 c 128,-1,60
 45.75 302.856445312 45.75 302.856445312 45.75 388.139648438 c 128,-1,61
 45.75 473.423828125 45.75 473.423828125 67.548828125 542.467773438 c 128,-1,62
 89.369140625 611.581054688 89.369140625 611.581054688 127.334960938 659.747070312 c 0,63,64
 166.315429688 707.969726562 166.315429688 707.969726562 221.346679688 732.485351562 c 128,-1,65
 276.377929688 757 276.377929688 757 341.823242188 757 c 0,66,67
 398.516601562 757 398.516601562 757 451.165039062 740.776367188 c 0,68,69
 457.591796875 738.70703125 457.591796875 738.70703125 465.771484375 735.196289062 c 0,70,71
 473.755859375 731.682617188 473.755859375 731.682617188 483.071289062 728.294921875 c 1,72,73
 484.600585938 726.546875 484.600585938 726.546875 485.028320312 726.25 c 0,74,75
 487.849609375 729.556640625 487.849609375 729.556640625 493.10546875 741.822265625 c 128,-1,0
 498.362304688 754.087890625 498.362304688 754.087890625 506.580078125 765.043945312 c 128,-1,1
EndSplineSet
Substitution2: "'c2sc' Versalien in Kapit+AOQA-lchen in Lateinisch Nachschlagetabelle 0 Subtabelle" uni1D04
EndChar

StartChar: D
Encoding: 68 68 53
Width: 661
Flags: W
LayerCount: 2
Fore
SplineSet
203.776367188 675.588867188 m 0,0,1
 200.249023438 660.481445312 200.249023438 660.481445312 200.249023438 638.951171875 c 2,2,3
 200.634765625 581.403320312 200.634765625 581.403320312 201.020507812 533.34375 c 2,4,5
 201.020507812 445.296875 201.020507812 445.296875 200.249023438 358.2265625 c 128,-1,6
 199.477539062 271.240234375 199.477539062 271.240234375 199.477539062 183.276367188 c 0,7,8
 199.477539062 139.95703125 199.477539062 139.95703125 203.548828125 112.272460938 c 0,9,10
 211.213867188 60.1640625 211.213867188 60.1640625 239.229492188 47.416015625 c 0,11,12
 253.330078125 41 253.330078125 41 273.1484375 41 c 0,13,14
 327.46875 41 327.46875 41 372.643554688 66.291015625 c 128,-1,15
 417.815429688 91.5810546875 417.815429688 91.5810546875 449.776367188 135.90625 c 128,-1,16
 481.807617188 180.329101562 481.807617188 180.329101562 499.544921875 240.124023438 c 128,-1,17
 517.3046875 299.999023438 517.3046875 299.999023438 517.3046875 368.088867188 c 0,18,19
 517.3046875 486.9765625 517.3046875 486.9765625 469.791992188 570.624023438 c 128,-1,20
 422.375976562 654.1015625 422.375976562 654.1015625 330.982421875 687.626953125 c 0,21,22
 314.1640625 693.439453125 314.1640625 693.439453125 297.193359375 698.219726562 c 128,-1,23
 280.223632812 703 280.223632812 703 263.120117188 703 c 2,24,-1
 241.356445312 703 l 2,25,26
 240.814453125 702.909179688 240.814453125 702.909179688 236.731445312 702.510742188 c 0,27,28
 225.340820312 701.400390625 225.340820312 701.400390625 213.204101562 690.631835938 c 0,29,30
 206.978515625 685.108398438 206.978515625 685.108398438 203.776367188 675.588867188 c 0,0,1
93.2939453125 683.0859375 m 128,-1,32
 83.72265625 686 83.72265625 686 73.125 686 c 2,33,34
 60.75 678 60.75 678 48.375 685 c 2,35,36
 39.751953125 685 39.751953125 685 32.18359375 692.567382812 c 0,37,38
 27.115234375 697.973632812 27.115234375 697.973632812 27.115234375 707.020507812 c 0,39,40
 27.115234375 709.357421875 27.115234375 709.357421875 27.4716796875 711.888671875 c 0,41,42
 28.9150390625 722.159179688 28.9150390625 722.159179688 32.169921875 726.497070312 c 128,-1,43
 35.423828125 730.8359375 35.423828125 730.8359375 40.4580078125 733.07421875 c 0,44,45
 53.98828125 739.086914062 53.98828125 739.086914062 83.974609375 742.534179688 c 128,-1,46
 113.9609375 745.98046875 113.9609375 745.98046875 139.728515625 747.986328125 c 128,-1,47
 165.64453125 749.9921875 165.64453125 749.9921875 189.64453125 750.99609375 c 0,48,49
 237.568359375 753 237.568359375 753 260.034179688 753 c 0,50,51
 339.625 753 339.625 753 405.775390625 726.129882812 c 128,-1,52
 471.924804688 699.260742188 471.924804688 699.260742188 519.465820312 648.813476562 c 0,53,54
 565.971679688 598.203125 565.971679688 598.203125 591.25390625 525.076171875 c 128,-1,55
 616.5 452.05078125 616.5 452.05078125 616.5 362.06640625 c 128,-1,56
 616.5 272.08203125 616.5 272.08203125 588.130859375 203.409179688 c 128,-1,57
 559.762695312 134.735351562 559.762695312 134.735351562 513.135742188 87.6875 c 0,58,59
 465.641601562 40.7841796875 465.641601562 40.7841796875 404.481445312 16.36328125 c 128,-1,60
 343.467773438 -8 343.467773438 -8 280.091796875 -8 c 0,61,62
 260.224609375 -8 260.224609375 -8 248.55859375 -6.9921875 c 2,63,64
 225.372070312 2.51171875 225.372070312 2.51171875 202.185546875 -2.984375 c 2,65,66
 190.416992188 -2 190.416992188 -2 164.368164062 -2 c 128,-1,67
 138.321289062 -2 138.321289062 -2 108.166015625 -4.5009765625 c 0,68,69
 78.541015625 -7.0009765625 78.541015625 -7.0009765625 46.125 -7 c 0,70,71
 41.1533203125 -7 41.1533203125 -7 37.451171875 -3.0517578125 c 128,-1,72
 33.75 0.8125 33.75 0.8125 33.75 11.435546875 c 128,-1,73
 33.75 22.0576171875 33.75 22.0576171875 39.1318359375 29.080078125 c 0,74,75
 48.53125 41.345703125 48.53125 41.345703125 65.3369140625 43.92578125 c 0,76,77
 69.8974609375 44.6259765625 69.8974609375 44.6259765625 76.4541015625 46.7529296875 c 0,78,79
 98.556640625 52.87109375 98.556640625 52.87109375 102.96484375 64.37890625 c 0,80,81
 109.279296875 80.8564453125 109.279296875 80.8564453125 110.629882812 128.450195312 c 0,82,83
 111.00390625 140.345703125 111.00390625 140.345703125 111.752929688 163.466796875 c 0,84,85
 113.25 209.702148438 113.25 209.702148438 113.25 316.54296875 c 2,86,87
 113.25 431.536132812 113.25 431.536132812 113.25 550.451171875 c 2,88,89
 113.25 592.224609375 113.25 592.224609375 111.762695312 615.516601562 c 0,90,91
 108.759765625 662.529296875 108.759765625 662.529296875 106.947265625 668.924804688 c 0,92,31
 102.864257812 680.171875 102.864257812 680.171875 93.2939453125 683.0859375 c 128,-1,32
EndSplineSet
Substitution2: "'c2sc' Versalien in Kapit+AOQA-lchen in Lateinisch Nachschlagetabelle 0 Subtabelle" uni1D05
EndChar

